<svg xmlns="http://www.w3.org/2000/svg" width="263.603" height="325.539"><defs><clipPath id="a" clipPathUnits="userSpaceOnUse"><path d="M0 0h419.528v297.638H0Z"/></clipPath></defs><g clip-path="url(#a)" style="fill:#000" transform="matrix(1.33333 0 0 -1.33333 -153.374 369.336)"><g style="fill:#000"><path d="M0 0s32.632 94.147 35.366 101.381c.109.289.067.298.18.298.114 0 .09 0 .232-.271 3.336-6.382 41.494-84.655 41.494-84.655L51.165 3.402 29.707 47.083s-.51 1.106-1.786 1.106c-1.417 0-1.899-1.304-1.899-1.304L11.055 3.402s-1.757-.256-4.819-.993C2.704 1.559 0 0 0 0" style="fill:#000;fill-opacity:1;fill-rule:nonzero;stroke:none" transform="translate(161.575 175.323)"/></g><g style="fill:#000"><path d="M0 0c-.43 1.52-.838 2.684-1.361 4.139l42.69 21.543-2.778 5.386L-3.525 9.527a55.957 55.957 0 0 1-2.407 4.601l42.329 21.305-2.495 5.442-42.973-21.769c-1.16 1.567-2.181 2.669-3.515 4.081l44.164 22.11-2.665 5.556-46.002-23.53c-1.545 1.27-2.835 2.318-4.568 3.404l48.473 24.265-2.722 5.386-52.011-26.346c-2.04.922-3.787 1.731-6.042 2.421l56.183 28.063-2.608 5.386-62.249-31.408c-1.838.3-1.643.18-3.6.34-.32.027-2.665.284-3.331.284 0 0-.779.992 3.047 2.409 3.544 1.418 4.196 1.729 7.059 2.637 2.863.907 4.279 1.999 4.138 3.033-.425 1.275-.85 1.488-2.05 1.7-.628.112-5.83 1.106-15.524.993-6.463-.341-9.582-.624-17.575-2.906-18.822-6.392-28.063-16.228-26.646-17.504 3.874-3.486 8.504-6.378 8.504-7.653 0-1.276-6.661-7.187-6.661-7.796 0-.607 9.609-5.867 14.938-7.851 5.273-2.098 11.003-4.337 18.94-4.337 7.937 0 7.168 1.082 13.89.708 7.654-.425 15.93-3.003 15.93-3.003 11.136-4.084 18.705-13.381 19.64-26.477.425-15.732-13.323-29.481-29.334-29.355-5.279.041-10.233 1.363-14.513 3.749L-56.15-54s9.775-8.079 15.445-19.559c4.677-10.914 5.532-20.586 5.532-20.586h2.268s.283 2.161.708 4.854c.426 2.693.987 3.968 1.98 6.236.992 2.268 2.976 4.677 2.976 4.677l3.26 3.543c4.252 4.252 4.252 3.799 6.519 5.244 3.969 2.127 5.386 2.693 9.359 5.245 5.382 3.259 10.909 7.936 14.169 12.614 3.543 5.527 4.115 7.228 6.666 15.165 1.98 7.087 2.263 9.071 2.835 17.15.47 6.645-1.337 14.315-1.337 14.315s-11.339-5.84-11.962-6.01c-.254 2.027-.462 3.158-.851 5.103l44.391 22.393-2.665 5.386zm-70.736 28.771a4.34 4.34 0 1 0-8.68.001 4.34 4.34 0 0 0 8.68-.001" style="fill:#000;fill-opacity:1;fill-rule:nonzero;stroke:none" transform="translate(237.713 126.992)"/></g><g style="fill:#000"><path d="M0 0s1.794-1.124 4.139-2.154c1.87-.822 4.308-1.815 4.308-1.815l-30.784-88.157h-9.694z" style="fill:#000;fill-opacity:1;fill-rule:nonzero;stroke:none" transform="translate(147.061 134.079)"/></g><g style="fill:#000"><path d="m0 0 13.323 6.718L56.764-81.78H23.882L-.85-31.606S.992-24.52 1.276-16.583C1.574-8.221 0 0 0 0" style="fill:#000;fill-opacity:1;fill-rule:nonzero;stroke:none" transform="translate(255.969 123.732)"/></g></g></svg>