<svg xmlns="http://www.w3.org/2000/svg" width="921.26" height="141.732" version="1.0"><g style="fill-rule:evenodd"><path d="M16277100 1025370h-386790V854750c3930-212410-3730-379190 261700-379190 56930 0 110070 7550 174550 18960V289590c-75960-11220-132890-14910-201060-14910-382990 0-477670 234940-474040 572520v178170h-333610v200890h333610v1755780h238850V1226260h386790v-200890zm901850 144070c458830 0 686460 417110 686460 834270 0 417100-227630 834260-686460 834260s-686220-417160-686220-834260c0-417160 227390-834270 686220-834270zm0-200950c-599090 0-925250 474110-925250 1035220 0 561170 326160 1035160 925250 1035160 599210 0 925260-473990 925260-1035160 0-561110-326050-1035220-925260-1035220zm1129530 2013550h238920V1939230c0-405760 295870-724200 728000-701490V998930c-352550-15150-618040 170510-739350 485330h-7540v-458890h-220030v1956670zm2453360-1384020c-15350-424780-326170-629530-716830-629530-344890 0-735610 151620-735610 549890 0 333710 235180 439810 546200 523310l307020 68170c216110 53070 428580 129020 428580 356430 0 273090-310950 371680-534780 371680-318440 0-557430-166890-576320-489240h-238870c37970 477770 348810 690140 803780 690140 364150 0 785000-162980 785000-587750 0-341260-284330-500550-557430-542330l-318390-71850c-163090-41780-405810-117740-405810-329970 0-253960 250280-337530 462630-337530 273040 0 500490 132780 511850 428580h238980zm1880760 41770c-53250-447580-375430-671300-792610-671300-599080 0-925190 474110-925190 1035220 0 561170 326110 1035160 925190 1035160 436130 0 743220-288140 807770-758310h-238990c-30240 325930-273030 557410-568780 557410-458870 0-686320-417160-686320-834260 0-417160 227450-834270 686320-834270 311020 0 489260 178240 553760 470350h238850zm192440 1342250h238870V1840630c7560-382880 235180-671190 614360-671190 386800 0 496520 254030 496520 591660v1220940h239030V1723070c0-466380-166820-754580-716580-754580-276960 0-538540 159180-625770 394350h-7560V274680h-238870v2707360zm2266860-2544450h-238860v587780h-341320v200890h341320v1338620c-3810 333720 106210 439860 424650 439860 72080 0 140270-7550 212350-7550v-204750c-68170 7560-136450 11240-204750 11240-170690-11240-193390-102220-193390-257760V1226260h398140v-200890h-398140V437590zM1364600 274680H826120v443600h538480V274680zM500080 3657020c56880 7440 117500 15160 174310 15160 542340 0 690210-189650 690210-591600V1021510H826250v2032510c0 147920-98600 174430-208670 174430-45470 0-83440-3680-117500-15160v443730zm3036810-2635510h-538520v1027780c0 398030-125120 561110-417180 561110-250140 0-345000-159280-345000-481580V1021510h-538410v1205910c0 485320 144010 807760 716650 807760 227570 0 462630-106210 599200-326170h11240v273030h512020V1021510zm1189910 1497900c-329970 0-436120-307260-436120-587790 0-291830 132780-557430 436120-557430 348760 0 458710 284450 458710 603020 0 280510-151670 542200-458710 542200zm970730-1497900h-512020v261690h-7430c-129020-227390-326170-314710-584050-314710-549880 0-841750 462530-841750 970740 0 538460 250210 985880 838000 985880 235120 0 470180-98610 587800-303350h7430v257880c3800 280640-132540 485390-432200 485390-189600 0-352680-68290-402060-269300h-534610c26620 447420 477780 629590 864580 629590 902490 0 1016310-546140 1016310-868510V1021510zm742630 769900c7660-151620 106200-417220 447640-417220 261630 0 379060 144190 428400 417220h-876040zm1414560 341210c37860-602880-284380-1164130-951830-1164130-595400 0-1001030 447490-1001030 1035220 0 606690 382930 1031470 1001030 1031470 443620 0 765990-197210 917600-659950h-473980c-34170 121410-208550 254140-424650 254140-299550 0-466550-155420-481700-496750h1414560zm185490 849420h538410V1954380c0-398020 125220-561110 417040-561110 250460 0 345130 159160 345130 481470v1107300h538540V1776140c0-485390-144200-807650-716780-807650-227450 0-462510 106160-598960 326180h-11480v-273160h-511900v1960530zm3506820-985880c0 322240-106160 633210-462640 633210-333770 0-473970-322310-473970-629520 0-322310 121290-625660 473970-625660 348820 0 462640 303350 462640 621970zm7600 985880h511840V274680h-538410v985760h-7540 3800c-125110-193400-352790-291950-583990-291950-576390 0-868320 489260-868320 1016320 0 542160 288180 1050370 879730 1050370 250210 0 470180-91120 595290-303350h7600v250210z" style="fill:#000;fill-opacity:1" transform="matrix(.00004 0 0 .00004 -.002 0)"/><path d="M12359800 1686690c0-770310 624350-1394900 1394850-1394900 770190 0 1394900 624590 1394900 1394900 0 770440-624710 1394840-1394900 1394840-770500 0-1394850-624400-1394850-1394840z" style="fill:#cc0001" transform="matrix(.00004 0 0 .00004 -.002 0)"/><path d="m13659600 2772180-37330-5940-23190 146680c-4200 26630-12180 40230-36480 36560-22580-3690-26870-18730-23120-42970l1780-11000-37390-5950-1780 11420c-6110 38750 7670 71260 52730 78390 61320 9750 76010-25620 81890-62640l22890-144550zm24780 138840c1000 55330 36840 82140 89980 81370 53190-960 88140-29070 87070-84410l-2320-138290-37800 710 2260 125820c410 29000-830 62700-49740 63420-48970 890-51480-32690-51830-61750l-2260-125710-37860 710 2500 138130zm396890-81960-89920 19080 5940 28110 56230-11950c7070 36020-8800 63190-46900 70430-45220 9750-72570-26200-81190-66620-8670-40590 1730-84580 47140-94200 26560-5530 53730 3440 63240 30490l36020-7670c-15640-46480-59570-62770-105740-52900-63350 13370-90520 71630-77610 132130 12590 60320 61260 102580 124690 89080 25730-5520 42070-16690 57110-43380l10990 23600 23660-5000-23660-111200zm77260 92250 146150-59080-12300-30200-111020 44870-23590-58530 100790-40770-11470-28600-100920 40660-21280-52430 109250-44090-12420-30190-144070 58120 80880 200240zm190550-79940 30900-18430-81900-136170 960-530 165930 85530 34180-20630-111260-185070-30790 18600 81960 136290-470 400-166590-85630-34130 20560 111210 185080zm196130-124810 65560-60990c48730-45400 36730-100380-3980-143940-40770-43630-94630-59380-143240-13970l-65550 60920 147210 157980zm-98550-161130 27290-25320c43320-40470 75650-24310 105200 7190 29470 31730 43380 65140 0 105560l-27280 25260-105210-112690zm336580-88670 21100-31330-79410-53550 54570-80940-25620-17290-54440 80940-47010-31500 62220-92300-26980-18310-83440 123690 179010 120590zm-29960-325520c18730-42200 63840-43320 101630-26570 37930 16890 67460 51240 48620 93480-18840 42330-64060 43340-101990 26520-37730-16760-67100-51180-48260-93430zm-28280-12540c-26400 59080 4930 115420 61150 140500 56470 25070 119220 10630 145550-48560 26330-59080-4930-115360-61330-140440-56280-25080-119040-10630-145370 48500zm258940-50880 8510-36730-86660-19960 12600-54270c7780-33870 26750-37860 65320-28940 10340 2250 21810 4980 32270 1490l9100-39480c-10460 5890-33700 4290-58070-1360-33340-7660-46950 8740-51710 21110l-710-180c-600-7440-4460-37680-44810-47010-35600-8330-62350 10450-72990 56390l-23240 100560 210390 48380zm-171690-78390 13730-59790c4400-19250 13720-35310 40640-29070 22110 5000 30490 20270 25090 43640l-13850 60370-65610-15150zm145960-136580c53430 2080 79160-36670 81720-85880 2260-42790-14850-86830-63060-89270-22530-1250-47420 11060-57230 39100-3920 10950-18960 58010-19980 61230-4930 15210-13950 25070-29060 24250-21750-1140-26910-23540-26020-40950 1360-26090 12600-44220 40460-44530l1800-37790c-44820-2430-70610 34060-72990 79110-2020 38930 16110 79880 59310 82260 22300 1000 45230-8620 57230-44940 9690-29180 14620-48620 21040-63420 3820-8550 11000-17290 27580-16330 16280 760 31920 14020 30320 47300-1730 30200-15880 53910-49150 52060l-1970 37800zm-87720-384650c-45640 10170-67700 51590-62060 99910 7910 64190 63610 96340 124940 88920 61210-7490 107450-52310 99610-116440-6480-51890-46290-83930-98010-80650l4530 36670c31610-950 58770 14440 62870 47660 5590 45880-32500 70140-73630 75130-41140 5170-84050-9160-89690-55040-3870-31260 12180-49260 36010-58660l-4570-37500zm136750-67930-10400-36370-93720 26800-26990-94500 93560-26930-10350-36190-207480 59490 10340 36310 82620-23640 26980 94380-82500 23770 10350 36310 207590-59430zm-229700-124630-29900-61390 164690-80360-16640-34000-164760 80350-29950-61750-29420 14330 76550 157080 29430-14260zm-1803990-731450 815670 654310 730610-657280-403670 926930 378890 321350-422930 31620-2730 436110-263650-275520-859700 769890 447760-884600-414830 28640 477890-418940-483310-932510z" style="fill:#fff;fill-opacity:1" transform="matrix(.00004 0 0 .00004 -.002 0)"/></g></svg>