<svg xmlns="http://www.w3.org/2000/svg" xmlns:xlink="http://www.w3.org/1999/xlink" width="249.026" height="252.586" viewBox="0 0 65.888 66.83" xmlns:v="https://vecta.io/nano"><style><![CDATA[.B{fill:none}.C{stroke-linejoin:miter}.D{stroke-width:7}.E{fill:#fff}.F{stroke:#404040}.G{stroke:#f7f7f7}.H{stroke:#000}.I{stroke-width:35}.J{stroke-linecap:square}.K{font-family:sans-serif}.L{font-size:282.222px}.M{stroke-width:26}]]></style><defs><clipPath id="A"><path d="M0 0h20990v27622H0z"/></clipPath><path id="B" d="M5855.537 18479.131l14 1 14 2 14 4 14 5 13 6 12 7 12 9 11 9 10 10 9 11 8 11 7 12 6 13 4 12 2 13 1 13-1 13-2 13-4 13-6 12-7 12-8 12-9 11-10 10-11 9-12 8-12 8-13 6-14 5-14 4-14 2-14 1-14-1-14-2-14-4-14-5-13-6-12-8-12-8-11-9-11-10-9-11-8-12-7-12-5-12-5-13-2-13-1-13 1-13 2-13 5-12 5-13 7-12 8-11 9-11 11-10 11-9 12-9 12-7 13-6 14-5 14-4 14-2z"/><path id="C" d="M5855.537 18475.131l14 1 14 2 13 4 13 5 13 7 12 7 12 9 10 9 10 11 9 11 8 12 6 12 6 13 4 13 2 13 1 13-1 13-2 14-4 13-6 13-6 12-8 12-9 11-10 11-10 9-12 9-12 7-13 7-13 5-13 4-14 2-14 1-14-1-14-2-13-4-13-5-13-7-12-7-12-9-11-9-10-11-9-11-8-12-6-12-6-13-4-13-2-14-1-13 1-13 2-13 4-13 6-13 6-12 8-12 9-11 10-11 11-9 12-9 12-7 13-7 13-5 13-4 14-2z"/><path id="D" d="M5528.537 18328.131l14 1 14 2 14 4 14 5 13 6 12 8 12 8 11 9 10 10 9 11 8 12 7 12 6 12 4 13 2 13 1 13-1 13-2 13-4 13-6 12-7 12-8 12-9 11-10 10-11 9-12 8-12 8-13 6-14 5-14 4-14 2-14 1-14-1-14-2-14-4-14-5-13-6-12-8-12-8-11-9-10-10-9-11-8-12-7-12-6-12-4-13-2-13-1-13 1-13 2-13 4-13 6-12 7-12 8-12 9-11 10-10 11-9 12-8 12-8 13-6 14-5 14-4 14-2z"/><path id="E" d="M6457.537 18425.131l14 1 14 2 13 4 14 5 12 7 13 7 11 9 11 9 10 11 9 11 8 12 7 12 6 13 4 13 2 13 1 13-1 13-2 14-4 13-6 12-7 13-8 11-9 12-10 10-11 10-11 8-13 8-12 7-14 5-13 4-14 2-14 1-14-1-13-2-14-4-13-5-12-7-13-8-11-8-11-10-10-10-9-12-8-11-6-13-6-12-4-13-2-14-1-13 1-13 2-13 4-13 6-13 6-12 8-12 9-11 10-11 11-9 11-9 13-7 12-7 13-5 14-4 13-2z"/><path id="F" d="M5843.537 17448.131l8 1 8 1 8 2 8 4 8 4 7 4 7 6 7 6 5 6 6 7 4 7 4 8 4 8 2 8 1 8 1 8-1 8-1 8-2 9-4 7-4 8-4 7-6 7-5 7-7 6-7 5-7 5-8 4-8 4-8 2-8 1-8 1-8-1-9-1-8-2-8-4-8-4-7-5-7-5-6-6-6-7-6-7-4-7-4-8-4-7-2-9-1-8-1-8 1-8 1-8 2-8 4-8 4-8 4-7 6-7 6-6 6-6 7-6 7-4 8-4 8-4 8-2 9-1z"/><path id="G" d="M5315.537 17750.131l8 1 8 1 8 2 8 4 8 4 7 5 7 5 7 6 5 7 6 7 4 7 4 8 4 7 2 9 1 8 1 8-1 8-1 8-2 8-4 8-4 8-4 7-6 7-5 7-7 5-7 6-7 4-8 4-8 4-8 2-8 1-8 1-8-1-9-1-8-2-8-4-8-4-7-4-7-6-6-5-6-7-6-7-4-7-4-8-4-8-2-8-1-8-1-8 1-8 1-8 2-9 4-7 4-8 4-7 6-7 6-7 6-6 7-5 7-5 8-4 8-4 8-2 9-1z"/><path id="H" d="M5314.537 17747.131l8 1 8 1 8 2 7 4 8 4 7 5 6 5 7 6 5 7 5 7 5 8 4 7 3 9 2 8 2 8v9 9l-2 8-2 9-3 8-4 8-5 8-5 7-5 7-7 6-6 6-7 5-8 4-7 3-8 3-8 1-8 1-8-1-8-1-8-3-7-3-8-4-7-5-6-6-7-6-5-7-5-7-5-8-4-8-3-8-2-9-2-8v-9-9l2-8 2-8 3-9 4-7 5-8 5-7 5-7 7-6 6-5 7-5 8-4 7-4 8-2 8-1z"/><path id="I" d="M6220.537 17272.131l8 1 8 1 8 2 8 4 8 4 7 4 7 6 7 6 5 6 6 7 4 7 4 8 4 8 2 8 1 8 1 8-1 8-1 8-2 9-4 7-4 8-4 7-6 7-5 7-7 6-7 5-7 5-8 4-8 4-8 2-8 1-8 1-8-1-8-1-9-2-7-4-8-4-7-5-7-5-7-6-6-7-5-7-5-7-4-8-4-7-2-9-1-8-1-8 1-8 1-8 2-8 4-8 4-8 5-7 5-7 6-6 7-6 7-6 7-4 8-4 7-4 9-2 8-1z"/><path id="J" d="M6220.537 17269.131l8 1 8 1 7 3 8 3 7 4 7 5 7 6 6 6 5 6 5 8 5 7 4 8 3 8 2 9 2 8v9 9l-2 8-2 9-3 8-4 8-5 7-5 8-5 6-6 6-7 6-7 5-7 4-8 3-7 3-8 1-8 1-8-1-8-1-8-3-8-3-7-4-7-5-7-6-6-6-6-6-5-8-5-7-4-8-3-8-2-9-2-8v-9-9l2-8 2-9 3-8 4-8 5-7 5-8 6-6 6-6 7-6 7-5 7-4 8-3 8-3 8-1z"/><path id="K" d="M5314.537 17222.131l11 1 10 2 11 3 10 4 10 5 9 6 9 7 8 8 8 8 7 9 6 9 5 10 4 10 3 11 2 10 1 11-1 11-2 10-3 11-4 10-5 9-6 10-7 9-8 8-8 7-9 7-9 6-10 5-10 4-11 3-10 2-11 1-11-1-10-2-11-3-10-4-9-5-10-6-9-7-8-7-7-8-7-9-6-10-5-9-4-10-3-11-2-10-1-11 1-11 2-10 3-11 4-10 5-10 6-9 7-9 7-8 8-8 9-7 10-6 9-5 10-4 11-3 10-2z"/><path id="L" d="M5868.537 17197.131l10 1 11 2 10 3 10 4 10 5 9 6 9 7 9 8 7 8 7 9 6 9 5 10 4 10 3 10 2 11 1 10-1 11-2 11-3 10-4 10-5 10-6 10-7 8-7 9-9 7-9 7-9 6-10 5-10 4-10 3-11 2-10 1-11-1-10-2-11-3-10-4-10-5-9-6-9-7-8-7-8-9-7-8-6-10-5-10-4-10-3-10-2-11-1-11 1-10 2-11 3-10 4-10 5-10 6-9 7-9 8-8 8-8 9-7 9-6 10-5 10-4 11-3 10-2z"/><path id="M" d="M5867.537 17194.131l10 1 11 2 10 3 9 4 10 5 9 6 9 8 8 7 7 9 7 9 6 10 5 10 4 10 3 11 1 11 1 11-1 11-1 11-3 11-4 10-5 10-6 10-7 9-7 9-8 7-9 8-9 6-10 5-9 4-10 3-11 2-10 1-10-1-11-2-10-3-9-4-10-5-9-6-9-8-8-7-7-9-7-9-6-10-5-10-4-10-3-11-1-11-1-11 1-11 1-11 3-11 4-10 5-10 6-10 7-9 7-9 8-7 9-8 9-6 10-5 9-4 10-3 11-2z"/><path id="N" d="M5138.537 17294.131l10 1 11 2 10 3 9 4 10 5 9 6 9 8 8 7 7 9 7 9 6 10 5 10 4 10 3 11 1 11 1 11-1 11-1 11-3 10-4 11-5 10-6 10-7 9-7 8-8 8-9 7-9 7-10 5-9 4-10 3-11 2-10 1-10-1-11-2-10-3-9-4-10-5-9-7-9-7-8-8-7-8-7-9-6-10-5-10-4-11-3-10-1-11-1-11 1-11 1-11 3-11 4-10 5-10 6-10 7-9 7-9 8-7 9-8 9-6 10-5 9-4 10-3 11-2z"/><path id="O" d="M6168.537 17147.131l11 1 11 2 10 3 10 4 10 5 10 6 8 7 9 7 7 8 7 9 6 10 5 9 4 10 3 11 2 10 1 11-1 11-2 10-3 11-4 10-5 10-6 9-7 9-7 8-9 8-8 7-10 6-10 5-10 4-10 3-11 2-11 1-10-1-11-2-10-3-10-4-10-5-9-6-9-7-8-8-8-8-7-9-6-9-5-10-4-10-3-11-2-10-1-11 1-11 2-10 3-11 4-10 5-9 6-10 7-9 8-8 8-7 9-7 9-6 10-5 10-4 10-3 11-2z"/><path id="P" d="M5365.537 17675.131l8 1 8 1 8 2 8 4 8 4 7 4 7 6 7 6 5 6 6 7 4 7 4 8 4 8 2 8 1 8 1 8-1 8-1 9-2 8-4 8-4 8-4 7-6 7-5 6-7 6-7 6-7 4-8 4-8 4-8 2-8 1-8 1-8-1-8-1-9-2-7-4-8-4-7-4-7-6-7-6-6-6-5-7-5-7-4-8-4-8-2-8-1-9-1-8 1-8 1-8 2-8 4-8 4-8 5-7 5-7 6-6 7-6 7-6 7-4 8-4 7-4 9-2 8-1z"/><path id="Q" d="M5139.537 17574.131l8 1 8 1 8 2 8 4 8 4 7 4 7 6 7 6 5 6 6 7 4 7 4 8 4 8 2 8 1 9 1 8-1 8-1 8-2 8-4 8-4 8-4 7-6 7-5 7-7 5-7 6-7 4-8 4-8 4-8 2-8 1-8 1-8-1-9-1-8-2-8-4-8-4-7-4-7-6-6-5-6-7-6-7-4-7-4-8-4-8-2-8-1-8-1-8 1-8 1-9 2-8 4-8 4-8 4-7 6-7 6-6 6-6 7-6 7-4 8-4 8-4 8-2 9-1z"/><path id="R" d="M5138.537 17571.131l8 1 8 1 8 2 7 4 8 4 7 5 6 5 7 6 5 7 5 7 5 8 4 7 3 9 2 8 2 8v9 9l-2 8-2 9-3 8-4 8-5 8-5 7-5 7-7 6-6 6-7 5-8 4-7 3-8 3-8 1-8 1-8-1-8-1-7-3-8-3-7-4-7-5-7-6-6-6-6-7-5-7-5-8-4-8-3-8-2-9-2-8v-9-9l2-8 2-8 3-9 4-7 5-8 5-7 6-7 6-6 7-5 7-5 7-4 8-4 7-2 8-1z"/><path id="S" d="M6646.537 17520.131l10 1 11 2 10 3 9 4 10 5 9 7 9 7 8 8 7 8 7 9 6 10 5 10 4 11 3 10 1 11 1 11-1 11-1 11-3 10-4 11-5 10-6 10-7 9-7 9-8 8-9 7-9 6-10 6-9 4-10 3-11 2-10 1-10-1-11-2-10-3-9-4-10-6-9-6-9-7-8-8-7-9-7-9-6-10-5-10-4-11-3-10-1-11-1-11 1-11 1-11 3-10 4-11 5-10 6-10 7-9 7-8 8-8 9-7 9-7 10-5 9-4 10-3 11-2z"/><path id="T" d="M4963.537 17474.131l10 1 11 2 10 3 10 4 10 5 9 6 9 7 9 7 7 9 7 8 6 10 5 10 4 10 3 10 2 11 1 11-1 10-2 11-3 10-4 10-5 10-6 9-7 9-7 9-9 7-9 7-9 6-10 5-10 4-10 3-11 2-10 1-11-1-10-2-11-3-10-4-10-5-9-6-9-7-8-7-8-9-7-9-6-9-5-10-4-10-3-10-2-11-1-10 1-11 2-11 3-10 4-10 5-10 6-10 7-8 8-9 8-7 9-7 9-6 10-5 10-4 11-3 10-2z"/><path id="U" d="M5415.537 17599.131l11 1 10 2 11 3 10 4 9 5 10 6 9 7 8 8 7 8 7 9 6 9 5 10 4 10 3 10 2 11 1 10-1 11-2 11-3 10-4 10-5 10-6 10-7 8-7 9-8 7-9 7-10 6-9 5-10 4-11 3-10 2-11 1-11-1-10-2-10-3-10-4-10-5-10-6-9-7-8-7-8-9-7-8-6-10-5-10-4-10-3-10-2-11-1-11 1-10 2-11 3-10 4-10 5-10 6-9 7-9 8-8 8-8 9-7 10-6 10-5 10-4 10-3 10-2z"/><path id="V" d="M6169.537 17646.131l10 1 11 2 10 3 9 4 10 5 9 7 9 7 8 8 7 8 7 9 6 10 5 10 4 11 3 11 1 11 1 11-1 11-1 11-3 10-4 11-5 10-6 9-7 9-7 9-8 8-9 7-9 6-10 5-9 4-10 3-11 2-10 1-10-1-10-2-10-3-10-4-9-5-10-6-8-7-8-8-8-9-6-9-6-9-5-10-4-11-3-10-2-11-1-11 1-11 2-11 3-11 4-11 5-10 6-10 6-9 8-8 8-8 8-7 10-7 9-5 10-4 10-3 10-2z"/><path id="W" d="M6320.537 17470.131l10 1 11 2 10 3 9 4 10 5 9 7 9 7 8 8 7 9 7 9 6 9 5 11 4 10 3 11 1 11 1 11-1 11-1 11-3 10-4 11-5 10-6 9-7 9-7 9-8 8-9 7-9 6-10 5-9 4-10 3-11 2-10 1-10-1-11-2-10-3-10-4-9-5-9-6-9-7-8-8-7-9-7-9-6-9-5-10-4-11-3-10-1-11-1-11 1-11 1-11 3-11 4-10 5-11 6-9 7-9 7-9 8-8 9-7 9-7 9-5 10-4 10-3 11-2z"/></defs><g clip-path="url(#A)" transform="matrix(.01 0 0 .01 -34.665369 -134.171305)" fill-rule="evenodd"><g class="B C H I J"><path d="M3786.537 17366.131v1357 1358h992 994v-213-214m-2137-2288h276m1584 2262h553m-276-2866v-213-214h-1006-1006v856m-276 24h578m1408-428h578"/></g><path d="M5780.537 17046.131l108 7 108 19 105 31 103 42 100 53 96 61 90 71 85 77 78 85 70 90 61 96 53 100 42 103 31 106 19 108 7 108-7 108-19 108-31 106-42 103-53 100-61 96-70 90-78 85-85 77-90 71-96 61-100 53-103 42-105 31-108 19-108 7-108-7-108-19-106-31-103-42-100-53-96-61-90-71-85-77-78-85-70-90-62-96-52-100-43-103-31-106-19-108-7-108 7-108 19-108 31-106 43-103 52-100 62-96 70-90 78-85 85-77 90-71 96-61 100-53 103-42 106-31 108-19z" class="E"/><path d="M5780.537 17029.131l107 7 105 19 104 32 102 43 98 53 94 63 89 71 83 79 77 86 69 91 61 97 51 102 42 104 30 107 19 109 7 110-7 110-19 109-30 108-42 105-51 101-61 97-69 92-77 86-83 79-89 71-94 63-98 53-102 43-104 32-105 19-107 7-107-7-106-19-104-32-102-43-98-53-95-63-89-71-83-79-77-86-69-92-61-97-51-101-42-105-30-108-19-109-7-110 7-110 19-109 30-107 42-104 51-102 61-97 69-91 77-86 83-79 89-71 95-63 98-53 102-43 104-32 106-19z" class="B C F I"/><use xlink:href="#B"/><use xlink:href="#C" class="B C D G"/><path d="M5955.537 18253.131l16 1 17 3 16 5 16 7 15 9 15 10 14 11 13 13 11 13 11 15 10 16 8 16 6 17 5 17 3 17 1 18-1 18-3 17-5 18-6 17-8 16-10 16-11 15-11 14-13 12-14 12-15 10-15 9-16 7-16 5-17 3-16 1-16-1-17-3-16-5-16-7-15-9-14-10-14-12-13-12-12-14-11-15-9-16-8-16-6-17-5-18-3-17-1-18 1-18 3-17 5-17 6-17 8-16 9-16 11-15 12-13 13-13 14-11 14-10 15-9 16-7 16-5 17-3z"/><path d="M5955.537 18249.131l16 1 16 3 16 6 16 7 15 8 14 11 13 11 13 14 12 14 10 15 9 16 8 16 6 18 5 17 3 18 1 18-1 18-3 18-5 17-6 18-8 16-9 16-10 15-12 14-13 13-13 12-14 10-15 9-16 7-16 5-16 3-16 1-16-1-16-3-16-5-16-7-15-9-14-10-13-12-13-13-12-14-10-15-9-16-8-16-6-18-5-17-3-18-1-18 1-18 3-18 5-17 6-18 8-16 9-16 10-15 12-14 13-14 13-11 14-11 15-8 16-7 16-6 16-3z" class="B C D G"/><path d="M5678.537 18580.131l14 1 14 2 14 4 14 5 13 6 12 8 12 8 12 9 10 10 9 11 8 12 7 12 5 12 5 13 2 13 1 13-1 13-2 13-5 12-5 13-7 12-8 11-9 11-10 10-12 9-12 9-12 7-13 6-14 5-14 4-14 2-14 1-14-1-14-2-14-4-13-5-13-6-13-7-12-9-11-9-10-10-9-11-8-11-7-12-5-13-5-12-2-13-1-13 1-13 2-13 5-13 5-12 7-12 8-12 9-11 10-10 11-9 12-8 13-8 13-6 13-5 14-4 14-2z"/><path d="M5678.537 18576.131l14 1 14 2 14 4 13 5 13 7 12 7 11 9 11 10 10 10 9 11 8 12 6 12 6 13 4 13 2 14 1 13-1 13-2 13-4 13-6 13-6 12-8 12-9 11-10 11-11 9-11 9-12 7-13 7-13 5-14 4-14 2-14 1-14-1-13-2-14-4-13-5-12-7-13-7-11-9-11-9-10-11-9-11-8-12-6-12-6-13-4-13-2-13-1-13 1-13 2-14 4-13 6-13 6-12 8-12 9-11 10-10 11-10 11-9 13-7 12-7 13-5 14-4 13-2z" class="B C D G"/><path d="M6132.537 18705.131l14 1 14 2 14 4 13 5 13 6 12 7 12 9 11 9 10 10 9 11 8 11 7 12 6 13 4 12 2 13 1 13-1 13-2 13-4 13-6 12-7 12-8 12-9 11-10 10-11 10-12 8-12 8-13 6-13 5-14 4-14 2-14 1-14-1-15-2-14-4-13-5-13-6-13-8-12-8-11-10-10-10-9-11-8-12-7-12-6-12-4-13-2-13-1-13 1-13 2-13 4-12 6-13 7-12 8-11 9-11 10-10 11-9 12-9 13-7 13-6 13-5 14-4 15-2z"/><path d="M6132.537 18702.131l14 1 13 2 14 4 13 5 12 7 13 7 11 9 11 9 10 11 9 11 8 11 6 12 6 13 4 13 2 13 1 13-1 13-2 14-4 13-6 12-6 13-8 11-9 12-10 10-11 10-11 8-13 8-12 7-13 5-14 4-13 2-14 1-14-1-14-2-13-4-13-5-13-7-13-8-11-8-11-10-10-10-9-12-8-11-7-13-6-12-4-13-2-14-1-13 1-13 2-13 4-13 6-13 7-12 8-11 9-11 10-11 11-9 11-9 13-7 13-7 13-5 13-4 14-2z" class="B C D G"/><path d="M4950.537 18630.131l14 1 14 2 14 4 14 5 13 6 12 8 12 8 11 10 10 10 9 11 8 11 7 12 6 13 4 12 2 13 1 13-1 13-2 13-4 12-6 13-7 12-8 11-9 11-10 10-11 9-12 9-12 7-13 6-14 5-14 4-14 2-14 1-14-1-14-2-14-4-14-5-13-6-12-7-12-9-11-9-11-10-9-11-8-11-7-12-5-13-5-12-2-13-1-13 1-13 2-13 5-12 5-13 7-12 8-11 9-11 11-10 11-10 12-8 12-8 13-6 14-5 14-4 14-2z"/><path d="M4950.537 18626.131l14 1 14 2 13 4 13 5 13 7 12 8 12 8 11 10 10 10 9 12 8 11 6 13 6 12 4 13 2 14 1 13-1 13-2 13-4 13-6 13-6 12-8 12-9 11-10 11-11 9-12 9-12 7-13 7-13 5-13 4-14 2-14 1-14-1-13-2-14-4-13-5-13-7-12-7-12-9-10-9-10-11-9-11-8-12-7-12-6-13-4-13-2-13-1-13 1-13 2-14 4-13 6-12 7-13 8-11 9-12 10-10 10-10 12-8 12-8 13-7 13-5 14-4 13-2z" class="B C D G"/><path d="M5943.537 19007.131l15 1 16 3 14 4 15 6 14 8 14 8 12 10 12 11 11 12 10 13 9 14 7 14 6 14 4 15 3 16 1 15-1 15-3 16-4 15-6 14-7 14-9 14-10 13-11 12-12 11-12 10-14 8-14 8-15 6-14 4-16 3-15 1-15-1-16-3-15-4-14-6-14-8-14-8-13-10-12-11-11-12-10-13-8-14-8-14-6-14-4-15-3-16-1-15 1-15 3-16 4-15 6-14 8-14 8-14 10-13 11-12 12-11 13-10 14-8 14-8 14-6 15-4 16-3z"/><path d="M5942.537 19003.131l15 1 15 3 15 4 14 6 14 8 13 9 13 10 12 11 10 13 10 13 9 13 7 15 6 15 4 15 3 15 1 16-1 16-3 15-4 16-6 15-7 14-9 14-10 13-10 13-12 11-13 10-13 9-14 8-14 6-15 4-15 3-15 1-15-1-15-3-14-4-15-6-14-8-13-9-12-10-12-11-11-13-9-13-9-14-7-14-6-15-4-16-3-15-1-16 1-16 3-15 4-15 6-15 7-15 9-13 9-13 11-13 12-11 12-10 13-9 14-8 15-6 14-4 15-3z" class="B C D G"/><path d="M5026.537 18554.131l14 1 14 2 14 4 13 5 13 6 12 8 12 8 11 10 10 10 9 11 8 12 7 12 6 12 4 13 2 13 1 13-1 13-2 13-4 12-6 13-7 12-8 11-9 11-10 10-11 9-12 9-12 7-13 6-13 5-14 4-14 2-14 1-14-1-14-2-14-4-14-5-13-6-12-7-12-9-11-9-11-10-9-11-8-11-7-12-5-13-5-12-2-13-1-13 1-13 2-13 5-13 5-12 7-12 8-12 9-11 11-10 11-10 12-8 12-8 13-6 14-5 14-4 14-2z"/><path d="M5025.537 18551.131l14 1 13 2 14 4 13 5 13 7 12 7 12 9 10 10 10 10 9 11 8 12 7 12 6 13 4 13 2 14 1 13-1 13-2 13-4 13-6 13-7 12-8 12-9 11-10 10-10 10-12 8-12 8-13 6-13 5-14 4-13 2-14 1-14-1-14-2-13-4-13-5-13-6-12-8-12-8-11-10-10-10-9-11-8-12-6-12-6-13-4-13-2-13-1-13 1-13 2-14 4-13 6-13 6-12 8-12 9-11 10-10 11-10 12-9 12-7 13-7 13-5 13-4 14-2z" class="B C D G"/><path d="M6533.537 18781.131l10 1 9 1 9 3 9 4 9 4 8 6 8 6 8 7 6 7 6 8 6 8 4 9 4 9 3 9 1 10 1 9-1 9-1 10-3 9-4 9-4 9-6 8-6 8-6 7-8 7-8 6-8 6-9 4-9 4-9 3-9 1-10 1-9-1-10-1-9-3-9-4-9-4-8-6-8-6-7-7-7-7-6-8-6-8-4-9-4-9-3-9-1-10-1-9 1-9 1-10 3-9 4-9 4-9 6-8 6-8 7-7 7-7 8-6 8-6 9-4 9-4 9-3 10-1z"/><path d="M6533.537 18777.131l9 1 9 1 9 3 9 4 8 5 8 5 8 7 7 6 7 8 6 8 5 9 4 9 4 9 3 10 1 9 1 10-1 10-1 9-3 10-4 9-4 9-5 9-6 8-7 8-7 7-8 6-8 6-8 5-9 4-9 3-9 1-9 1-9-1-9-1-9-3-9-4-8-5-8-6-8-6-7-7-6-8-6-8-5-9-5-9-3-9-3-10-1-9-1-10 1-10 1-9 3-10 3-9 5-9 5-9 6-8 6-8 7-6 8-7 8-5 8-5 9-4 9-3 9-1z" class="B C D G"/><path d="M5075.537 18781.131l14 1 14 2 14 4 13 5 13 6 13 7 12 9 11 9 10 10 10 11 8 11 7 12 5 13 5 12 2 13 1 13-1 13-2 13-5 13-5 12-7 12-8 12-10 11-10 10-11 9-12 8-13 8-13 6-13 5-14 4-14 2-14 1-14-1-14-2-14-4-13-5-13-6-13-8-12-8-11-9-10-10-9-11-8-12-7-12-5-12-5-13-2-13-1-13 1-13 2-13 5-12 5-13 7-12 8-11 9-11 10-10 11-9 12-9 13-7 13-6 13-5 14-4 14-2z"/><path d="M5075.537 18777.131l14 1 14 2 14 4 13 5 13 7 12 7 11 9 11 9 10 11 9 11 8 12 6 12 6 13 4 13 2 13 1 13-1 13-2 14-4 13-6 13-6 12-8 12-9 11-10 11-11 9-11 9-12 7-13 7-13 5-14 4-14 2-14 1-14-1-14-2-13-4-13-5-13-7-12-7-12-9-10-9-10-11-9-11-8-12-6-12-6-13-4-13-2-14-1-13 1-13 2-13 4-13 6-13 6-12 8-12 9-11 10-11 10-9 12-9 12-7 13-7 13-5 13-4 14-2z" class="B C D G"/><path d="M6395.537 18906.131l11 1 10 1 11 3 10 4 10 4 9 6 9 6 8 7 8 7 7 8 6 9 5 9 4 9 3 9 2 9 1 10-1 9-2 10-3 9-4 9-5 8-6 9-7 7-8 8-8 6-9 7-9 5-10 4-10 4-11 3-10 1-11 1-11-1-10-1-11-3-10-4-10-4-9-5-9-7-8-6-8-8-7-7-6-9-5-8-4-9-3-9-2-10-1-9 1-10 2-9 3-9 4-9 5-9 6-9 7-8 8-7 8-7 9-6 9-6 10-4 10-4 11-3 10-1z"/><path d="M6396.537 18903.131l10 1 10 1 10 3 10 4 9 5 9 5 9 7 8 7 7 7 7 8 6 9 5 9 4 10 3 9 1 10 1 10-1 10-1 9-3 10-4 9-5 9-6 9-7 8-7 8-8 6-9 7-9 5-9 5-10 4-10 3-10 1-10 1-10-1-11-1-10-3-10-4-9-5-9-5-9-7-8-6-8-8-6-8-6-9-5-9-4-9-3-10-2-9-1-10 1-10 2-10 3-9 4-10 5-9 6-9 6-8 8-7 8-7 9-7 9-5 9-5 10-4 10-3 11-1z" class="B C D G"/><use xlink:href="#D"/><path d="M5528.537 18325.131l14 1 14 2 13 4 13 5 13 7 12 7 12 9 11 9 10 11 9 11 8 12 6 12 6 13 4 13 2 13 1 13-1 13-2 13-4 13-6 13-6 12-8 12-9 11-10 11-11 9-12 9-12 7-13 7-13 5-13 4-14 2-14 1-14-1-13-2-14-4-13-5-13-7-12-7-12-9-10-9-10-11-9-11-8-12-7-12-6-13-4-13-2-13-1-13 1-13 2-13 4-13 6-13 7-12 8-12 9-11 10-11 10-9 12-9 12-7 13-7 13-5 14-4 13-2z" class="B C D G"/><path d="M5967.537 18655.131l15 1 16 2 15 4 14 6 15 7 13 8 13 9 12 10 11 11 10 12 9 12 8 13 6 14 4 14 3 14 1 14-1 14-3 14-4 14-6 13-8 13-9 13-10 12-11 11-12 10-13 10-13 8-15 7-14 5-15 5-16 2-15 1-15-1-15-2-15-5-15-5-14-7-13-8-13-10-12-10-11-11-10-12-9-13-7-13-6-13-4-14-3-14-1-14 1-14 3-14 4-14 6-14 7-13 9-12 10-12 11-11 12-10 13-9 13-8 14-7 15-6 15-4 15-2z"/><path d="M5967.537 18651.131l15 1 15 3 15 4 14 5 14 7 14 9 12 9 12 11 11 11 9 12 9 13 7 13 6 14 4 14 3 15 1 14-1 15-3 14-4 14-6 14-7 14-9 12-9 12-11 12-12 10-12 10-14 8-14 7-14 5-15 5-15 2-15 1-15-1-15-2-14-5-15-5-14-7-13-8-12-10-12-10-11-12-9-12-9-12-7-14-6-14-4-14-3-14-1-15 1-14 3-15 4-14 6-14 7-13 9-13 9-12 11-11 12-11 12-9 13-9 14-7 15-5 14-4 15-3z" class="B C D G"/><path d="M5855.537 18831.131l14 1 14 2 14 4 14 5 13 6 12 8 12 8 11 9 10 10 9 11 8 12 7 12 6 12 4 13 2 13 1 13-1 13-2 13-4 12-6 13-7 12-8 11-9 11-10 10-11 9-12 9-12 7-13 6-14 5-14 4-14 2-14 1-14-1-14-2-14-4-14-5-13-6-12-7-12-9-11-9-11-10-9-11-8-11-7-12-5-13-5-12-2-13-1-13 1-13 2-13 5-13 5-12 7-12 8-12 9-11 11-10 11-9 12-8 12-8 13-6 14-5 14-4 14-2z"/><path d="M5855.537 18827.131l14 1 14 2 13 4 13 5 13 7 12 7 12 9 10 10 10 10 9 11 8 12 6 12 6 13 4 13 2 14 1 13-1 13-2 13-4 13-6 13-6 12-8 12-9 11-10 11-10 9-12 9-12 7-13 7-13 5-13 4-14 2-14 1-14-1-14-2-13-4-13-5-13-7-12-7-12-9-11-9-10-11-9-11-8-12-6-12-6-13-4-13-2-13-1-13 1-13 2-14 4-13 6-13 6-12 8-12 9-11 10-10 11-10 12-9 12-7 13-7 13-5 13-4 14-2z" class="B C D G"/><path d="M6257.537 18529.131l14 1 14 2 14 4 14 5 13 6 12 8 12 8 12 9 10 10 9 11 8 12 7 12 5 12 5 13 2 13 1 13-1 13-2 13-5 13-5 12-7 12-8 12-9 11-10 10-12 9-12 8-12 8-13 6-14 5-14 4-14 2-14 1-14-1-14-2-14-4-13-5-13-6-13-8-12-8-11-9-10-10-10-11-8-12-7-12-5-12-5-13-2-13-1-13 1-13 2-13 5-13 5-12 7-12 8-12 10-11 10-10 11-9 12-8 13-8 13-6 13-5 14-4 14-2z"/><path d="M6256.537 18526.131l14 1 14 2 14 4 13 5 13 7 12 7 12 9 11 9 10 11 9 11 8 12 6 12 6 13 4 13 2 13 1 13-1 13-2 13-4 13-6 13-6 12-8 12-9 11-10 11-11 9-12 9-12 7-13 7-13 5-14 4-14 2-14 1-14-1-13-2-14-4-13-5-12-7-13-7-11-9-11-9-10-11-9-11-8-12-6-12-6-13-4-13-2-13-1-13 1-13 2-13 4-13 6-13 6-12 8-12 9-11 10-11 11-9 11-9 13-7 12-7 13-5 14-4 13-2z" class="B C D G"/><path d="M6458.537 18429.131l14 1 14 2 14 4 14 5 13 6 12 7 12 9 11 9 10 10 9 11 8 11 7 12 6 13 4 12 2 13 1 13-1 13-2 13-4 12-6 13-7 12-8 11-9 11-10 10-11 10-12 8-12 8-13 6-14 5-14 4-14 2-14 1-14-1-14-2-14-4-14-5-13-6-12-8-12-8-11-10-10-10-9-11-8-11-7-12-6-13-4-12-2-13-1-13 1-13 2-13 4-12 6-13 7-12 8-11 9-11 10-10 11-9 12-9 12-7 13-6 14-5 14-4 14-2z"/><use xlink:href="#E" class="B C D G"/><path d="M5640.537 18755.131l15 1 16 2 15 5 14 5 15 7 13 8 13 9 12 10 11 11 10 12 9 13 8 13 6 13 4 14 3 14 1 14-1 14-3 15-4 14-6 13-8 13-9 13-10 12-11 11-12 10-13 9-13 8-15 7-14 6-15 4-16 2-15 1-15-1-15-2-15-4-15-6-14-7-13-8-13-9-12-10-11-11-10-12-9-13-7-13-6-13-4-14-3-15-1-14 1-14 3-14 4-14 6-13 7-13 9-13 10-12 11-11 12-10 13-9 13-8 14-7 15-5 15-5 15-2z"/><path d="M5640.537 18752.131l15 1 15 3 15 4 14 5 14 7 14 9 12 9 12 11 11 11 9 12 9 13 7 13 6 14 4 14 3 15 1 14-1 14-3 15-4 14-6 14-7 13-9 13-9 12-11 11-12 11-12 9-14 9-14 7-14 5-15 4-15 3-15 1-15-1-15-3-14-4-14-5-14-7-13-9-12-9-12-11-11-11-10-12-8-13-7-13-6-14-4-14-3-15-1-14 1-14 3-15 4-14 6-14 7-13 8-13 10-12 11-11 12-11 12-9 13-9 14-7 14-5 14-4 15-3z" class="B C D G"/><path d="M5729.537 19107.131l12 1 12 2 11 3 11 5 11 6 11 7 9 7 10 9 8 9 8 10 6 11 6 11 5 11 3 11 2 12 1 12-1 12-2 12-3 11-5 11-6 11-6 11-8 9-8 10-10 8-9 8-11 6-11 6-11 5-11 3-12 2-12 1-12-1-12-2-11-3-11-5-11-6-11-6-9-8-10-8-8-10-8-9-6-11-6-11-5-11-3-11-2-12-1-12 1-12 2-12 3-11 5-11 6-11 6-11 8-10 8-9 10-9 9-7 11-7 11-6 11-5 11-3 12-2z"/><path d="M5728.537 19104.131l12 1 11 2 11 3 12 5 10 6 10 7 10 7 9 9 9 10 7 10 7 10 5 11 5 12 3 12 2 12 1 12-1 12-2 13-3 12-5 11-5 11-7 11-7 10-9 10-9 8-10 8-10 7-10 6-12 5-11 3-11 2-12 1-11-1-12-2-11-3-11-5-10-6-10-7-10-8-9-8-8-10-7-10-7-11-6-11-4-11-3-12-2-13-1-12 1-12 2-12 3-12 4-12 6-11 7-10 7-10 8-10 9-9 10-7 10-7 10-6 11-5 11-3 12-2z" class="B C D G"/><path d="M6684.537 18529.131l14 1 14 2 14 4 14 5 13 6 12 8 12 8 11 9 10 10 9 11 8 12 7 12 6 12 4 13 2 13 1 13-1 13-2 13-4 13-6 12-7 12-8 12-9 11-10 10-11 9-12 8-12 8-13 6-14 5-14 4-14 2-14 1-14-1-14-2-14-4-14-5-13-6-12-8-12-8-11-9-10-10-9-11-8-12-7-12-6-12-4-13-2-13-1-13 1-13 2-13 4-13 6-12 7-12 8-12 9-11 10-10 11-9 12-8 12-8 13-6 14-5 14-4 14-2z"/><path d="M6685.537 18526.131l14 1 13 2 14 4 13 5 12 7 13 7 11 9 11 9 10 11 9 11 8 12 6 12 6 13 4 13 2 13 1 13-1 13-2 13-4 13-6 13-6 12-8 12-9 11-10 11-11 9-11 9-13 7-12 7-13 5-14 4-13 2-14 1-14-1-14-2-13-4-13-5-13-7-13-7-11-9-11-9-10-11-9-11-8-12-7-12-6-13-4-13-2-13-1-13 1-13 2-13 4-13 6-13 7-12 8-12 9-11 10-11 11-9 11-9 13-7 13-7 13-5 13-4 14-2z" class="B C D G"/><path d="M5528.537 18730.131l14 1 14 2 14 4 14 5 13 6 12 8 12 8 11 9 10 10 9 11 8 12 7 12 6 12 4 13 2 13 1 13-1 13-2 13-4 12-6 13-7 12-8 11-9 11-10 10-11 10-12 8-12 8-13 6-14 5-14 4-14 2-14 1-14-1-14-2-14-4-14-5-13-6-12-8-12-8-11-10-10-10-9-11-8-11-7-12-6-13-4-12-2-13-1-13 1-13 2-13 4-13 6-12 7-12 8-12 9-11 10-10 11-9 12-8 12-8 13-6 14-5 14-4 14-2z"/><path d="M5528.537 18727.131l14 1 14 2 13 4 13 5 13 7 12 7 12 9 11 9 10 11 9 11 8 12 6 12 6 13 4 13 2 13 1 13-1 13-2 13-4 13-6 13-6 12-8 12-9 11-10 10-11 10-12 9-12 7-13 7-13 5-13 4-14 2-14 1-14-1-13-2-14-4-13-5-13-7-12-7-12-9-10-10-10-10-9-11-8-12-7-12-6-13-4-13-2-13-1-13 1-13 2-13 4-13 6-13 7-12 8-12 9-11 10-11 10-9 12-9 12-7 13-7 13-5 14-4 13-2z" class="B C D G"/><path d="M5981.537 18856.131l9 1 10 1 9 3 9 4 8 4 9 6 7 6 8 6 6 8 7 8 5 8 4 9 4 9 3 9 1 9 1 10-1 10-1 9-3 9-4 9-4 9-5 8-7 8-6 8-8 6-7 6-9 6-8 4-9 4-9 3-10 1-9 1-10-1-9-1-9-3-9-4-9-4-9-6-8-6-7-6-7-8-6-8-6-8-4-9-4-9-3-9-1-9-1-10 1-10 1-9 3-9 4-9 4-9 6-8 6-8 7-8 7-6 8-6 9-6 9-4 9-4 9-3 9-1z"/><path d="M5980.537 18852.131l9 1 9 1 9 3 9 4 8 5 9 6 7 6 7 7 7 8 6 8 5 9 5 9 3 10 3 9 1 10 1 10-1 10-1 9-3 10-3 9-5 9-5 9-6 8-7 8-7 6-7 7-9 5-8 5-9 4-9 3-9 1-9 1-9-1-9-1-9-3-9-4-8-5-8-5-8-7-7-6-6-8-6-8-5-9-5-9-3-9-3-10-1-9-1-10 1-10 1-10 3-9 3-10 5-9 5-9 6-8 6-8 7-7 8-6 8-6 8-5 9-4 9-3 9-1z" class="B C D G"/><path d="M5277.537 18353.131l14 1 14 2 14 4 13 5 13 6 13 8 12 8 11 10 10 10 9 11 8 12 7 12 5 12 5 13 2 13 1 13-1 13-2 13-5 12-5 13-7 12-8 11-9 11-10 10-11 9-12 9-13 7-13 6-13 5-14 4-14 2-14 1-14-1-14-2-14-4-14-5-13-6-12-7-12-9-11-9-11-10-9-11-8-11-7-12-5-13-5-12-2-13-1-13 1-13 2-13 5-13 5-12 7-12 8-12 9-11 11-10 11-10 12-8 12-8 13-6 14-5 14-4 14-2z"/><path d="M5277.537 18350.131l14 1 14 2 13 4 13 5 13 7 12 8 12 8 10 10 10 10 9 12 8 11 6 13 6 12 4 13 2 14 1 13-1 13-2 13-4 13-6 13-6 12-8 11-9 11-10 11-10 9-12 9-12 7-13 7-13 5-13 4-14 2-14 1-14-1-14-2-13-4-13-5-13-7-12-7-12-9-11-9-10-11-9-11-8-11-6-12-6-13-4-13-2-13-1-13 1-13 2-14 4-13 6-12 6-13 8-11 9-12 10-10 11-10 12-8 12-8 13-7 13-5 13-4 14-2z" class="B C D G"/><path d="M6157.537 18906.131l14 1 14 2 14 4 13 5 13 6 13 8 12 8 11 10 10 10 9 11 8 12 7 12 5 12 5 13 2 13 1 13-1 13-2 13-5 12-5 13-7 12-8 11-9 11-10 10-11 9-12 9-13 7-13 6-13 5-14 4-14 2-14 1-14-1-15-2-14-4-13-5-13-6-13-7-12-9-11-9-10-10-9-11-8-11-7-12-6-13-4-12-2-13-1-13 1-13 2-13 4-13 6-12 7-12 8-12 9-11 10-10 11-10 12-8 13-8 13-6 13-5 14-4 15-2z"/><path d="M6157.537 18903.131l14 1 13 2 14 4 13 5 12 7 13 8 11 8 11 10 10 10 9 12 8 11 6 13 6 12 4 13 2 14 1 13-1 13-2 13-4 13-6 13-6 12-8 11-9 11-10 11-11 9-11 9-13 7-12 7-13 5-14 4-13 2-14 1-14-1-14-2-13-4-13-5-13-7-13-7-11-9-11-9-10-11-9-11-8-11-7-12-6-13-4-13-2-13-1-13 1-13 2-14 4-13 6-12 7-13 8-11 9-12 10-10 11-10 11-8 13-8 13-7 13-5 13-4 14-2z" class="B C D G"/><path d="M6420.537 18630.131l15 1 16 3 15 4 14 6 14 7 14 9 13 10 12 11 11 12 10 12 8 14 8 14 6 15 4 14 3 16 1 15-1 16-3 15-4 15-6 15-8 14-8 14-10 13-11 12-12 11-13 10-14 8-14 8-14 6-15 4-16 3-15 1-15-1-16-3-15-4-14-6-14-8-14-8-13-10-12-11-11-12-10-13-8-14-8-14-6-15-4-15-3-15-1-16 1-15 3-16 4-14 6-15 8-14 8-14 10-12 11-12 12-11 13-10 14-9 14-7 14-6 15-4 16-3z"/><path d="M6421.537 18626.131l15 1 15 3 14 4 15 7 14 7 13 9 12 11 12 11 11 12 9 13 9 14 7 15 6 15 4 15 3 15 1 16-1 16-3 15-4 16-6 15-7 14-9 14-9 13-11 12-12 11-12 10-13 9-14 8-15 6-14 4-15 3-15 1-15-1-15-3-15-4-14-6-14-8-14-9-12-10-12-11-11-12-9-13-9-14-7-14-6-15-4-16-3-15-1-16 1-16 3-15 4-15 6-15 7-15 9-14 9-13 11-12 12-11 12-11 14-9 14-7 14-7 15-4 15-3z" class="B C D G"/><path d="M5678.537 18982.131l14 1 14 2 14 4 14 5 13 6 12 7 12 9 12 9 10 10 9 11 8 11 7 12 5 13 5 12 2 13 1 13-1 13-2 13-5 12-5 13-7 12-8 11-9 11-10 10-12 10-12 8-12 8-13 6-14 5-14 4-14 2-14 1-14-1-14-2-14-4-13-5-13-6-13-8-12-8-11-10-10-10-9-11-8-11-7-12-5-13-5-12-2-13-1-13 1-13 2-13 5-12 5-13 7-12 8-11 9-11 10-10 11-9 12-9 13-7 13-6 13-5 14-4 14-2z"/><path d="M5678.537 18978.131l14 1 14 2 14 4 13 5 13 7 12 7 11 9 11 9 10 11 9 11 8 12 6 12 6 13 4 13 2 13 1 13-1 13-2 14-4 13-6 12-6 13-8 11-9 12-10 10-11 10-11 8-12 8-13 7-13 5-14 4-14 2-14 1-14-1-13-2-14-4-13-5-12-7-13-8-11-8-11-10-10-10-9-12-8-11-6-13-6-12-4-13-2-14-1-13 1-13 2-13 4-13 6-13 6-12 8-12 9-11 10-11 11-9 11-9 13-7 12-7 13-5 14-4 13-2z" class="B C D G"/><path d="M6132.537 18982.131l14 1 14 2 14 4 13 5 13 6 12 7 12 9 11 9 10 10 9 11 8 11 7 12 6 13 4 12 2 13 1 13-1 13-2 13-4 12-6 13-7 12-8 11-9 11-10 10-11 10-12 8-12 8-13 6-13 5-14 4-14 2-14 1-14-1-15-2-14-4-13-5-13-6-13-8-12-8-11-10-10-10-9-11-8-11-7-12-6-13-4-12-2-13-1-13 1-13 2-13 4-12 6-13 7-12 8-11 9-11 10-10 11-9 12-9 13-7 13-6 13-5 14-4 15-2z"/><path d="M6132.537 18978.131l14 1 13 2 14 4 13 5 12 7 13 7 11 9 11 9 10 11 9 11 8 12 6 12 6 13 4 13 2 13 1 13-1 13-2 14-4 13-6 12-6 13-8 11-9 12-10 10-11 10-11 8-13 8-12 7-13 5-14 4-13 2-14 1-14-1-14-2-13-4-13-5-13-7-13-8-11-8-11-10-10-10-9-12-8-11-7-13-6-12-4-13-2-14-1-13 1-13 2-13 4-13 6-13 7-12 8-12 9-11 10-11 11-9 11-9 13-7 13-7 13-5 13-4 14-2z" class="B C D G"/><path d="M5452.537 18504.131l14 1 14 2 14 4 14 5 13 6 12 7 12 9 12 9 10 10 9 11 8 11 7 12 5 13 5 12 2 13 1 13-1 13-2 13-5 13-5 12-7 12-8 12-9 11-10 10-12 10-12 8-12 8-13 6-14 5-14 4-14 2-14 1-14-1-14-2-14-4-13-5-13-6-13-8-12-8-11-10-10-10-9-11-8-12-7-12-5-12-5-13-2-13-1-13 1-13 2-13 5-12 5-13 7-12 8-11 9-11 10-10 11-9 12-9 13-7 13-6 13-5 14-4 14-2z"/><path d="M5453.537 18501.131l14 1 14 2 13 4 13 5 13 6 12 8 12 8 10 10 10 10 9 11 8 12 6 12 6 13 4 13 2 13 1 13-1 13-2 14-4 13-6 13-6 12-8 12-9 11-10 11-10 9-12 9-12 7-13 7-13 5-13 4-14 2-14 1-14-1-14-2-14-4-13-5-13-7-12-7-11-9-11-9-10-11-9-11-8-12-6-12-6-13-4-13-2-14-1-13 1-13 2-13 4-13 6-13 6-12 8-12 9-11 10-10 11-10 11-8 12-8 13-6 13-5 14-4 14-2z" class="B C D G"/><path d="M5414.537 18931.131l16 1 15 3 15 4 15 6 14 8 14 8 13 10 12 11 11 12 10 13 8 14 8 14 6 14 4 15 3 16 1 15-1 15-3 16-4 15-6 14-8 14-8 14-10 13-11 12-12 11-13 10-14 8-14 8-15 6-15 4-15 3-16 1-15-1-15-3-15-4-15-6-14-8-13-8-13-10-12-11-11-12-10-13-9-14-7-14-6-14-4-15-3-16-1-15 1-15 3-16 4-15 6-14 7-14 9-14 10-13 11-12 12-11 13-10 13-8 14-8 15-6 15-4 15-3z"/><path d="M5415.537 18928.131l15 1 15 3 14 4 15 6 14 8 13 9 12 10 12 12 11 12 9 13 9 14 7 14 6 15 4 16 3 15 1 16-1 16-3 15-4 15-6 15-7 15-9 13-9 13-11 13-12 11-12 10-13 9-14 8-15 6-14 4-15 3-15 1-15-1-15-3-15-4-14-6-14-8-14-9-12-10-12-11-11-13-9-13-9-13-7-15-6-15-4-15-3-15-1-16 1-16 3-15 4-16 6-15 7-14 9-14 9-13 11-12 12-12 12-10 14-9 14-8 14-6 15-4 15-3z" class="B C D G"/><path d="M5227.537 18957.131l9 1 10 1 9 3 9 4 8 4 9 6 7 6 8 7 6 7 7 8 5 8 4 9 4 9 3 9 1 10 1 9-1 9-1 10-3 9-4 9-4 9-5 8-7 8-6 7-8 7-7 6-9 6-8 4-9 4-9 3-10 1-9 1-10-1-9-1-9-3-9-4-9-4-9-6-8-6-7-7-7-7-6-8-6-8-4-9-4-9-3-9-1-10-1-9 1-9 1-10 3-9 4-9 4-9 6-8 6-8 7-7 7-7 8-6 9-6 9-4 9-4 9-3 9-1z"/><path d="M5226.537 18953.131l9 1 9 1 9 3 9 4 8 5 9 6 7 6 7 7 7 8 6 8 5 9 5 9 3 9 3 10 1 9 1 10-1 10-1 9-3 10-3 9-5 9-5 9-6 8-7 8-7 6-7 7-9 5-8 5-9 4-9 3-9 1-9 1-9-1-9-1-9-3-9-4-8-5-8-5-8-7-7-6-6-8-6-8-5-9-5-9-3-9-3-10-1-9-1-10 1-10 1-9 3-10 3-9 5-9 5-9 6-8 6-8 7-7 8-6 8-6 8-5 9-4 9-3 9-1z" class="B C D G"/><path d="M6093.537 18454.131l16 1 15 3 15 4 15 6 14 8 13 9 13 10 12 11 11 12 10 13 9 13 7 14 6 15 4 15 3 15 1 15-1 15-3 16-4 15-6 14-7 14-9 14-10 13-11 12-12 11-13 10-13 8-14 8-15 6-15 4-15 3-16 1-15-1-16-3-14-4-15-6-14-8-14-8-12-10-12-11-11-12-10-13-9-14-7-14-6-14-4-15-3-16-1-15 1-15 3-15 4-15 6-15 7-14 9-13 10-13 11-12 12-11 12-10 14-9 14-8 15-6 14-4 16-3z"/><path d="M6094.537 18450.131l15 1 15 3 14 4 15 6 14 8 13 9 12 10 12 11 11 13 9 13 9 13 7 15 6 15 4 15 3 15 1 16-1 16-3 16-4 15-6 15-7 15-9 14-9 13-11 12-12 11-12 10-13 9-14 8-15 6-14 4-15 3-15 1-15-1-15-3-15-4-14-6-14-8-14-9-12-10-12-11-11-12-9-13-9-14-7-15-6-15-4-15-3-16-1-16 1-16 3-15 4-15 6-15 7-15 9-13 9-13 11-13 12-11 12-10 14-9 14-8 14-6 15-4 15-3z" class="B C D G"/><path d="M5805.537 18806.131l9 1 10 1 9 3 9 4 8 4 9 5 7 7 8 6 6 8 7 7 5 9 4 8 4 9 3 9 1 10 1 9-1 10-1 9-3 9-4 9-4 9-5 9-7 8-6 7-8 7-7 6-9 6-8 4-9 4-9 3-10 1-9 1-10-1-9-1-9-3-9-4-9-4-9-6-8-6-7-7-7-7-6-8-6-9-4-9-4-9-3-9-1-9-1-10 1-9 1-10 3-9 4-9 4-8 6-9 6-7 7-8 7-6 8-7 9-5 9-4 9-4 9-3 9-1z"/><path d="M5804.537 18802.131l9 1 9 1 9 3 9 4 8 5 9 5 7 7 7 6 7 8 6 8 5 9 5 9 3 9 3 10 1 9 1 10-1 10-1 10-3 9-3 10-5 9-5 9-6 8-7 7-7 7-7 7-9 5-8 5-9 4-9 3-9 1-9 1-9-1-9-1-9-3-9-4-8-5-8-5-8-7-7-7-6-7-6-8-5-9-5-9-3-10-3-9-1-10-1-10 1-10 1-9 3-10 3-9 5-9 5-9 6-8 6-8 7-6 8-7 8-5 8-5 9-4 9-3 9-1z" class="B C D G"/><path d="M5301.537 18605.131l19 1 19 3 18 5 18 7 18 9 16 10 16 12 15 12 13 14 13 15 10 16 10 16 7 17 5 17 4 17 1 18-1 18-4 17-5 17-7 17-10 16-10 16-13 15-13 14-15 12-16 12-16 10-18 9-18 7-18 5-19 3-19 1-19-1-18-3-19-5-18-7-17-9-17-10-15-12-15-12-14-14-12-15-11-16-9-16-7-17-5-17-4-17-1-18 1-18 4-17 5-17 7-17 9-16 11-16 12-15 14-14 15-12 15-12 17-10 17-9 18-7 19-5 18-3z"/><path d="M5301.537 18601.131l19 1 18 3 18 6 18 7 17 8 17 11 15 11 15 14 13 14 12 15 11 16 9 16 7 18 6 17 3 18 1 18-1 18-3 18-6 17-7 18-9 16-11 16-12 15-13 14-15 13-15 12-17 10-17 9-18 7-18 5-18 3-19 1-19-1-18-3-18-5-18-7-17-9-16-10-15-12-15-13-13-14-12-15-10-16-9-16-7-18-6-17-3-18-1-18 1-18 3-18 6-17 7-18 9-16 10-16 12-15 13-14 15-14 15-11 16-11 17-8 18-7 18-6 18-3z" class="B C D G"/><path d="M6080.537 17373.131l14 1 15 2 14 4 13 5 13 6 13 7 12 9 11 9 10 10 9 11 8 11 7 12 6 13 4 12 2 13 1 13-1 13-2 13-4 13-6 12-7 12-8 12-9 11-10 10-11 10-12 8-13 8-13 6-13 5-14 4-15 2-14 1-14-1-14-2-14-4-13-5-13-6-12-8-12-8-11-10-10-10-9-11-8-12-7-12-6-12-4-13-2-13-1-13 1-13 2-13 4-12 6-13 7-12 8-11 9-11 10-10 11-9 12-9 12-7 13-6 13-5 14-4 14-2z" class="E"/><path d="M6081.537 17369.131l14 1 14 2 13 4 13 5 13 7 12 7 12 9 11 9 10 11 9 11 8 12 6 12 6 13 4 13 2 13 1 13-1 13-2 14-4 13-6 13-6 12-8 12-9 11-10 11-11 9-12 9-12 7-13 7-13 5-13 4-14 2-14 1-14-1-14-2-13-4-13-5-13-7-12-7-12-9-11-9-10-11-9-11-8-12-6-12-6-13-4-13-2-14-1-13 1-13 2-13 4-13 6-13 6-12 8-12 9-11 10-11 11-9 12-9 12-7 13-7 13-5 13-4 14-2z" class="B C D F"/><path d="M5780.537 17448.131l12 1 11 2 12 3 11 5 11 6 10 6 10 8 9 8 9 10 7 9 7 11 5 11 5 11 3 11 2 12 1 12-1 12-2 12-3 11-5 11-5 11-7 11-7 10-9 9-9 9-10 7-10 7-11 6-11 5-12 3-11 2-12 1-12-1-12-2-11-3-11-5-11-6-11-7-10-7-9-9-9-9-7-10-7-11-6-11-5-11-3-11-2-12-1-12 1-12 2-12 3-11 5-11 6-11 7-11 7-9 9-10 9-8 10-8 11-6 11-6 11-5 11-3 12-2z" class="E"/><path d="M5779.537 17445.131l12 1 11 2 11 4 11 4 11 6 10 7 10 8 9 9 8 10 7 10 7 10 6 12 4 11 3 12 2 12 1 12-1 12-2 12-3 12-4 12-6 11-7 10-7 10-8 10-9 9-10 7-10 7-11 6-11 5-11 3-11 2-12 1-11-1-12-2-11-3-11-5-10-6-10-7-10-7-9-9-8-10-7-10-7-10-6-11-4-12-3-12-2-12-1-12 1-12 2-12 3-12 4-11 6-12 7-10 7-10 8-10 9-9 10-8 10-7 10-6 11-4 11-4 12-2z" class="B C D F"/><path d="M5427.537 17750.131l14 1 14 2 14 4 13 5 13 6 13 8 12 8 11 9 10 10 10 11 8 12 7 12 5 12 5 13 2 13 1 13-1 13-2 13-5 12-5 13-7 12-8 11-10 11-10 10-11 10-12 8-13 8-13 6-13 5-14 4-14 2-14 1-14-1-14-2-14-4-14-5-13-6-12-8-12-8-11-10-10-10-9-11-8-11-7-12-6-13-4-12-2-13-1-13 1-13 2-13 4-13 6-12 7-12 8-12 9-11 10-10 11-9 12-8 12-8 13-6 14-5 14-4 14-2z" class="E"/><path d="M5428.537 17747.131l14 1 13 2 14 4 13 5 12 6 13 8 11 9 11 9 10 10 9 11 8 12 6 12 6 13 4 13 2 14 1 13-1 13-2 13-4 13-6 13-6 12-8 12-9 11-10 11-11 9-11 9-13 7-12 7-13 5-14 4-13 2-14 1-14-1-14-2-14-4-13-5-13-7-12-7-11-9-11-9-10-11-9-11-8-12-6-12-6-13-4-13-2-13-1-13 1-13 2-14 4-13 6-13 6-12 8-12 9-11 10-10 11-9 11-9 12-8 13-6 13-5 14-4 14-2z" class="B C D F"/><path d="M5051.537 17675.131l12 1 11 2 12 3 11 5 11 5 10 7 10 7 9 9 9 9 7 10 7 10 5 11 5 11 3 12 2 11 1 12-1 12-2 12-3 11-5 11-5 11-7 11-7 10-9 9-9 9-10 7-10 7-11 6-11 5-12 3-11 2-12 1-12-1-12-2-11-3-11-5-11-6-11-7-10-7-9-9-9-9-7-10-7-11-6-11-5-11-3-11-2-12-1-12 1-12 2-11 3-12 5-11 6-11 7-10 7-10 9-9 9-9 10-7 11-7 11-5 11-5 11-3 12-2z" class="E"/><path d="M5050.537 17671.131l12 1 11 2 11 4 11 4 11 6 10 7 10 8 9 9 8 10 7 10 7 10 6 12 4 11 3 12 2 12 1 12-1 12-2 12-3 12-4 12-6 11-7 11-7 10-8 9-9 9-10 8-10 7-11 6-11 5-11 3-11 2-12 1-11-1-12-2-11-3-11-5-10-6-10-7-10-8-9-9-8-9-7-10-7-11-6-11-4-12-3-12-2-12-1-12 1-12 2-12 3-12 4-11 6-12 7-10 7-10 8-10 9-9 10-8 10-7 10-6 11-4 11-4 12-2z" class="B C D F"/><path d="M5528.537 17474.131l14 1 14 2 14 4 14 5 13 6 12 8 12 8 11 9 10 10 9 11 8 12 7 12 6 12 4 13 2 13 1 13-1 13-2 13-4 12-6 13-7 12-8 11-9 11-10 10-11 9-12 9-12 7-13 6-14 5-14 4-14 2-14 1-14-1-14-2-14-4-14-5-13-6-12-7-12-9-11-9-10-10-9-11-8-11-7-12-6-13-4-12-2-13-1-13 1-13 2-13 4-13 6-12 7-12 8-12 9-11 10-10 11-9 12-8 12-8 13-6 14-5 14-4 14-2z" class="E"/><path d="M5528.537 17470.131l14 1 14 2 13 4 13 5 13 7 12 7 12 9 11 10 10 10 9 11 8 12 6 12 6 13 4 13 2 14 1 13-1 13-2 13-4 13-6 13-6 12-8 12-9 11-10 11-11 9-12 9-12 7-13 7-13 5-13 4-14 2-14 1-14-1-13-2-14-4-13-5-13-7-12-7-12-9-10-9-10-11-9-11-8-12-7-12-6-13-4-13-2-13-1-13 1-13 2-14 4-13 6-13 7-12 8-12 9-11 10-10 10-10 12-9 12-7 13-7 13-5 14-4 13-2z" class="B C D F"/><path d="M5628.537 17800.131l12 1 12 2 11 3 12 5 11 6 10 6 10 8 10 8 8 10 8 10 6 10 6 11 5 12 3 11 2 12 1 12-1 12-2 12-3 11-5 11-6 11-6 11-8 9-8 10-10 8-10 8-10 6-11 6-12 5-11 3-12 2-12 1-12-1-12-2-11-3-11-5-11-6-11-6-9-8-10-8-8-10-8-9-6-11-6-11-5-11-3-11-2-12-1-12 1-12 2-12 3-11 5-12 6-11 6-10 8-10 8-10 10-8 9-8 11-6 11-6 11-5 11-3 12-2z" class="E"/><path d="M5629.537 17797.131l11 1 12 2 11 3 11 5 10 6 10 7 10 7 9 9 8 10 7 10 7 10 6 11 4 12 3 12 2 12 1 12-1 12-2 13-3 12-4 11-6 11-7 11-7 10-8 10-9 8-10 8-10 7-10 6-11 5-11 3-12 2-11 1-12-1-11-2-11-3-11-5-11-6-10-7-10-8-9-8-8-10-7-10-7-11-5-11-5-11-3-12-2-13-1-12 1-12 2-12 3-12 5-12 5-11 7-10 7-10 8-10 9-9 10-7 10-7 11-6 11-5 11-3 11-2z" class="B C D F"/><path d="M5931.537 17624.131l14 1 14 2 14 4 13 5 13 6 12 8 12 8 11 10 10 10 9 11 8 11 7 12 6 13 4 12 2 13 1 13-1 13-2 13-4 12-6 13-7 12-8 11-9 11-10 10-11 10-12 8-12 8-13 6-13 5-14 4-14 2-14 1-14-1-14-2-14-4-14-5-13-6-12-8-12-8-12-10-10-10-9-11-8-11-7-12-5-13-5-12-2-13-1-13 1-13 2-13 5-12 5-13 7-12 8-11 9-11 10-10 12-10 12-8 12-8 13-6 14-5 14-4 14-2z" class="E"/><path d="M5930.537 17621.131l14 1 13 2 14 4 13 5 13 7 12 7 12 9 10 9 10 11 9 11 8 12 7 12 6 13 4 13 2 13 1 13-1 13-2 14-4 13-6 13-7 12-8 12-9 11-10 10-10 9-12 9-12 8-13 6-13 5-14 4-13 2-14 1-14-1-14-2-13-4-13-5-13-6-12-8-12-9-11-9-10-10-9-11-8-12-6-12-6-13-4-13-2-14-1-13 1-13 2-13 4-13 6-13 6-12 8-12 9-11 10-11 11-9 12-9 12-7 13-7 13-5 13-4 14-2z" class="B C D F"/><path d="M6357.537 17272.131l14 1 14 2 14 4 14 5 13 7 12 7 12 9 12 9 10 10 9 11 8 12 7 12 5 12 5 13 2 13 1 13-1 13-2 13-5 12-5 13-7 12-8 11-9 11-10 10-12 9-12 9-12 7-13 6-14 5-14 4-14 2-14 1-14-1-14-2-14-4-14-5-13-6-12-7-12-9-11-9-10-10-9-11-8-11-7-12-6-13-4-12-2-13-1-13 1-13 2-13 4-13 6-12 7-12 8-12 9-11 10-10 11-9 12-9 12-7 13-7 14-5 14-4 14-2z" class="E"/><path d="M6358.537 17269.131l14 1 13 2 14 4 13 5 12 7 13 7 11 9 11 9 10 11 9 11 8 12 6 12 6 13 4 13 2 13 1 13-1 13-2 14-4 13-6 12-6 13-8 11-9 12-10 10-11 10-11 8-13 8-12 7-13 5-14 4-13 2-14 1-14-1-14-2-14-4-13-5-13-7-12-8-11-8-11-10-10-10-9-12-8-11-6-13-6-12-4-13-2-14-1-13 1-13 2-13 4-13 6-13 6-12 8-12 9-11 10-11 11-9 11-9 12-7 13-7 13-5 14-4 14-2z" class="B C D F"/><path d="M5604.537 17097.131l14 1 14 2 14 4 13 5 13 6 13 7 12 9 11 9 10 10 9 11 8 11 7 12 5 13 5 12 2 13 1 13-1 13-2 13-5 13-5 12-7 12-8 12-9 11-10 10-11 9-12 8-13 8-13 6-13 5-14 4-14 2-14 1-14-1-14-2-14-4-14-5-13-6-12-8-12-8-11-9-11-10-9-11-8-12-7-12-5-12-5-13-2-13-1-13 1-13 2-13 5-12 5-13 7-12 8-11 9-11 11-10 11-9 12-9 12-7 13-6 14-5 14-4 14-2z" class="E"/><path d="M5603.537 17093.131l14 1 13 2 14 4 13 5 13 7 12 7 12 9 10 9 10 11 9 11 8 12 7 12 6 13 4 13 2 13 1 13-1 13-2 14-4 13-6 13-7 12-8 12-9 11-10 11-10 9-12 9-12 7-13 7-13 5-14 4-13 2-14 1-14-1-14-2-13-4-13-5-13-7-12-7-12-9-10-9-10-11-9-11-8-12-6-12-6-13-4-13-2-14-1-13 1-13 2-13 4-13 6-13 6-12 8-12 9-11 10-11 10-9 12-9 12-7 13-7 13-5 13-4 14-2z" class="B C D F"/><use xlink:href="#F" class="E"/><path d="M5843.537 17445.131l8 1 8 1 7 3 8 3 7 4 7 5 7 5 6 7 5 6 5 7 5 8 4 8 3 8 2 8 2 9v8 9l-2 8-2 9-3 8-4 8-5 8-5 7-5 7-6 6-7 6-7 5-7 4-8 3-7 3-8 1-8 1-8-1-8-1-8-3-8-3-7-4-8-5-6-6-6-6-6-7-5-7-5-8-4-8-3-8-2-9-2-8v-9-8l2-9 2-8 3-8 4-8 5-8 5-7 6-6 6-7 6-5 8-5 7-4 8-3 8-3 8-1z" class="B C D F"/><path d="M5276.537 17599.131l9 1 10 1 9 3 9 4 9 4 8 6 8 6 8 7 7 7 6 8 5 8 5 9 4 9 3 9 1 10 1 9-1 9-1 10-3 9-4 9-5 9-5 8-6 8-7 7-8 7-8 6-8 6-9 4-9 4-9 3-10 1-9 1-9-1-10-1-9-3-9-4-9-4-8-6-8-6-7-7-7-7-6-8-6-8-4-9-4-9-3-9-1-10-1-9 1-9 1-10 3-9 4-9 4-9 6-8 6-8 7-7 7-7 8-6 8-6 9-4 9-4 9-3 10-1z" class="E"/><path d="M5277.537 17596.131l9 1 9 1 9 3 9 4 8 5 8 5 8 7 7 6 6 8 6 8 5 9 5 9 3 9 3 10 1 9 1 10-1 10-1 10-3 9-3 10-5 9-5 9-6 8-6 7-7 7-8 7-8 5-8 5-9 4-9 3-9 1-9 1-9-1-9-1-9-3-9-4-8-5-9-5-7-7-7-7-7-7-6-8-5-9-5-9-3-10-3-9-1-10-1-10 1-10 1-9 3-10 3-9 5-9 5-9 6-8 7-8 7-6 7-7 9-5 8-5 9-4 9-3 9-1z" class="B C D F"/><path d="M5414.537 17122.131l8 1 9 1 8 2 8 4 8 4 7 4 7 6 6 6 6 6 6 7 4 7 4 8 4 8 2 8 1 8 1 8-1 8-1 8-2 9-4 7-4 8-4 7-6 7-6 7-6 6-7 5-7 5-8 4-8 4-8 2-9 1-8 1-8-1-8-1-8-2-8-4-8-4-7-5-7-5-6-6-6-7-6-7-4-7-4-8-4-7-2-9-1-8-1-8 1-8 1-8 2-8 4-8 4-8 4-7 6-7 6-6 6-6 7-6 7-4 8-4 8-4 8-2 8-1z" class="E"/><path d="M5414.537 17118.131l8 1 8 1 8 3 7 3 8 4 7 5 6 6 7 6 6 7 5 7 5 8 3 8 4 8 2 9 1 8 1 9-1 8-1 9-2 8-4 8-3 8-5 8-5 7-6 6-7 7-6 5-7 5-8 4-7 3-8 3-8 1-8 1-8-1-8-1-7-3-8-3-7-4-7-5-7-5-6-7-5-6-5-7-5-8-4-8-3-8-2-8-2-9v-8-9l2-8 2-9 3-8 4-8 5-8 5-7 5-7 6-6 7-6 7-5 7-4 8-3 7-3 8-1z" class="B C D F"/><use xlink:href="#G" class="E"/><use xlink:href="#H" class="B C D F"/><path d="M5641.537 17348.131l8 1 8 1 8 2 8 4 8 4 7 4 7 6 7 6 5 6 6 7 4 7 4 8 4 8 2 8 1 8 1 8-1 8-1 9-2 8-4 8-4 8-4 7-6 7-5 6-7 6-7 6-7 4-8 4-8 4-8 2-8 1-8 1-8-1-9-1-8-2-8-4-7-4-8-4-6-6-7-6-6-6-5-7-5-7-4-8-3-8-2-8-2-9v-8-8l2-8 2-8 3-8 4-8 5-7 5-7 6-6 7-6 6-6 8-4 7-4 8-4 8-2 9-1z" class="E"/><path d="M5640.537 17344.131l8 1 8 1 8 3 8 3 7 4 8 5 6 6 7 6 5 7 5 7 5 8 4 8 3 8 2 9 2 8v9 9l-2 8-2 8-3 9-4 7-5 8-5 7-5 7-7 6-6 5-8 5-7 4-8 4-8 2-8 1-8 1-8-1-8-1-7-2-8-4-7-4-7-5-7-5-6-6-5-7-5-7-5-8-4-7-3-9-2-8-2-8v-9-9l2-8 2-9 3-8 4-8 5-8 5-7 5-7 6-6 7-6 7-5 7-4 8-3 7-3 8-1z" class="B C D F"/><path d="M5917.537 17524.131l8 1 8 1 9 2 7 4 8 4 7 4 7 6 7 6 6 6 5 7 5 7 4 8 4 8 2 8 1 8 1 8-1 8-1 9-2 8-4 8-4 8-5 7-5 7-6 6-7 6-7 6-7 4-8 4-7 4-9 2-8 1-8 1-8-1-8-1-8-2-8-4-8-4-7-4-7-6-6-6-6-6-6-7-4-7-4-8-4-8-2-8-1-9-1-8 1-8 1-8 2-8 4-8 4-8 4-7 6-7 6-6 6-6 7-6 7-4 8-4 8-4 8-2 8-1z" class="E"/><path d="M5917.537 17520.131l8 1 8 1 7 3 8 3 7 4 7 5 7 6 6 6 6 6 5 8 5 7 4 8 3 8 2 9 2 8v9 9l-2 8-2 9-3 8-4 8-5 7-5 8-6 6-6 6-7 6-7 5-7 4-8 3-7 3-8 1-8 1-8-1-8-1-7-3-8-3-7-4-7-5-7-6-6-6-5-6-5-8-5-7-4-8-3-8-2-9-2-8v-9-9l2-8 2-9 3-8 4-8 5-7 5-8 5-6 6-6 7-6 7-5 7-4 8-3 7-3 8-1z" class="B C D F"/><path d="M5967.537 17423.131l8 1 9 1 8 2 8 4 8 4 7 5 7 5 6 6 6 7 6 7 4 7 4 8 4 7 2 9 1 8 1 8-1 8-1 8-2 8-4 8-4 8-4 7-6 7-6 7-6 5-7 6-7 4-8 4-8 4-8 2-9 1-8 1-8-1-8-1-8-2-8-4-8-4-7-4-7-6-7-5-5-7-6-7-4-7-4-8-4-8-2-8-1-8-1-8 1-8 1-8 2-9 4-7 4-8 4-7 6-7 5-7 7-6 7-5 7-5 8-4 8-4 8-2 8-1z" class="E"/><path d="M5967.537 17420.131l8 1 8 1 8 3 8 3 7 4 7 5 7 6 6 6 6 6 5 8 5 7 4 8 3 8 2 9 2 8v9 9l-2 8-2 9-3 8-4 8-5 7-5 8-6 6-6 6-7 6-7 5-7 4-8 3-8 3-8 1-8 1-8-1-8-1-7-3-8-3-7-4-7-5-7-6-6-6-5-6-5-8-5-7-4-8-3-8-2-9-2-8v-9-9l2-8 2-9 3-8 4-8 5-7 5-8 5-6 6-6 7-6 7-5 7-4 8-3 7-3 8-1z" class="B C D F"/><path d="M5993.537 17298.131l8 1 8 1 8 2 8 4 8 4 7 4 7 6 7 6 5 6 6 7 4 7 4 8 4 8 2 8 1 8 1 8-1 8-1 8-2 9-4 7-4 8-4 7-6 7-5 7-7 6-7 5-7 5-8 4-8 4-8 2-8 1-8 1-8-1-9-1-8-2-8-4-8-4-7-5-7-5-6-6-6-7-6-7-4-7-4-8-4-7-2-9-1-8-1-8 1-8 1-8 2-8 4-8 4-8 4-7 6-7 6-6 6-6 7-6 7-4 8-4 8-4 8-2 9-1z" class="E"/><path d="M5993.537 17294.131l8 1 8 1 8 3 7 3 8 4 7 5 6 6 7 6 5 7 5 7 5 8 4 8 3 8 2 9 2 8v9 8l-2 9-2 8-3 8-4 8-5 8-5 7-5 6-7 7-6 5-7 5-8 4-7 3-8 3-8 1-8 1-8-1-8-1-8-3-7-3-8-4-7-5-6-5-7-7-5-6-5-7-5-8-4-8-3-8-2-8-2-9v-8-9l2-8 2-9 3-8 4-8 5-8 5-7 5-7 7-6 6-6 7-5 8-4 7-3 8-3 8-1z" class="B C D F"/><use xlink:href="#I" class="E"/><use xlink:href="#J" class="B C D F"/><path d="M6533.537 17448.131l10 1 9 2 9 3 9 4 9 5 8 6 8 7 8 8 6 8 6 9 6 10 4 10 4 10 3 10 1 11 1 11-1 10-1 11-3 10-4 10-4 10-6 9-6 9-6 9-8 7-8 7-8 6-9 5-9 4-9 3-9 2-10 1-9-1-10-2-9-3-9-4-9-5-8-6-8-7-7-7-7-9-6-9-6-9-4-10-4-10-3-10-1-11-1-10 1-11 1-11 3-10 4-10 4-10 6-10 6-9 7-8 7-8 8-7 8-6 9-5 9-4 9-3 10-2z" class="E"/><path d="M6533.537 17445.131l9 1 9 2 9 3 9 4 8 5 8 7 8 7 7 8 7 9 6 9 5 9 4 11 4 10 3 11 1 11 1 11-1 11-1 11-3 10-4 11-4 10-5 9-6 9-7 9-7 8-8 7-8 6-8 5-9 4-9 3-9 2-9 1-9-1-9-2-9-3-9-4-8-5-8-6-8-7-7-8-6-9-6-9-5-9-5-10-3-11-3-10-1-11-1-11 1-11 1-11 3-11 3-10 5-11 5-9 6-9 6-9 7-8 8-7 8-7 8-5 9-4 9-3 9-2z" class="B C D F"/><path d="M5956.537 17750.131l12 1 11 2 12 3 11 5 11 6 10 6 10 8 9 8 9 10 7 9 7 11 5 11 5 11 3 11 2 12 1 12-1 12-2 12-3 11-5 12-5 11-7 10-7 10-9 9-9 8-10 8-10 7-11 5-11 5-12 3-11 2-12 1-12-1-12-2-11-3-12-5-11-5-10-7-10-8-10-8-8-9-8-10-6-10-6-11-5-12-3-11-2-12-1-12 1-12 2-12 3-11 5-11 6-11 6-11 8-9 8-10 10-8 10-8 10-6 11-6 12-5 11-3 12-2z" class="E"/><path d="M5955.537 17747.131l11 1 12 2 11 3 11 5 11 6 10 7 9 7 9 9 9 10 7 10 7 10 5 11 5 12 3 12 2 12 1 12-1 12-2 12-3 12-5 11-5 12-7 10-7 10-9 10-9 9-9 8-10 7-11 6-11 4-11 4-12 2-11 1-11-1-12-2-11-4-11-4-10-6-10-7-10-8-9-9-8-10-7-10-7-10-6-12-4-11-3-12-2-12-1-12 1-12 2-12 3-12 4-12 6-11 7-10 7-10 8-10 9-9 10-7 10-7 10-6 11-5 11-3 12-2z" class="B C D F"/><path d="M6080.537 17574.131l10 1 9 1 9 3 9 4 9 4 9 6 8 6 7 7 7 7 6 8 6 9 4 9 4 9 3 9 1 9 1 10-1 9-1 10-3 9-4 9-4 8-6 9-6 7-7 8-7 6-8 7-9 5-9 4-9 4-9 3-9 1-10 1-9-1-10-1-9-3-9-4-8-4-9-5-7-7-8-6-6-8-7-7-5-9-4-8-4-9-3-9-1-10-1-9 1-10 1-9 3-9 4-9 4-9 5-9 7-8 6-7 8-7 7-6 9-6 8-4 9-4 9-3 10-1z" class="E"/><path d="M6081.537 17571.131l9 1 9 1 9 3 9 4 8 5 8 5 8 7 7 7 6 7 6 8 5 9 5 9 3 9 3 10 1 9 1 10-1 10-1 10-3 9-3 10-5 9-5 9-6 8-6 7-7 7-8 7-8 5-8 5-9 4-9 3-9 1-9 1-9-1-9-1-9-3-9-4-8-5-8-5-8-7-7-7-7-7-6-8-5-9-4-9-4-10-3-9-1-10-1-10 1-10 1-9 3-10 4-9 4-9 5-9 6-8 7-7 7-7 8-7 8-5 8-5 9-4 9-3 9-1z" class="B C D F"/><path d="M6281.537 17499.131l10 1 9 1 9 3 9 4 9 4 9 6 8 6 7 6 7 8 6 8 6 8 4 9 4 9 3 9 1 9 1 10-1 10-1 9-3 9-4 9-4 9-6 8-6 8-7 8-7 6-8 6-9 6-9 4-9 4-9 3-9 1-10 1-9-1-10-1-9-3-9-4-8-4-9-6-7-6-8-6-6-8-7-8-5-8-4-9-4-9-3-9-1-9-1-10 1-10 1-9 3-9 4-9 4-9 5-8 7-8 6-8 8-6 7-6 9-6 8-4 9-4 9-3 10-1z" class="E"/><path d="M6282.537 17495.131l9 1 9 1 9 3 9 4 8 5 8 6 8 6 7 7 6 8 6 8 5 9 5 9 3 9 3 10 1 9 1 10-1 10-1 9-3 10-3 9-5 9-5 9-6 8-6 8-7 6-8 7-8 5-8 5-9 4-9 3-9 1-9 1-9-1-9-1-9-3-9-4-8-5-8-5-8-7-7-6-7-8-6-8-5-9-4-9-4-9-3-10-1-9-1-10 1-10 1-9 3-10 4-9 4-9 5-9 6-8 7-8 7-7 8-6 8-6 8-5 9-4 9-3 9-1z" class="B C D F"/><path d="M5289.537 17448.131l11 1 10 2 11 3 10 4 10 5 9 6 9 7 8 8 8 8 7 9 6 10 5 10 4 10 3 10 2 11 1 11-1 10-2 11-3 10-4 10-5 10-6 9-7 9-8 9-8 7-9 7-9 6-10 5-10 4-11 3-10 2-11 1-11-1-10-2-11-3-10-4-10-5-9-6-9-7-8-7-8-9-7-9-6-9-5-10-4-10-3-10-2-11-1-10 1-11 2-11 3-10 4-10 5-10 6-10 7-9 8-8 8-8 9-7 9-6 10-5 10-4 11-3 10-2z" class="E"/><path d="M5290.537 17445.131l10 1 10 2 10 3 10 4 9 5 9 7 9 7 8 8 7 9 7 9 6 9 5 11 4 10 3 11 1 11 1 11-1 11-1 11-3 10-4 11-5 10-6 9-7 9-7 9-8 8-9 7-9 6-9 5-10 4-10 3-10 2-10 1-10-1-11-2-10-3-10-4-9-5-9-6-9-7-8-8-8-9-6-9-6-9-5-10-4-11-3-10-2-11-1-11 1-11 2-11 3-11 4-10 5-11 6-9 6-9 8-9 8-8 9-7 9-7 9-5 10-4 10-3 11-2z" class="B C D F"/><path d="M5012.537 17499.131l11 1 10 2 11 3 10 4 10 5 9 6 9 7 8 8 8 8 7 9 6 9 5 10 4 10 3 11 2 10 1 11-1 10-2 11-3 10-4 10-5 10-6 9-7 9-8 9-8 7-9 7-9 6-10 5-10 4-11 3-10 2-11 1-10-1-11-2-10-3-10-4-10-5-9-6-9-7-8-7-8-9-7-9-6-9-5-10-4-10-3-10-2-11-1-10 1-11 2-10 3-11 4-10 5-10 6-9 7-9 8-8 8-8 9-7 9-6 10-5 10-4 10-3 11-2z" class="E"/><path d="M5013.537 17495.131l10 1 11 2 10 3 9 4 10 6 9 6 9 7 8 8 7 9 7 9 6 10 5 10 4 11 3 10 1 11 1 11-1 11-1 11-3 10-4 11-5 10-6 9-7 9-7 9-8 8-9 7-9 6-10 5-9 4-10 3-11 2-10 1-10-1-11-2-10-3-10-4-9-5-9-6-9-7-8-8-7-9-7-9-6-9-5-10-4-11-3-10-1-11-1-11 1-11 1-11 3-10 4-11 5-10 6-10 7-9 7-9 8-8 9-7 9-6 9-6 10-4 10-3 11-2z" class="B C D F"/><use xlink:href="#K" class="E"/><path d="M5315.537 17219.131l10 1 10 2 10 3 10 4 10 5 9 7 8 7 8 8 7 8 7 9 6 10 5 10 4 11 3 10 1 11 1 11-1 11-1 11-3 11-4 10-5 10-6 10-7 9-7 9-8 7-8 8-9 6-10 5-10 4-10 3-10 2-10 1-10-1-11-2-10-3-10-4-9-5-9-6-9-8-8-7-8-9-6-9-6-10-5-10-4-10-3-11-2-11-1-11 1-11 2-11 3-10 4-11 5-10 6-10 6-9 8-8 8-8 9-7 9-7 9-5 10-4 10-3 11-2z" class="B C D F"/><use xlink:href="#L" class="E"/><use xlink:href="#M" class="B C D F"/><path d="M5139.537 17298.131l10 1 11 2 10 3 10 4 10 5 9 6 9 7 9 8 7 8 7 9 6 9 5 10 4 10 3 11 2 10 1 11-1 10-2 11-3 10-4 10-5 10-6 9-7 9-7 9-9 7-9 7-9 6-10 5-10 4-10 3-11 2-10 1-11-1-11-2-10-3-10-4-10-5-10-6-8-7-9-7-7-9-7-9-6-9-5-10-4-10-3-10-2-11-1-10 1-11 2-10 3-11 4-10 5-10 6-9 7-9 7-8 9-8 8-7 10-6 10-5 10-4 10-3 11-2z" class="E"/><use xlink:href="#N" class="B C D F"/><path d="M5691.537 17650.131l11 1 10 2 10 3 10 4 10 5 10 6 9 7 8 7 8 8 7 9 6 10 5 9 4 10 3 11 2 10 1 11-1 11-2 10-3 11-4 10-5 10-6 9-7 9-8 8-8 8-9 7-10 6-10 5-10 4-10 3-10 2-11 1-11-1-10-2-11-3-10-4-9-5-10-6-9-7-8-8-7-8-7-9-6-9-5-10-4-10-3-11-2-10-1-11 1-11 2-10 3-11 4-10 5-9 6-10 7-9 7-8 8-7 9-7 10-6 9-5 10-4 11-3 10-2z" class="E"/><path d="M5692.537 17646.131l10 1 10 2 10 3 10 4 10 5 9 7 8 7 8 8 7 8 7 9 6 10 5 10 4 11 3 11 1 11 1 11-1 11-1 11-3 10-4 11-5 10-6 9-7 9-7 9-8 8-8 7-9 6-10 5-10 4-10 3-10 2-10 1-10-1-11-2-10-3-10-4-10-5-9-6-8-7-8-8-8-9-7-9-6-9-5-10-4-11-3-10-1-11-1-11 1-11 1-11 3-11 4-11 5-10 6-10 7-9 8-8 8-8 8-7 9-7 10-5 10-4 10-3 11-2z" class="B C D F"/><use xlink:href="#O" class="E"/><path d="M6169.537 17143.131l10 1 11 2 10 3 9 4 10 5 9 7 9 7 8 8 7 8 7 9 6 10 5 10 4 11 3 10 1 11 1 11-1 11-1 11-3 11-4 10-5 11-6 9-7 9-7 9-8 8-9 7-9 7-10 5-9 4-10 3-11 2-10 1-10-1-10-2-10-3-10-4-9-5-10-7-8-7-8-8-8-9-6-9-6-9-5-11-4-10-3-11-2-11-1-11 1-11 2-11 3-10 4-11 5-10 6-10 6-9 8-8 8-8 8-7 10-7 9-5 10-4 10-3 10-2z" class="B C D F"/><path d="M6193.537 17474.131l11 1 11 2 10 3 10 4 10 5 10 6 9 7 8 7 8 9 7 8 6 10 5 10 4 10 3 10 2 11 1 11-1 10-2 11-3 10-4 10-5 10-6 9-7 9-8 9-8 7-9 7-10 6-10 5-10 4-10 3-11 2-11 1-10-1-11-2-10-3-10-4-10-5-9-6-9-7-8-7-8-9-7-9-6-9-5-10-4-10-3-10-2-11-1-10 1-11 2-11 3-10 4-10 5-10 6-10 7-8 8-9 8-7 9-7 9-6 10-5 10-4 10-3 11-2z" class="E"/><path d="M6194.537 17470.131l10 1 11 2 10 3 9 4 10 5 9 7 9 7 8 8 7 9 7 9 6 9 5 11 4 10 3 11 1 11 1 11-1 11-1 11-3 10-4 11-5 10-6 9-7 9-7 9-8 8-9 7-9 6-10 5-9 4-10 3-11 2-10 1-10-1-10-2-10-3-10-4-9-5-10-6-8-7-8-8-8-9-6-9-6-9-5-10-4-11-3-10-2-11-1-11 1-11 2-11 3-11 4-10 5-11 6-9 6-9 8-9 8-8 8-7 10-7 9-5 10-4 10-3 10-2z" class="B C D F"/><path d="M5992.537 17122.131l11 1 11 2 10 3 10 4 10 5 10 6 8 7 9 7 7 8 7 9 6 10 5 9 4 10 3 11 2 10 1 11-1 11-2 10-3 10-4 10-5 10-6 10-7 9-7 8-9 8-8 7-10 6-10 5-10 4-10 3-11 2-11 1-10-1-11-2-10-3-10-4-10-5-9-6-9-7-8-8-8-8-7-9-6-10-5-10-4-10-3-10-2-10-1-11 1-11 2-10 3-11 4-10 5-9 6-10 7-9 8-8 8-7 9-7 9-6 10-5 10-4 10-3 11-2z" class="E"/><path d="M5992.537 17118.131l10 1 11 2 10 3 10 4 9 5 9 6 9 8 8 7 8 9 6 9 6 10 5 10 4 10 3 11 2 11 1 11-1 11-2 11-3 11-4 10-5 10-6 10-6 9-8 9-8 7-9 8-9 6-9 5-10 4-10 3-11 2-10 1-10-1-10-2-10-3-10-4-9-5-9-6-9-8-8-7-7-9-7-9-6-10-5-10-4-10-3-11-1-11-1-11 1-11 1-11 3-11 4-10 5-10 6-10 7-9 7-9 8-7 9-8 9-6 9-5 10-4 10-3 10-2z" class="B C D F"/><path d="M5666.537 17398.131l11 1 10 2 10 3 10 4 10 5 10 6 9 7 8 8 8 8 7 9 6 9 5 10 4 10 3 10 2 11 1 10-1 11-2 11-3 10-4 10-5 10-6 10-7 8-8 9-8 7-9 7-10 6-10 5-10 4-10 3-10 2-11 1-11-1-10-2-11-3-10-4-9-5-10-6-9-7-8-7-7-9-7-8-6-10-5-10-4-10-3-10-2-11-1-11 1-10 2-11 3-10 4-10 5-10 6-9 7-9 7-8 8-8 9-7 10-6 9-5 10-4 11-3 10-2z" class="E"/><path d="M5667.537 17395.131l10 1 10 2 10 3 10 4 9 5 9 6 9 8 8 7 7 9 7 9 6 10 5 10 4 10 3 11 1 11 1 11-1 11-1 11-3 11-4 10-5 10-6 10-7 9-7 9-8 7-9 8-9 6-9 5-10 4-10 3-10 2-10 1-10-1-11-2-10-3-10-4-10-5-9-6-8-8-8-7-8-9-7-9-6-10-5-10-4-10-3-11-1-11-1-11 1-11 1-11 3-11 4-10 5-10 6-10 7-9 8-9 8-7 8-8 9-6 10-5 10-4 10-3 11-2z" class="B C D F"/><path d="M5439.537 17423.131l11 1 10 2 11 3 10 4 10 5 9 6 9 7 9 8 8 8 7 9 6 9 5 10 4 10 3 10 2 11 1 10-1 11-2 11-3 10-4 10-5 10-6 10-7 9-8 8-9 8-9 7-9 6-10 5-10 4-11 3-10 2-11 1-10-1-11-2-10-3-10-4-10-5-9-6-9-7-8-8-8-8-7-9-6-10-5-10-4-10-3-10-2-11-1-11 1-10 2-11 3-10 4-10 5-10 6-9 7-9 8-8 8-8 9-7 9-6 10-5 10-4 10-3 11-2z" class="E"/><path d="M5440.537 17420.131l10 1 11 2 10 3 9 4 10 5 9 6 9 8 8 7 7 9 7 9 6 10 5 10 4 10 3 11 1 11 1 11-1 11-1 11-3 11-4 10-5 10-6 10-7 9-7 9-8 7-9 8-9 6-10 5-9 4-10 3-11 2-10 1-10-1-11-2-10-3-9-4-10-5-9-6-9-8-8-7-7-9-7-9-6-10-5-10-4-10-3-11-1-11-1-11 1-11 1-11 3-11 4-10 5-10 6-10 7-9 7-9 8-7 9-8 9-6 10-5 9-4 10-3 11-2z" class="B C D F"/><path d="M5465.537 17272.131l11 1 10 2 10 3 10 4 10 5 10 6 9 7 8 8 8 9 7 9 6 9 5 10 4 10 3 11 2 10 1 11-1 10-2 11-3 10-4 10-5 10-6 9-7 9-8 9-8 7-9 7-10 6-10 5-10 4-10 3-10 2-11 1-11-1-10-2-11-3-10-4-10-5-9-6-9-7-8-7-8-9-7-9-6-9-5-10-4-10-3-10-2-11-1-10 1-11 2-10 3-11 4-10 5-10 6-9 7-9 8-9 8-8 9-7 9-6 10-5 10-4 11-3 10-2z" class="E"/><path d="M5466.537 17269.131l10 1 10 2 10 3 10 4 9 5 9 6 9 8 8 7 7 9 7 9 6 10 5 10 4 10 3 11 1 11 1 11-1 11-1 11-3 10-4 11-5 10-6 10-7 9-7 8-8 8-9 7-9 7-9 5-10 4-10 3-10 2-10 1-10-1-11-2-10-3-10-4-10-5-9-7-8-7-8-8-8-8-7-9-6-10-5-10-4-11-3-10-1-11-1-11 1-11 1-11 3-11 4-10 5-10 6-10 7-9 8-9 8-7 8-8 9-6 10-5 10-4 10-3 11-2z" class="B C D F"/><path d="M5691.537 17323.131l11 1 10 2 10 3 10 4 10 5 10 6 9 7 8 7 8 8 7 9 6 10 5 9 4 10 3 11 2 10 1 11-1 11-2 10-3 10-4 10-5 10-6 10-7 9-8 8-8 8-9 7-10 6-10 5-10 4-10 3-10 2-11 1-11-1-10-2-11-3-10-4-9-5-10-6-9-7-8-8-7-8-7-9-6-10-5-10-4-10-3-10-2-10-1-11 1-11 2-10 3-11 4-10 5-9 6-10 7-9 7-8 8-7 9-7 10-6 9-5 10-4 11-3 10-2z" class="E"/><path d="M5692.537 17319.131l10 1 10 2 10 3 10 4 10 5 9 7 8 7 8 8 7 8 7 9 6 10 5 10 4 11 3 10 1 11 1 11-1 11-1 11-3 10-4 11-5 10-6 10-7 9-7 9-8 8-8 7-9 6-10 6-10 4-10 3-10 2-10 1-10-1-11-2-10-3-10-4-10-6-9-6-8-7-8-8-8-9-7-9-6-10-5-10-4-11-3-10-1-11-1-11 1-11 1-11 3-10 4-11 5-10 6-10 7-9 8-8 8-8 8-7 9-7 10-5 10-4 10-3 11-2z" class="B C D F"/><path d="M5843.537 17071.131l10 1 11 2 10 3 10 4 10 5 9 6 9 7 9 8 7 9 7 9 6 9 5 10 4 10 3 11 2 10 1 11-1 10-2 11-3 10-4 10-5 10-6 9-7 9-7 9-9 7-9 7-9 6-10 5-10 4-10 3-11 2-10 1-11-1-10-2-11-3-10-4-10-5-9-6-9-7-9-7-8-9-7-9-6-9-5-10-4-10-3-10-2-11-1-10 1-11 2-10 3-11 4-10 5-10 6-9 7-9 8-9 9-8 9-7 9-6 10-5 10-4 11-3 10-2z" class="E"/><path d="M5842.537 17068.131l10 1 11 2 10 3 9 4 10 5 9 6 9 8 8 7 7 9 7 9 6 10 5 10 4 10 3 11 1 11 1 11-1 11-1 11-3 10-4 11-5 10-6 10-7 9-7 8-8 8-9 7-9 7-10 5-9 4-10 3-11 2-10 1-10-1-11-2-10-3-9-4-10-5-9-7-9-7-8-8-7-8-7-9-6-10-5-10-4-11-3-10-1-11-1-11 1-11 1-11 3-11 4-10 5-10 6-10 7-9 7-9 8-7 9-8 9-6 10-5 9-4 10-3 11-2z" class="B C D F"/><path d="M5302.537 17650.131l12 1 12 2 11 3 11 5 11 5 11 7 9 7 10 9 8 9 8 10 6 10 6 11 5 11 3 12 2 11 1 12-1 12-2 12-3 11-5 11-6 11-6 11-8 10-8 9-10 9-9 7-11 7-11 6-11 5-11 3-12 2-12 1-12-1-12-2-11-3-11-5-11-6-11-7-10-7-9-9-9-9-7-10-7-11-6-11-5-11-3-11-2-12-1-12 1-12 2-11 3-12 5-11 6-11 7-10 7-10 9-9 9-9 10-7 11-7 11-5 11-5 11-3 12-2z" class="E"/><path d="M5301.537 17646.131l12 1 11 2 11 3 11 5 11 6 10 7 10 8 9 9 8 9 7 10 7 11 6 11 4 12 3 12 2 12 1 12-1 12-2 12-3 12-4 12-6 11-7 10-7 10-8 10-9 9-10 7-10 7-11 6-11 5-11 3-11 2-12 1-11-1-12-2-11-3-11-5-10-6-10-7-10-7-9-9-8-10-7-10-7-10-6-11-4-12-3-12-2-12-1-12 1-12 2-12 3-12 4-12 6-11 7-11 7-10 8-9 9-9 10-8 10-7 10-6 11-5 11-3 12-2z" class="B C D F"/><path d="M5026.537 17675.131l14 1 14 2 14 4 13 5 13 6 12 7 12 9 11 9 10 10 9 11 8 11 7 12 6 13 4 12 2 13 1 13-1 13-2 13-4 13-6 12-7 12-8 12-9 11-10 10-11 9-12 8-12 8-13 6-13 5-14 4-14 2-14 1-14-1-14-2-14-4-14-5-13-6-12-8-12-8-11-9-11-10-9-11-8-12-7-12-5-12-5-13-2-13-1-13 1-13 2-13 5-12 5-13 7-12 8-11 9-11 11-10 11-9 12-9 12-7 13-6 14-5 14-4 14-2z" class="E"/><path d="M5025.537 17671.131l14 1 13 2 14 4 13 5 13 7 12 7 12 9 10 9 10 11 9 11 8 12 7 12 6 13 4 13 2 13 1 13-1 13-2 14-4 13-6 13-7 12-8 12-9 11-10 11-10 9-12 9-12 7-13 7-13 5-14 4-13 2-14 1-14-1-14-2-13-4-13-5-13-7-12-7-12-9-11-9-10-11-9-11-8-12-6-12-6-13-4-13-2-14-1-13 1-13 2-13 4-13 6-13 6-12 8-12 9-11 10-11 11-9 12-9 12-7 13-7 13-5 13-4 14-2z" class="B C D F"/><use xlink:href="#P" class="E"/><path d="M5365.537 17671.131l8 1 8 1 7 3 8 3 7 4 7 5 7 6 6 6 5 7 5 7 5 8 4 8 3 8 2 9 2 8v9 8l-2 9-2 8-3 8-4 8-5 8-5 7-5 6-6 7-7 5-7 5-7 4-8 3-7 3-8 1-8 1-8-1-8-1-7-3-8-3-7-4-7-5-7-5-6-7-6-6-5-7-5-8-4-8-3-8-2-8-2-9v-8-9l2-8 2-9 3-8 4-8 5-8 5-7 6-7 6-6 7-6 7-5 7-4 8-3 7-3 8-1z" class="B C D F"/><path d="M6634.537 17700.131l10 1 9 1 9 3 9 4 9 4 8 6 8 6 8 6 6 8 6 8 6 8 4 9 4 9 3 9 1 9 1 10-1 10-1 9-3 9-4 9-4 9-6 8-6 8-6 8-8 6-8 6-8 6-9 4-9 4-9 3-9 1-10 1-9-1-10-1-9-3-9-4-9-4-8-6-8-6-7-6-7-8-6-8-6-8-4-9-4-9-3-9-1-9-1-10 1-10 1-9 3-9 4-9 4-9 6-8 6-8 7-8 7-6 8-6 8-6 9-4 9-4 9-3 10-1z" class="E"/><path d="M6634.537 17696.131l9 1 9 1 9 3 9 4 8 5 8 6 8 6 7 7 6 8 6 8 5 9 5 9 3 9 3 10 1 9 1 10-1 10-1 9-3 10-3 9-5 9-5 9-6 8-6 8-7 6-8 7-8 5-8 5-9 4-9 3-9 1-9 1-9-1-9-1-9-3-9-4-8-5-9-5-7-7-7-6-7-8-6-8-5-9-5-9-3-9-3-10-1-9-1-10 1-10 1-9 3-10 3-9 5-9 5-9 6-8 7-8 7-7 7-6 9-6 8-5 9-4 9-3 9-1z" class="B C D F"/><path d="M6671.537 17851.131l8 1 9 1 8 2 8 4 8 4 7 4 7 6 6 6 6 6 6 7 4 7 4 8 4 8 2 8 1 8 1 8-1 8-1 9-2 8-4 8-4 8-4 7-6 7-6 6-6 6-7 6-7 4-8 4-8 4-8 2-9 1-8 1-8-1-8-1-8-2-8-4-8-4-7-4-7-6-6-6-6-6-6-7-4-7-4-8-4-8-2-8-1-9-1-8 1-8 1-8 2-8 4-8 4-8 4-7 6-7 6-6 6-6 7-6 7-4 8-4 8-4 8-2 8-1z" class="E"/><path d="M6672.537 17847.131l8 1 8 1 7 3 8 3 7 4 7 5 7 6 6 6 5 7 5 7 5 8 4 8 3 8 2 9 2 8v9 8l-2 9-2 8-3 8-4 8-5 8-5 7-5 6-6 7-7 5-7 5-7 4-8 3-7 3-8 1-8 1-8-1-8-1-8-3-7-3-8-4-7-5-6-5-7-7-5-6-5-7-5-8-4-8-3-8-2-8-2-9v-8-9l2-8 2-9 3-8 4-8 5-8 5-7 5-7 7-6 6-6 7-5 8-4 7-3 8-3 8-1z" class="B C D F"/><use xlink:href="#Q" class="E"/><use xlink:href="#R" class="B C D F"/><path d="M6646.537 17524.131l11 1 10 2 11 3 10 4 10 5 9 6 9 7 8 8 8 8 7 9 6 9 5 10 4 10 3 11 2 10 1 11-1 11-2 10-3 11-4 10-5 9-6 10-7 9-8 8-8 7-9 7-9 6-10 5-10 4-11 3-10 2-11 1-11-1-10-2-11-3-10-4-9-5-10-6-9-7-8-7-7-8-7-9-6-10-5-9-4-10-3-11-2-10-1-11 1-11 2-10 3-11 4-10 5-10 6-9 7-9 7-8 8-8 9-7 10-6 9-5 10-4 11-3 10-2z" class="E"/><use xlink:href="#S" class="B C D F"/><path d="M6496.537 17448.131l11 1 10 2 11 3 10 4 9 5 10 6 9 7 8 8 7 8 7 9 6 10 5 10 4 10 3 10 2 11 1 11-1 10-2 11-3 10-4 10-5 10-6 9-7 9-7 9-8 7-9 7-10 6-9 5-10 4-11 3-10 2-11 1-11-1-10-2-11-3-10-4-10-5-9-6-9-7-8-7-8-9-7-9-6-9-5-10-4-10-3-10-2-11-1-10 1-11 2-11 3-10 4-10 5-10 6-10 7-9 8-8 8-8 9-7 9-6 10-5 10-4 11-3 10-2z" class="E"/><path d="M6495.537 17445.131l10 1 11 2 10 3 10 4 10 5 9 7 8 7 9 8 7 9 7 9 6 9 5 11 4 10 3 11 1 11 1 11-1 11-1 11-3 10-4 11-5 10-6 9-7 9-7 9-9 8-8 7-9 6-10 5-10 4-10 3-11 2-10 1-10-1-11-2-10-3-9-4-10-5-9-6-9-7-8-8-7-9-7-9-6-9-5-10-4-11-3-10-1-11-1-11 1-11 1-11 3-11 4-10 5-11 6-9 7-9 7-9 8-8 9-7 9-7 10-5 9-4 10-3 11-2z" class="B C D F"/><path d="M5189.537 17851.131l11 1 10 2 11 3 10 4 9 5 10 6 9 7 8 7 7 8 7 9 6 10 5 9 4 10 3 11 2 10 1 11-1 11-2 10-3 11-4 10-5 10-6 9-7 9-7 8-8 8-9 7-10 6-9 5-10 4-11 3-10 2-11 1-11-1-10-2-11-3-10-4-10-5-9-6-9-7-8-8-8-8-7-9-6-9-5-10-4-10-3-11-2-10-1-11 1-11 2-10 3-11 4-10 5-9 6-10 7-9 8-8 8-7 9-7 9-6 10-5 10-4 11-3 10-2z" class="E"/><path d="M5188.537 17847.131l10 1 11 2 10 3 10 4 10 5 9 6 8 8 9 7 7 9 7 9 6 10 5 10 4 10 3 11 1 11 1 11-1 11-1 11-3 11-4 10-5 10-6 10-7 9-7 9-9 7-8 8-9 6-10 5-10 4-10 3-11 2-10 1-10-1-11-2-10-3-9-4-10-5-9-6-9-8-8-7-7-9-7-9-6-10-5-10-4-10-3-11-1-11-1-11 1-11 1-11 3-11 4-10 5-10 6-10 7-9 7-9 8-7 9-8 9-6 10-5 9-4 10-3 11-2z" class="B C D F"/><path d="M5164.537 17624.131l10 1 11 2 10 3 10 4 10 5 9 6 9 7 9 8 7 8 7 9 6 9 5 10 4 10 3 10 2 11 1 10-1 11-2 11-3 10-4 10-5 10-6 10-7 9-7 8-9 8-9 7-9 6-10 5-10 4-10 3-11 2-10 1-11-1-10-2-11-3-10-4-10-5-9-6-9-7-8-8-8-8-7-9-6-10-5-10-4-10-3-10-2-11-1-11 1-10 2-11 3-10 4-10 5-10 6-9 7-9 8-8 8-8 9-7 9-6 10-5 10-4 11-3 10-2z" class="E"/><path d="M5163.537 17621.131l10 1 11 2 10 3 10 4 9 5 9 6 9 8 8 7 7 9 7 9 6 10 5 10 4 10 3 11 1 11 1 11-1 11-1 11-3 11-4 10-5 10-6 10-7 9-7 9-8 7-9 8-9 6-9 5-10 4-10 3-11 2-10 1-10-1-11-2-10-3-9-4-10-5-9-6-9-8-8-7-7-9-7-9-6-10-5-10-4-10-3-11-1-11-1-11 1-11 1-11 3-11 4-10 5-10 6-10 7-9 7-9 8-7 9-8 9-6 10-5 9-4 10-3 11-2z" class="B C D F"/><path d="M4836.537 17650.131l11 1 11 2 10 3 10 4 10 5 10 6 8 7 9 7 7 8 7 9 6 10 5 9 4 10 3 11 2 10 1 11-1 11-2 10-3 11-4 10-5 10-6 9-7 9-7 8-9 8-8 7-10 6-10 5-10 4-10 3-11 2-11 1-10-1-11-2-10-3-10-4-10-5-9-6-9-7-8-8-8-8-7-9-6-9-5-10-4-10-3-11-2-10-1-11 1-11 2-10 3-11 4-10 5-9 6-10 7-9 8-8 8-7 9-7 9-6 10-5 10-4 10-3 11-2z" class="E"/><path d="M4837.537 17646.131l10 1 11 2 10 3 9 4 10 5 9 7 9 7 8 8 7 8 7 9 6 10 5 10 4 11 3 11 1 11 1 11-1 11-1 11-3 10-4 11-5 10-6 9-7 9-7 9-8 8-9 7-9 6-10 5-9 4-10 3-11 2-10 1-10-1-11-2-10-3-9-4-10-5-9-6-9-7-8-8-7-9-7-9-6-9-5-10-4-11-3-10-1-11-1-11 1-11 1-11 3-11 4-11 5-10 6-10 7-9 7-8 8-8 9-7 9-7 10-5 9-4 10-3 11-2z" class="B C D F"/><use xlink:href="#T" class="E"/><path d="M4962.537 17470.131l10 1 11 2 10 3 10 4 9 5 9 7 9 7 8 8 7 9 7 9 6 9 5 11 4 10 3 11 1 11 1 11-1 11-1 11-3 10-4 11-5 10-6 9-7 9-7 9-8 8-9 7-9 6-9 5-10 4-10 3-11 2-10 1-10-1-11-2-10-3-9-4-10-5-9-6-9-7-8-8-7-9-7-9-6-9-5-10-4-11-3-10-1-11-1-11 1-11 1-11 3-11 4-10 5-11 6-9 7-9 7-9 8-8 9-7 9-7 10-5 9-4 10-3 11-2z" class="B C D F"/><use xlink:href="#U" class="E"/><path d="M5414.537 17596.131l10 1 11 2 10 3 10 4 10 5 9 6 8 7 8 8 8 9 7 9 6 9 5 10 4 11 3 10 1 11 1 11-1 11-1 11-3 11-4 11-5 10-6 10-7 9-8 9-8 7-8 7-9 7-10 5-10 4-10 3-11 2-10 1-10-1-10-2-10-3-10-4-10-5-9-7-8-7-8-7-7-9-7-9-6-10-5-10-4-11-3-11-1-11-1-11 1-11 1-11 3-10 4-11 5-10 6-9 7-9 7-9 8-8 8-7 9-6 10-5 10-4 10-3 10-2z" class="B C D F"/><path d="M6658.537 17650.131l12 1 12 2 11 3 12 5 11 5 10 7 10 7 9 9 9 9 8 10 6 10 6 11 5 11 3 12 2 11 1 12-1 12-2 12-3 11-5 11-6 11-6 11-8 10-9 9-9 9-10 7-10 7-11 6-12 5-11 3-12 2-12 1-12-1-11-2-12-3-11-5-10-6-11-7-10-7-9-9-8-9-8-10-6-11-6-11-5-11-3-11-2-12-1-12 1-12 2-11 3-12 5-11 6-11 6-10 8-10 8-9 9-9 10-7 11-7 10-5 11-5 12-3 11-2z" class="E"/><path d="M6659.537 17646.131l12 1 11 2 11 3 11 5 11 6 10 7 10 8 9 9 8 9 7 10 7 11 6 11 4 12 3 12 2 12 1 12-1 12-2 12-3 12-4 12-6 11-7 10-7 10-8 10-9 9-10 7-10 7-11 6-11 5-11 3-11 2-12 1-11-1-12-2-11-3-11-5-11-6-10-7-9-7-9-9-9-10-7-10-7-10-5-11-5-12-3-12-2-12-1-12 1-12 2-12 3-12 5-12 5-11 7-11 7-10 9-9 9-9 9-8 10-7 11-6 11-5 11-3 12-2z" class="B C D F"/><path d="M6307.537 17951.131l14 1 14 2 14 4 13 5 13 6 13 7 12 9 11 9 10 10 9 11 8 11 7 12 5 13 5 12 2 13 1 13-1 13-2 13-5 13-5 13-7 12-8 11-9 11-10 11-11 9-12 8-13 8-13 6-13 5-14 4-14 2-14 1-14-1-14-2-14-4-14-5-13-6-12-8-12-8-11-9-10-11-9-11-8-11-7-12-6-13-4-13-2-13-1-13 1-13 2-13 4-12 6-13 7-12 8-11 9-11 10-10 11-9 12-9 12-7 13-6 14-5 14-4 14-2z" class="E"/><path d="M6308.537 17948.131l14 1 13 2 14 4 13 5 12 7 13 7 11 9 11 9 10 11 9 11 8 11 6 12 6 13 4 13 2 13 1 13-1 13-2 14-4 13-6 13-6 12-8 12-9 11-10 11-11 9-11 9-13 7-12 7-13 5-14 4-13 2-14 1-14-1-14-2-14-4-13-5-13-7-12-7-12-9-11-9-10-11-9-11-8-12-6-12-6-13-4-13-2-14-1-13 1-13 2-13 4-13 6-13 6-12 8-11 9-11 10-11 11-9 12-9 12-7 13-7 13-5 14-4 14-2z" class="B C D F"/><path d="M5930.537 17876.131l12 1 12 2 11 3 11 5 11 6 11 7 9 7 10 9 8 9 8 10 6 10 6 11 5 11 3 12 2 11 1 12-1 12-2 12-3 11-5 11-6 11-6 11-8 9-8 10-10 8-9 8-11 6-11 6-11 5-11 3-12 2-12 1-12-1-12-2-11-3-11-5-11-6-11-6-9-8-10-8-8-10-8-9-6-11-6-11-5-11-3-11-2-12-1-12 1-12 2-11 3-12 5-11 6-11 6-10 8-10 8-9 10-9 9-7 11-7 11-6 11-5 11-3 12-2z" class="E"/><path d="M5931.537 17872.131l11 1 12 2 11 3 11 5 10 6 10 7 10 8 9 9 8 9 7 10 7 11 6 11 4 12 3 12 2 12 1 12-1 12-2 12-3 12-4 12-6 11-7 11-7 10-8 9-9 9-10 8-10 7-10 6-11 5-11 3-12 2-11 1-12-1-11-2-11-3-12-5-10-6-10-7-10-8-9-9-9-9-7-10-7-11-5-11-5-12-3-12-2-12-1-12 1-12 2-12 3-12 5-12 5-11 7-11 7-10 9-9 9-9 10-8 10-7 10-6 12-5 11-3 11-2z" class="B C D F"/><path d="M6408.537 17675.131l14 1 14 2 14 4 14 5 13 6 12 7 12 9 11 9 10 10 9 11 8 11 7 12 6 13 4 12 2 13 1 13-1 13-2 13-4 13-6 12-7 12-8 12-9 11-10 10-11 9-12 8-12 8-13 6-14 5-14 4-14 2-14 1-14-1-14-2-14-4-14-5-13-6-12-8-12-8-11-9-11-10-9-11-8-12-7-12-5-12-5-13-2-13-1-13 1-13 2-13 5-12 5-13 7-12 8-11 9-11 11-10 11-9 12-9 12-7 13-6 14-5 14-4 14-2z" class="E"/><path d="M6408.537 17671.131l14 1 14 2 13 4 13 5 13 7 12 7 12 9 10 9 10 11 9 11 8 12 6 12 6 13 4 13 2 13 1 13-1 13-2 14-4 13-6 13-6 12-8 12-9 11-10 11-10 9-12 9-12 7-13 7-13 5-13 4-14 2-14 1-14-1-14-2-13-4-13-5-13-7-12-7-12-9-11-9-10-11-9-11-8-12-6-12-6-13-4-13-2-14-1-13 1-13 2-13 4-13 6-13 6-12 8-12 9-11 10-11 11-9 12-9 12-7 13-7 13-5 13-4 14-2z" class="B C D F"/><path d="M6509.537 18001.131l12 1 11 2 12 3 11 5 10 6 11 6 10 8 9 8 8 10 8 9 6 11 6 11 5 11 3 11 2 12 1 12-1 12-2 12-3 11-5 12-6 11-6 10-8 10-8 10-9 8-10 8-11 6-10 6-11 5-12 3-11 2-12 1-12-1-12-2-11-3-11-5-11-6-11-6-10-8-9-8-9-10-7-10-7-10-6-11-5-12-3-11-2-12-1-12 1-12 2-12 3-11 5-11 6-11 7-11 7-9 9-10 9-8 10-8 11-6 11-6 11-5 11-3 12-2z" class="E"/><path d="M6508.537 17998.131l12 1 11 2 11 3 11 5 11 6 10 7 10 7 9 9 8 10 7 10 7 10 6 11 4 12 3 12 2 12 1 12-1 12-2 12-3 12-4 12-6 11-7 11-7 10-8 9-9 9-10 8-10 7-11 6-11 5-11 3-11 2-12 1-11-1-12-2-11-3-11-5-11-6-10-7-9-8-9-9-9-9-7-10-7-11-5-11-5-12-3-12-2-12-1-12 1-12 2-12 3-12 5-12 5-11 7-10 7-10 9-10 9-9 9-7 10-7 11-6 11-5 11-3 12-2z" class="B C D F"/><path d="M6722.537 17650.131l8 1 8 1 8 2 8 4 8 4 7 4 7 5 7 6 5 7 6 7 4 7 4 7 4 8 2 8 1 8 1 8-1 8-1 8-2 9-4 7-4 8-4 7-6 7-5 7-7 6-7 5-7 5-8 4-8 4-8 2-8 1-8 1-8-1-9-1-8-2-8-4-8-4-7-5-7-5-6-6-6-7-6-7-4-7-4-8-4-7-2-9-1-8-1-8 1-8 1-8 2-8 4-8 4-7 4-7 6-7 6-7 6-6 7-5 7-4 8-4 8-4 8-2 9-1z" class="E"/><path d="M6722.537 17646.131l8 1 8 1 8 3 7 3 8 4 7 5 6 6 7 6 5 7 5 7 5 8 4 8 3 8 2 8 2 9v8 9l-2 8-2 9-3 8-4 8-5 7-5 8-5 6-7 6-6 6-7 5-8 4-7 3-8 3-8 1-8 1-8-1-8-1-7-3-8-3-7-4-7-5-7-6-6-6-6-6-5-8-5-7-4-8-3-8-2-9-2-8v-9-8l2-9 2-8 3-8 4-8 5-8 5-7 6-7 6-6 7-6 7-5 7-4 8-3 7-3 8-1z" class="B C D F"/><path d="M6156.537 17825.131l10 1 9 1 9 3 9 4 9 4 8 6 8 6 8 7 6 7 6 8 6 8 4 9 4 9 3 9 1 10 1 9-1 9-1 10-3 9-4 9-4 9-6 8-6 8-6 8-8 7-8 6-8 5-9 5-9 4-9 3-9 1-10 1-10-1-9-1-9-3-9-4-9-5-8-5-8-6-8-7-6-8-6-8-6-8-4-9-4-9-3-9-1-10-1-9 1-9 1-10 3-9 4-9 4-9 6-8 6-8 6-7 8-7 8-6 8-6 9-4 9-4 9-3 9-1z" class="E"/><path d="M6156.537 17822.131l9 1 9 1 9 3 9 4 8 5 9 5 7 7 7 7 7 7 6 8 5 9 5 9 3 10 3 9 1 10 1 10-1 10-1 9-3 10-3 9-5 9-5 9-6 8-7 8-7 6-7 7-9 5-8 5-9 4-9 3-9 1-9 1-9-1-9-1-9-3-9-4-8-5-8-5-8-7-7-6-6-8-6-8-5-9-5-9-3-9-3-10-1-9-1-10 1-10 1-10 3-9 3-10 5-9 5-9 6-8 6-7 7-7 8-7 8-5 8-5 9-4 9-3 9-1z" class="B C D F"/><path d="M6194.537 17951.131l8 1 8 1 8 2 8 4 8 4 7 5 7 5 7 6 5 7 6 7 4 7 4 8 4 7 2 9 1 8 1 8-1 8-1 8-2 8-4 8-4 8-4 7-6 7-5 7-7 5-7 6-7 4-8 4-8 4-8 2-8 1-8 1-8-1-9-1-8-2-8-4-8-4-7-4-7-6-6-5-6-7-6-7-4-7-4-8-4-8-2-8-1-8-1-8 1-8 1-8 2-9 4-7 4-8 4-7 6-7 6-7 6-6 7-5 7-5 8-4 8-4 8-2 9-1z" class="E"/><path d="M6194.537 17948.131l8 1 8 1 8 2 7 4 8 4 7 5 6 5 7 6 5 7 5 7 5 8 4 7 3 9 2 8 2 8v9 9l-2 8-2 9-3 8-4 8-5 8-5 7-5 7-7 6-6 6-7 5-8 4-7 3-8 3-8 1-8 1-8-1-8-1-8-3-7-3-8-4-7-5-6-6-7-6-5-7-5-7-5-8-4-8-3-8-2-9-2-8v-9-9l2-8 2-8 3-9 4-7 5-8 5-7 5-7 7-6 6-5 7-5 8-4 7-4 8-2 8-1z" class="B C D F"/><path d="M6521.537 17574.131l8 1 8 1 8 2 8 4 8 4 7 4 7 6 7 6 5 6 6 7 4 7 4 8 4 8 2 8 1 9 1 8-1 8-1 8-2 8-4 8-4 8-4 7-6 7-5 7-7 5-7 6-7 4-8 4-8 4-8 2-8 1-8 1-8-1-9-1-8-2-8-4-8-4-7-4-7-6-6-5-6-7-6-7-4-7-4-8-4-8-2-8-1-8-1-8 1-8 1-9 2-8 4-8 4-8 4-7 6-7 6-6 6-6 7-6 7-4 8-4 8-4 8-2 9-1z" class="E"/><path d="M6521.537 17571.131l8 1 8 1 7 2 8 4 7 4 7 5 7 5 6 6 6 7 5 7 5 8 4 7 3 9 2 8 2 8v9 9l-2 8-2 9-3 8-4 8-5 8-5 7-6 7-6 6-7 6-7 5-7 4-8 3-7 3-8 1-8 1-8-1-8-1-8-3-7-3-8-4-7-5-6-6-7-6-5-7-5-7-5-8-4-8-3-8-2-9-2-8v-9-9l2-8 2-8 3-9 4-7 5-8 5-7 5-7 7-6 6-5 7-5 8-4 7-4 8-2 8-1z" class="B C D F"/><path d="M6168.537 17650.131l11 1 11 2 10 3 10 4 10 5 10 6 8 7 9 7 7 8 7 9 6 10 5 9 4 10 3 11 2 10 1 11-1 11-2 10-3 11-4 10-5 10-6 9-7 9-7 8-9 8-8 7-10 6-10 5-10 4-10 3-11 2-11 1-10-1-11-2-10-3-10-4-10-5-9-6-9-7-8-8-8-8-7-9-6-9-5-10-4-10-3-11-2-10-1-11 1-11 2-10 3-11 4-10 5-9 6-10 7-9 8-8 8-7 9-7 9-6 10-5 10-4 10-3 11-2z" class="E"/><use xlink:href="#V" class="B C D F"/><path d="M5868.537 17700.131l10 1 11 2 10 3 10 4 10 5 9 6 9 7 9 7 7 9 7 8 6 10 5 10 4 10 3 10 2 11 1 11-1 10-2 11-3 10-4 10-5 10-6 9-7 9-7 9-9 7-9 7-9 6-10 5-10 4-10 3-11 2-10 1-11-1-10-2-11-3-10-4-10-5-9-6-9-7-8-7-8-9-7-9-6-9-5-10-4-10-3-10-2-11-1-10 1-11 2-11 3-10 4-10 5-10 6-10 7-8 8-9 8-7 9-7 9-6 10-5 10-4 11-3 10-2z" class="E"/><path d="M5867.537 17696.131l10 1 11 2 10 3 9 4 10 6 9 6 9 7 8 8 7 9 7 9 6 10 5 10 4 11 3 10 1 11 1 11-1 11-1 11-3 10-4 11-5 10-6 10-7 9-7 8-8 8-9 7-9 7-10 5-9 4-10 3-11 2-10 1-10-1-11-2-10-3-9-4-10-5-9-7-9-7-8-8-7-8-7-9-6-10-5-10-4-11-3-10-1-11-1-11 1-11 1-11 3-10 4-11 5-10 6-10 7-9 7-9 8-8 9-7 9-6 10-6 9-4 10-3 11-2z" class="B C D F"/><path d="M6019.537 17574.131l10 1 11 2 10 3 10 4 10 5 9 6 9 7 9 8 7 8 7 9 6 9 5 10 4 10 3 10 2 11 1 10-1 11-2 10-3 11-4 10-5 10-6 9-7 9-7 8-9 8-9 7-9 6-10 5-10 4-10 3-11 2-10 1-11-1-11-2-10-3-10-4-10-5-10-6-9-7-8-8-8-8-7-9-6-9-5-10-4-10-3-11-2-10-1-11 1-10 2-11 3-10 4-10 5-10 6-9 7-9 8-8 8-8 9-7 10-6 10-5 10-4 10-3 11-2z" class="E"/><path d="M6018.537 17571.131l10 1 10 2 10 3 10 4 9 5 10 6 8 7 8 8 8 9 6 9 6 9 5 10 4 11 3 10 2 11 1 11-1 11-2 11-3 11-4 11-5 10-6 10-6 9-8 9-8 7-8 7-10 7-9 5-10 4-10 3-10 2-10 1-10-1-11-2-10-3-9-4-10-5-9-7-9-7-8-7-7-9-7-9-6-10-5-10-4-11-3-11-1-11-1-11 1-11 1-11 3-10 4-11 5-10 6-9 7-9 7-9 8-8 9-7 9-6 10-5 9-4 10-3 11-2z" class="B C D F"/><path d="M6570.537 17851.131l11 1 10 2 11 3 10 4 10 5 9 6 9 7 9 7 8 8 7 9 6 10 5 9 4 10 3 11 2 10 1 11-1 11-2 10-3 11-4 10-5 10-6 9-7 9-8 8-9 8-9 7-9 6-10 5-10 4-11 3-10 2-11 1-10-1-11-2-10-3-10-4-10-5-9-6-9-7-8-8-8-8-7-9-6-9-5-10-4-10-3-11-2-10-1-11 1-11 2-10 3-11 4-10 5-9 6-10 7-9 8-8 8-7 9-7 9-6 10-5 10-4 10-3 11-2z" class="E"/><path d="M6571.537 17847.131l10 1 11 2 10 3 9 4 10 5 9 6 9 8 8 7 7 9 7 9 6 10 5 10 4 10 3 11 1 11 1 11-1 11-1 11-3 11-4 10-5 10-6 10-7 9-7 9-8 7-9 8-9 6-10 5-9 4-10 3-11 2-10 1-10-1-11-2-10-3-9-4-10-5-9-6-9-8-8-7-7-9-7-9-6-10-5-10-4-10-3-11-1-11-1-11 1-11 1-11 3-11 4-10 5-10 6-10 7-9 7-9 8-7 9-8 9-6 10-5 9-4 10-3 11-2z" class="B C D F"/><path d="M6546.537 17599.131l11 1 10 2 11 3 10 4 9 5 10 6 9 7 8 8 7 8 7 9 6 9 5 10 4 10 3 10 2 11 1 10-1 11-2 11-3 10-4 10-5 10-6 10-7 8-7 9-8 7-9 7-10 6-9 5-10 4-11 3-10 2-11 1-11-1-10-2-10-3-10-4-10-5-10-6-9-7-8-7-8-9-7-8-6-10-5-10-4-10-3-10-2-11-1-11 1-10 2-11 3-10 4-10 5-10 6-9 7-9 8-8 8-8 9-7 10-6 10-5 10-4 10-3 10-2z" class="E"/><path d="M6546.537 17596.131l10 1 11 2 10 3 9 4 10 5 9 6 9 7 8 8 7 9 7 9 6 9 5 10 4 11 3 10 1 11 1 11-1 11-1 11-3 11-4 11-5 10-6 10-7 9-7 9-8 7-9 7-9 7-10 5-9 4-10 3-11 2-10 1-10-1-11-2-10-3-9-4-10-5-9-7-9-7-8-7-7-9-7-9-6-10-5-10-4-11-3-11-1-11-1-11 1-11 1-11 3-10 4-11 5-10 6-9 7-9 7-9 8-8 9-7 9-6 10-5 9-4 10-3 11-2z" class="B C D F"/><path d="M6320.537 17624.131l11 1 10 2 11 3 10 4 9 5 10 6 9 7 8 8 7 8 7 9 6 9 5 10 4 10 3 10 2 11 1 10-1 11-2 11-3 10-4 10-5 10-6 10-7 9-7 8-8 8-9 7-10 6-9 5-10 4-11 3-10 2-11 1-11-1-10-2-10-3-10-4-10-5-10-6-9-7-8-8-8-8-7-9-6-10-5-10-4-10-3-10-2-11-1-11 1-10 2-11 3-10 4-10 5-10 6-9 7-9 8-8 8-8 9-7 10-6 10-5 10-4 10-3 10-2z" class="E"/><path d="M6320.537 17621.131l10 1 11 2 10 3 9 4 10 5 9 6 9 8 8 7 7 9 7 9 6 10 5 10 4 10 3 11 1 11 1 11-1 11-1 11-3 11-4 10-5 10-6 10-7 9-7 9-8 7-9 8-9 6-10 5-9 4-10 3-11 2-10 1-10-1-11-2-10-3-10-4-9-5-9-6-9-8-8-7-7-9-7-9-6-10-5-10-4-10-3-11-1-11-1-11 1-11 1-11 3-11 4-10 5-10 6-10 7-9 7-9 8-7 9-8 9-6 9-5 10-4 10-3 11-2z" class="B C D F"/><path d="M6320.537 17474.131l11 1 10 2 11 3 10 4 9 5 10 6 9 7 8 7 7 9 7 8 6 10 5 10 4 10 3 10 2 11 1 11-1 10-2 11-3 10-4 10-5 10-6 9-7 9-7 9-8 7-9 7-10 6-9 5-10 4-11 3-10 2-11 1-11-1-10-2-10-3-10-4-10-5-10-6-9-7-8-7-8-9-7-9-6-9-5-10-4-10-3-10-2-11-1-10 1-11 2-11 3-10 4-10 5-10 6-10 7-8 8-9 8-7 9-7 10-6 10-5 10-4 10-3 10-2z" class="E"/><use xlink:href="#W" class="B C D F"/><path d="M6546.537 17524.131l11 1 10 2 11 3 10 4 9 5 10 6 9 7 8 8 7 8 7 9 6 9 5 10 4 10 3 11 2 10 1 11-1 11-2 10-3 11-4 10-5 9-6 10-7 9-7 8-8 7-9 7-10 6-9 5-10 4-11 3-10 2-11 1-11-1-10-2-10-3-10-4-10-5-10-6-9-7-8-7-8-8-7-9-6-10-5-9-4-10-3-11-2-10-1-11 1-11 2-10 3-11 4-10 5-10 6-9 7-9 8-8 8-8 9-7 10-6 10-5 10-4 10-3 10-2z" class="E"/><path d="M6546.537 17520.131l10 1 11 2 10 3 9 4 10 5 9 7 9 7 8 8 7 8 7 9 6 10 5 10 4 11 3 10 1 11 1 11-1 11-1 11-3 10-4 11-5 10-6 10-7 9-7 9-8 8-9 7-9 6-10 6-9 4-10 3-11 2-10 1-10-1-11-2-10-3-9-4-10-6-9-6-9-7-8-8-7-9-7-9-6-10-5-10-4-11-3-10-1-11-1-11 1-11 1-11 3-10 4-11 5-10 6-10 7-9 7-8 8-8 9-7 9-7 10-5 9-4 10-3 11-2z" class="B C D F"/><path d="M5678.537 17599.131l12 1 12 2 11 3 12 5 11 6 10 7 10 7 10 9 8 9 8 10 6 11 6 11 5 11 3 11 2 12 1 12-1 12-2 12-3 11-5 11-6 11-6 11-8 9-8 10-10 8-10 8-10 6-11 6-12 5-11 3-12 2-12 1-12-1-11-2-12-3-11-5-11-6-10-6-10-8-9-8-9-10-7-9-7-11-5-11-5-11-3-11-2-12-1-12 1-12 2-12 3-11 5-11 5-11 7-11 7-10 9-9 9-9 10-7 10-7 11-6 11-5 12-3 11-2z" class="E"/><path d="M5679.537 17596.131l11 1 12 2 11 3 11 5 10 6 10 7 10 8 9 8 8 10 7 10 7 11 6 11 4 11 3 12 2 13 1 12-1 12-2 12-3 12-4 12-6 11-7 10-7 10-8 10-9 9-10 7-10 7-10 6-11 5-11 3-12 2-11 1-11-1-12-2-11-3-11-5-11-6-10-7-9-7-9-9-9-10-7-10-7-10-5-11-5-12-3-12-2-12-1-12 1-12 2-13 3-12 5-11 5-11 7-11 7-10 9-10 9-8 9-8 10-7 11-6 11-5 11-3 12-2z" class="B C D F"/><path d="M5327.537 17901.131l14 1 14 2 14 4 14 5 13 6 12 7 12 9 11 9 10 10 9 11 8 11 7 12 6 13 4 12 2 13 1 13-1 13-2 13-4 12-6 13-7 12-8 11-9 11-10 10-11 10-12 8-12 8-13 6-14 5-14 4-14 2-14 1-14-1-14-2-14-4-13-5-13-6-13-8-12-8-11-10-10-10-10-11-8-11-7-12-5-13-5-12-2-13-1-13 1-13 2-13 5-12 5-13 7-12 8-11 10-11 10-10 11-9 12-9 13-7 13-6 13-5 14-4 14-2z" class="E"/><path d="M5326.537 17897.131l14 1 14 2 13 4 14 5 12 7 13 7 11 9 11 9 10 11 9 11 8 12 7 12 6 13 4 13 2 13 1 13-1 13-2 14-4 13-6 12-7 13-8 11-9 12-10 10-11 10-11 8-13 8-12 7-14 5-13 4-14 2-14 1-14-1-13-2-14-4-13-5-12-7-13-8-11-8-11-10-10-10-9-12-8-11-6-13-6-12-4-13-2-14-1-13 1-13 2-13 4-13 6-13 6-12 8-12 9-11 10-11 11-9 11-9 13-7 12-7 13-5 14-4 13-2z" class="B C D F"/><path d="M4799.537 17825.131l12 1 12 2 11 3 11 5 11 6 11 6 9 8 10 9 8 9 8 10 6 10 6 11 5 12 3 11 2 12 1 12-1 12-2 12-3 11-5 11-6 11-6 11-8 9-8 10-10 8-9 8-11 6-11 6-11 5-11 3-12 2-12 1-12-1-11-2-12-3-11-5-11-6-10-6-10-8-9-8-9-10-7-9-7-11-6-11-5-11-3-11-2-12-1-12 1-12 2-12 3-11 5-12 6-11 7-10 7-10 9-9 9-9 10-8 10-6 11-6 11-5 12-3 11-2z" class="E"/><path d="M4798.537 17822.131l12 1 11 2 12 3 11 5 11 6 10 7 10 8 9 9 8 9 7 10 7 11 5 11 5 11 3 12 2 12 1 12-1 12-2 13-3 12-5 11-5 11-7 11-7 10-8 10-9 8-10 8-10 7-11 6-11 5-12 3-11 2-12 1-11-1-12-2-11-3-11-5-10-6-10-7-10-8-9-8-8-10-7-10-7-11-6-11-4-11-3-12-2-13-1-12 1-12 2-12 3-12 4-11 6-11 7-11 7-10 8-9 9-9 10-8 10-7 10-6 11-5 11-3 12-2z" class="B C D F"/><path d="M5402.537 17624.131l14 1 14 2 14 4 13 5 13 6 13 8 12 8 11 10 10 10 10 11 8 11 7 12 5 13 5 12 2 13 1 13-1 13-2 13-5 12-5 13-7 12-8 11-10 11-10 10-11 10-12 8-13 8-13 6-13 5-14 4-14 2-14 1-14-1-14-2-14-4-14-5-13-6-12-8-12-8-11-10-10-10-9-11-8-11-7-12-6-13-4-12-2-13-1-13 1-13 2-13 4-12 6-13 7-12 8-11 9-11 10-10 11-10 12-8 12-8 13-6 14-5 14-4 14-2z" class="E"/><path d="M5402.537 17621.131l14 1 14 2 13 4 13 5 13 7 12 7 12 9 11 9 10 11 9 11 8 12 6 12 6 13 4 13 2 13 1 13-1 13-2 14-4 13-6 13-6 12-8 12-9 11-10 10-11 9-12 9-12 8-13 6-13 5-13 4-14 2-14 1-14-1-14-2-13-4-13-5-13-6-12-8-12-9-11-9-10-10-9-11-8-12-6-12-6-13-4-13-2-14-1-13 1-13 2-13 4-13 6-13 6-12 8-12 9-11 10-11 11-9 12-9 12-7 13-7 13-5 13-4 14-2z" class="B C D F"/><path d="M5528.537 17951.131l12 1 12 2 11 3 11 5 11 6 11 6 9 8 10 8 8 10 8 9 6 11 6 11 5 11 3 11 2 12 1 12-1 12-2 12-3 11-5 11-6 11-6 11-8 9-8 10-10 8-9 8-11 6-11 6-11 5-11 3-12 2-12 1-12-1-11-2-12-3-11-5-11-6-10-6-10-8-9-8-9-10-7-9-7-11-6-11-5-11-3-11-2-12-1-12 1-12 2-12 3-11 5-11 6-11 7-11 7-9 9-10 9-8 10-8 10-6 11-6 11-5 12-3 11-2z" class="E"/><path d="M5527.537 17948.131l12 1 11 2 11 3 11 5 11 6 10 7 10 8 9 9 8 9 7 10 7 11 6 11 4 12 3 12 2 12 1 12-1 12-2 12-3 12-4 11-6 11-7 11-7 10-8 10-9 8-10 8-10 7-11 6-11 5-11 3-11 2-12 1-11-1-12-2-11-3-11-5-10-6-10-7-10-8-9-8-8-10-7-10-7-11-6-11-4-11-3-12-2-12-1-12 1-12 2-12 3-12 4-12 6-11 7-11 7-10 8-9 9-9 10-8 10-7 10-6 11-5 11-3 12-2z" class="B C D F"/><path d="M5741.537 17599.131l8 1 8 1 9 2 7 4 8 4 7 5 7 5 7 6 6 7 5 7 5 7 4 8 4 7 2 9 1 8 1 8-1 8-1 8-2 8-4 8-4 8-5 7-5 7-6 7-7 5-7 6-7 4-8 4-7 4-9 2-8 1-8 1-8-1-8-1-8-2-8-4-8-4-7-4-7-6-6-5-6-7-6-7-4-7-4-8-4-8-2-8-1-8-1-8 1-8 1-8 2-9 4-7 4-8 4-7 6-7 6-7 6-6 7-5 7-5 8-4 8-4 8-2 8-1z" class="E"/><path d="M5741.537 17596.131l8 1 8 1 7 2 8 4 7 4 7 5 7 5 6 6 6 7 5 7 5 8 4 7 3 9 2 8 2 8v9 9l-2 8-2 9-3 8-4 8-5 8-5 7-6 7-6 6-7 6-7 5-7 4-8 3-7 3-8 1-8 1-8-1-8-1-7-3-8-3-7-4-7-5-7-6-6-6-5-7-5-7-5-8-4-8-3-8-2-9-2-8v-9-9l2-8 2-8 3-9 4-7 5-8 5-7 5-7 6-6 7-5 7-5 7-4 8-4 7-2 8-1z" class="B C D F"/><path d="M5150.537 17775.131l10 1 9 1 10 3 9 4 9 4 8 6 8 6 7 7 7 7 6 8 6 9 4 9 4 9 3 9 1 9 1 10-1 9-1 10-3 9-4 9-4 8-6 9-6 7-7 8-7 6-8 7-8 5-9 4-9 4-10 3-9 1-10 1-9-1-10-1-9-3-9-4-8-4-9-5-7-7-8-6-6-8-7-7-5-9-4-8-4-9-3-9-1-10-1-9 1-10 1-9 3-9 4-9 4-9 5-9 7-8 6-7 8-7 7-6 9-6 8-4 9-4 9-3 10-1z" class="E"/><path d="M5150.537 17772.131l9 1 9 1 9 3 9 4 8 5 9 5 7 7 7 7 7 7 6 8 5 9 5 9 3 9 3 10 1 9 1 10-1 10-1 10-3 9-3 10-5 9-5 9-6 8-7 7-7 7-7 7-9 5-8 5-9 4-9 3-9 1-9 1-9-1-9-1-9-3-8-4-9-5-8-5-7-7-7-7-7-7-6-8-5-9-5-9-3-10-3-9-1-10-1-10 1-10 1-9 3-10 3-9 5-9 5-9 6-8 7-7 7-7 7-7 8-5 9-5 8-4 9-3 9-1z" class="B C D F"/><path d="M4963.537 17951.131l8 1 8 1 8 2 8 4 8 4 7 5 7 5 7 6 5 7 6 7 4 7 4 8 4 7 2 9 1 8 1 8-1 8-1 8-2 8-4 8-4 8-4 7-6 7-5 7-7 5-7 6-7 4-8 4-8 4-8 2-8 1-8 1-8-1-9-1-8-2-8-4-8-4-7-4-7-6-6-5-6-7-6-7-4-7-4-8-4-8-2-8-1-8-1-8 1-8 1-8 2-9 4-7 4-8 4-7 6-7 6-7 6-6 7-5 7-5 8-4 8-4 8-2 9-1z" class="E"/><path d="M4962.537 17948.131l8 1 8 1 8 2 7 4 8 4 7 5 6 5 7 6 5 7 5 7 5 8 4 7 3 9 2 8 2 8v9 9l-2 8-2 9-3 8-4 8-5 8-5 7-5 7-7 6-6 6-7 5-8 4-7 3-8 3-8 1-8 1-8-1-8-1-7-3-8-3-7-4-7-5-7-6-6-6-6-7-5-7-5-8-4-8-3-8-2-9-2-8v-9-9l2-8 2-8 3-9 4-7 5-8 5-7 6-7 6-6 7-5 7-5 7-4 8-4 7-2 8-1z" class="B C D F"/><path d="M5516.537 17524.131l8 1 8 1 8 2 8 4 8 4 7 4 7 6 7 6 5 6 6 7 4 7 4 8 4 8 2 8 1 8 1 8-1 8-1 9-2 8-4 8-4 8-4 7-6 7-5 6-7 6-7 6-7 4-8 4-8 4-8 2-8 1-8 1-8-1-8-1-9-2-7-4-8-4-7-4-7-6-7-6-6-6-5-7-5-7-4-8-4-8-2-8-1-9-1-8 1-8 1-8 2-8 4-8 4-8 5-7 5-7 6-6 7-6 7-6 7-4 8-4 7-4 9-2 8-1z" class="E"/><path d="M5516.537 17520.131l8 1 8 1 7 3 8 3 7 4 7 5 7 6 6 6 5 6 5 8 5 7 4 8 3 8 2 9 2 8v9 9l-2 8-2 9-3 8-4 8-5 7-5 8-5 6-6 6-7 6-7 5-7 4-8 3-7 3-8 1-8 1-8-1-8-1-8-3-8-3-7-4-7-5-7-6-6-6-6-6-5-8-5-7-4-8-3-8-2-9-2-8v-9-9l2-8 2-9 3-8 4-8 5-7 5-8 6-6 6-6 7-6 7-5 7-4 8-3 8-3 8-1z" class="B C D F"/><path d="M5164.537 17599.131l10 1 11 2 10 3 10 4 10 5 9 6 9 7 9 8 7 8 7 9 6 9 5 10 4 10 3 10 2 11 1 10-1 11-2 11-3 10-4 10-5 10-6 10-7 8-7 9-9 7-9 7-9 6-10 5-10 4-10 3-11 2-10 1-11-1-10-2-11-3-10-4-10-5-9-6-9-7-8-7-8-9-7-8-6-10-5-10-4-10-3-10-2-11-1-11 1-10 2-11 3-10 4-10 5-10 6-9 7-9 8-8 8-8 9-7 9-6 10-5 10-4 11-3 10-2z" class="E"/><path d="M5163.537 17596.131l10 1 11 2 10 3 10 4 9 5 9 6 9 7 8 8 7 9 7 9 6 9 5 10 4 11 3 10 1 11 1 11-1 11-1 11-3 11-4 11-5 10-6 10-7 9-7 9-8 7-9 7-9 7-9 5-10 4-10 3-11 2-10 1-10-1-11-2-10-3-9-4-10-5-9-7-9-7-8-7-7-9-7-9-6-10-5-10-4-11-3-11-1-11-1-11 1-11 1-11 3-10 4-11 5-10 6-9 7-9 7-9 8-8 9-7 9-6 10-5 9-4 10-3 11-2z" class="B C D F"/><path d="M4887.537 17650.131l11 1 10 2 11 3 10 4 10 5 9 6 9 7 8 7 8 8 7 9 6 10 5 9 4 10 3 11 2 10 1 11-1 11-2 10-3 11-4 10-5 10-6 9-7 9-8 8-8 8-9 7-9 6-10 5-10 4-11 3-10 2-11 1-11-1-10-2-11-3-10-4-10-5-9-6-9-7-8-8-8-8-7-9-6-9-5-10-4-10-3-11-2-10-1-11 1-11 2-10 3-11 4-10 5-9 6-10 7-9 8-8 8-7 9-7 9-6 10-5 10-4 11-3 10-2z" class="E"/><path d="M4887.537 17646.131l10 1 11 2 10 3 9 4 10 5 9 7 9 7 8 8 7 8 7 9 6 10 5 10 4 11 3 11 1 11 1 11-1 11-1 11-3 10-4 11-5 10-6 9-7 9-7 9-8 8-9 7-9 6-10 5-9 4-10 3-11 2-10 1-10-1-10-2-10-3-10-4-9-5-10-6-8-7-8-8-8-9-6-9-6-9-5-10-4-11-3-10-2-11-1-11 1-11 2-11 3-11 4-11 5-10 6-10 6-9 8-8 8-8 8-7 10-7 9-5 10-4 10-3 10-2z" class="B C D F"/><path d="M5012.537 17524.131l11 1 10 2 11 3 10 4 10 5 9 6 9 7 8 8 8 8 7 9 6 9 5 10 4 10 3 11 2 10 1 11-1 11-2 10-3 11-4 10-5 9-6 10-7 9-8 8-8 7-9 7-9 6-10 5-10 4-11 3-10 2-11 1-10-1-11-2-10-3-10-4-10-5-9-6-9-7-8-7-8-8-7-9-6-10-5-9-4-10-3-11-2-10-1-11 1-11 2-10 3-11 4-10 5-10 6-9 7-9 8-8 8-8 9-7 9-6 10-5 10-4 10-3 11-2z" class="E"/><path d="M5013.537 17520.131l10 1 11 2 10 3 9 4 10 5 9 7 9 7 8 8 7 8 7 9 6 10 5 10 4 11 3 10 1 11 1 11-1 11-1 11-3 10-4 11-5 10-6 10-7 9-7 9-8 8-9 7-9 6-10 6-9 4-10 3-11 2-10 1-10-1-11-2-10-3-10-4-9-6-9-6-9-7-8-8-7-9-7-9-6-10-5-10-4-11-3-10-1-11-1-11 1-11 1-11 3-10 4-11 5-10 6-10 7-9 7-8 8-8 9-7 9-7 9-5 10-4 10-3 11-2z" class="B C D F"/><path d="M5566.537 17800.131l11 1 10 2 11 3 10 4 9 5 10 6 9 7 8 8 7 8 7 9 6 9 5 10 4 10 3 10 2 11 1 10-1 11-2 10-3 11-4 10-5 10-6 9-7 9-7 9-8 8-9 7-10 6-9 5-10 4-11 3-10 2-11 1-11-1-10-2-11-3-10-4-10-5-9-6-9-7-8-8-8-9-7-9-6-9-5-10-4-10-3-11-2-10-1-11 1-10 2-11 3-10 4-10 5-10 6-9 7-9 8-8 8-8 9-7 9-6 10-5 10-4 11-3 10-2z" class="E"/><path d="M5565.537 17797.131l10 1 11 2 10 3 10 4 9 5 9 6 9 7 8 8 8 9 6 9 6 9 5 10 4 11 3 10 2 11 1 11-1 11-2 11-3 11-4 11-5 10-6 10-6 9-8 9-8 7-9 7-9 7-9 5-10 4-10 3-11 2-10 1-10-1-10-2-10-3-10-4-10-5-9-7-8-7-8-7-7-9-7-9-6-10-5-10-4-11-3-11-1-11-1-11 1-11 1-11 3-10 4-11 5-10 6-9 7-9 7-9 8-8 8-7 9-6 10-5 10-4 10-3 10-2z" class="B C D F"/><path d="M5540.537 17549.131l11 1 10 2 11 3 10 4 10 5 9 6 9 7 8 8 8 8 7 9 6 9 5 10 4 10 3 10 2 11 1 10-1 11-2 10-3 11-4 10-5 10-6 9-7 9-8 8-8 8-9 7-9 6-10 5-10 4-11 3-10 2-11 1-11-1-10-2-11-3-10-4-9-5-10-6-9-7-8-8-7-8-7-9-6-9-5-10-4-10-3-11-2-10-1-11 1-10 2-11 3-10 4-10 5-10 6-9 7-9 7-8 8-8 9-7 10-6 9-5 10-4 11-3 10-2z" class="E"/><path d="M5541.537 17545.131l10 1 10 2 10 3 10 4 10 5 9 7 8 7 8 8 7 8 7 9 6 10 5 10 4 11 3 10 1 11 1 11-1 11-1 11-3 10-4 11-5 10-6 10-7 9-7 9-8 8-8 7-9 6-10 6-10 4-10 3-10 2-10 1-10-1-11-2-10-3-10-4-9-6-9-6-9-7-8-8-8-9-6-9-6-10-5-10-4-11-3-10-2-11-1-11 1-11 2-11 3-10 4-11 5-10 6-10 6-9 8-8 8-8 9-7 9-7 9-5 10-4 10-3 11-2z" class="B C D F"/><path d="M5037.537 17876.131l11 1 11 2 10 3 10 4 10 5 10 6 8 7 9 7 7 8 7 9 6 10 5 9 4 10 3 11 2 10 1 11-1 11-2 10-3 11-4 10-5 10-6 9-7 9-7 8-9 8-8 7-10 6-10 5-10 4-10 3-11 2-11 1-10-1-11-2-10-3-10-4-10-5-9-6-9-7-8-8-8-8-7-9-6-9-5-10-4-10-3-11-2-10-1-11 1-11 2-10 3-11 4-10 5-9 6-10 7-9 8-8 8-7 9-7 9-6 10-5 10-4 10-3 11-2z" class="E"/><path d="M5038.537 17872.131l10 1 11 2 10 3 9 4 10 5 9 7 9 7 8 8 7 9 7 9 6 9 5 11 4 10 3 11 1 11 1 11-1 11-1 11-3 10-4 11-5 10-6 9-7 9-7 9-8 8-9 7-9 6-10 5-9 4-10 3-11 2-10 1-10-1-11-2-10-3-10-4-9-5-9-6-9-7-8-8-7-9-7-9-6-9-5-10-4-11-3-10-1-11-1-11 1-11 1-11 3-11 4-10 5-11 6-9 7-9 7-9 8-8 9-7 9-7 9-5 10-4 10-3 11-2z" class="B C D F"/><path d="M5340.537 17423.131l10 1 11 2 10 3 10 4 10 5 9 6 9 7 9 8 7 8 7 9 6 9 5 10 4 10 3 10 2 11 1 10-1 11-2 11-3 10-4 10-5 10-6 10-7 9-7 8-9 8-9 7-9 6-10 5-10 4-10 3-11 2-10 1-11-1-11-2-10-3-10-4-10-5-10-6-8-7-9-8-7-8-7-9-6-10-5-10-4-10-3-10-2-11-1-11 1-10 2-11 3-10 4-10 5-10 6-9 7-9 7-8 9-8 8-7 10-6 10-5 10-4 10-3 11-2z" class="E"/><path d="M5339.537 17420.131l10 1 11 2 10 3 9 4 10 5 9 6 9 8 8 7 7 9 7 9 6 10 5 10 4 10 3 11 1 11 1 11-1 11-1 11-3 11-4 10-5 10-6 10-7 9-7 9-8 7-9 8-9 6-10 5-9 4-10 3-11 2-10 1-10-1-11-2-10-3-9-4-10-5-9-6-9-8-8-7-7-9-7-9-6-10-5-10-4-10-3-11-1-11-1-11 1-11 1-11 3-11 4-10 5-10 6-10 7-9 7-9 8-7 9-8 9-6 10-5 9-4 10-3 11-2z" class="B C D F"/><path d="M5566.537 17474.131l11 1 10 2 11 3 10 4 9 5 10 6 9 7 8 7 7 9 7 8 6 10 5 10 4 10 3 10 2 11 1 11-1 10-2 11-3 10-4 10-5 10-6 9-7 9-7 9-8 7-9 7-10 6-9 5-10 4-11 3-10 2-11 1-11-1-10-2-11-3-10-4-10-5-9-6-9-7-8-7-8-9-7-9-6-9-5-10-4-10-3-10-2-11-1-10 1-11 2-11 3-10 4-10 5-10 6-10 7-8 8-9 8-7 9-7 9-6 10-5 10-4 11-3 10-2z" class="E"/><path d="M5565.537 17470.131l10 1 11 2 10 3 10 4 9 5 9 7 9 7 8 8 8 9 6 9 6 9 5 11 4 10 3 11 2 11 1 11-1 11-2 11-3 10-4 11-5 10-6 9-6 9-8 9-8 8-9 7-9 6-9 5-10 4-10 3-11 2-10 1-10-1-10-2-10-3-10-4-10-5-9-6-8-7-8-8-7-9-7-9-6-9-5-10-4-11-3-10-1-11-1-11 1-11 1-11 3-11 4-10 5-11 6-9 7-9 7-9 8-8 8-7 9-7 10-5 10-4 10-3 10-2z" class="B C D F"/><path d="M5817.537 17876.131l8 1 8 1 8 2 8 4 8 4 7 4 7 6 7 6 5 6 6 7 4 7 4 8 4 8 2 8 1 8 1 8-1 8-1 9-2 8-4 8-4 8-4 7-6 7-5 6-7 6-7 6-7 4-8 4-8 4-8 2-8 1-8 1-8-1-9-1-8-2-8-4-8-4-7-4-7-6-6-6-6-6-6-7-4-7-4-8-4-8-2-8-1-9-1-8 1-8 1-8 2-8 4-8 4-8 4-7 6-7 6-6 6-6 7-6 7-4 8-4 8-4 8-2 9-1z" class="E"/><path d="M5816.537 17872.131l8 1 8 1 8 3 8 3 7 4 8 5 6 6 7 6 5 6 5 8 5 7 4 8 3 8 2 9 2 8v9 8l-2 9-2 8-3 8-4 8-5 8-5 7-5 7-7 6-6 6-8 5-7 4-8 3-8 3-8 1-8 1-8-1-8-1-7-3-8-3-7-4-7-5-7-6-6-6-5-7-5-7-5-8-4-8-3-8-2-8-2-9v-8-9l2-8 2-9 3-8 4-8 5-7 5-8 5-6 6-6 7-6 7-5 7-4 8-3 7-3 8-1z" class="B C D F"/><path d="M5717.537 17976.131l8 1 8 1 8 2 8 4 8 4 7 4 7 6 7 6 5 6 6 7 4 7 4 8 4 8 2 8 1 8 1 8-1 8-1 8-2 9-4 7-4 8-4 7-6 7-5 7-7 6-7 5-7 5-8 4-8 4-8 2-8 1-8 1-8-1-8-1-9-2-7-4-8-4-7-5-7-5-7-6-6-7-5-7-5-7-4-8-4-7-2-9-1-8-1-8 1-8 1-8 2-8 4-8 4-8 5-7 5-7 6-6 7-6 7-6 7-4 8-4 7-4 9-2 8-1z" class="E"/><path d="M5717.537 17973.131l8 1 8 1 7 3 8 3 7 4 7 5 7 6 6 6 5 6 5 8 5 7 4 8 3 8 2 9 2 8v9 9l-2 8-2 9-3 8-4 8-5 7-5 8-5 6-6 6-7 6-7 5-7 4-8 3-7 3-8 1-8 1-8-1-8-1-8-3-7-3-8-4-7-5-6-6-7-6-6-6-5-8-5-7-3-8-4-8-2-9-1-8-1-9 1-9 1-8 2-9 4-8 3-8 5-7 5-8 6-6 7-6 6-6 7-5 8-4 7-3 8-3 8-1z" class="B C D F"/><text xml:space="preserve" x="5096.882" y="20425.432" class="K L"><tspan x="7131.512" y="17008.362">Weie Mikropartikel</tspan></text><path d="M5344.537 14602.131l201-566 202-566 201 566 201 566-226-654" class="B C H I J"/><g fill="#404040"><path d="M5754.537 14458.131v-227h7l7 1 7 2 7 2 14 6 13 8 13 11 13 12 12 14 11 15 10 16 9 18 8 19 7 19 5 21 5 21 2 21 1 21z"/><path d="M5755.537 14458.131h-177l1-21 3-21 5-21 6-21 8-19 10-19 11-18 12-16 12-15 14-14 15-12 15-11 16-8 16-6 17-4 16-1z"/></g><g class="B C H I"><path d="M6070.537 14345.131l-9 14-11 13-14 13-16 13-17 12-20 11-21 11-22 10-49 17-52 13-55 8-28 2-28 1"/><path d="M5755.537 14483.131l-50-2-48-7-47-10-45-14-40-16-19-10-18-9-16-11-15-10-13-12-12-11"/></g><path d="M5728.537 14458.131v-151l12 1 12 2 11 4 12 6 11 7 10 8 10 9 9 10 9 11 8 12 6 12 6 13 5 14 3 14 2 14 1 14z"/><path d="M5728.537 14307.131l12 1 12 2 11 4 12 6 11 7 10 8 10 9 9 10 9 11 8 12 6 12 6 13 5 14 3 14 2 14 1 14" class="B C H I"/><path d="M5755.537 14458.131h-127l1-14 2-14 3-14 5-14 6-13 6-12 8-12 9-11 9-10 10-9 10-8 11-7 12-6 11-4 12-2 12-1z"/><path d="M5628.537 14458.131l1-14 2-14 3-14 5-14 6-13 6-12 8-12 9-11 9-10 10-9 10-8 11-7 12-6 11-4 12-2 12-1" class="B C H I"/><path d="M5755.537 16092.131l-127-478h252zm-27-1484h52v77h-52zm0 176h52v76h-52zm0 176h52v76h-52zm0 176h52v76h-52zm0 176h52v76h-52zm0 176h52v76h-52zm1182 2765l403 50-50 101-25 76z"/><path d="M7279.537 18421.131l580 253" class="B C H J M"/><path d="M6332.537 17625.131l327-227 26 76 25 101z"/><path d="M7632.537 17190.131l-931 302" class="B C H J M"/><path d="M6357.537 18856.131l378 102-50 100-51 76z"/><g class="B C H J"><path d="M6701.537 19075.131l755 478" class="M"/><g class="I"><path d="M6073.537 19955.131h377m-251-3645v377"/><path d="M6023.537 16486.131h377"/></g></g><text xml:space="preserve" x="5887.966" y="22648.027" class="K L"><tspan x="7895.699" y="18821.711">Kapselwand</tspan></text><text xml:space="preserve" x="4977.895" y="23712.373" class="K L"><tspan x="6985.628" y="19886.057">Schwarze Mikropartikel</tspan></text></g></svg>