<svg xmlns="http://www.w3.org/2000/svg" id="svg504" width="389" height="326.507" version="1.1" viewBox="0 0 102.923 86.388"><style id="style2">.W{stroke-opacity:.4}.X{shape-rendering:geometricPrecision}.Y{fill-opacity:.85}.a{font-size:16px}.b{font-family:Arial}.c{text-anchor:middle}.d{overflow:hidden}.e{text-anchor:end}.f{fill:#315b7d}.g{stroke-width:.997}</style><g id="g502" transform="translate(-5.554 .049) scale(.26458)"><path id="path4" fill="#fff" stroke="#888" d="M21.497.5h387.896v325.326h-387.9Z"/><svg id="svg10" width="366" height="20" x="44" y="280" class="d" style="fill:#666" version="1.1"><text id="text8" x="181.307" y="12.373" fill="#00f" class="a b c" style="font-size:17.3334px;fill:#666;stroke-width:1.40907">E-Paper-Display bekannt</text></svg><svg id="svg16" width="20" height="280" class="d" style="fill:#666" version="1.1"><text id="text14" x="-148.012" y="38.176" fill="#00f" class="a b c" style="font-style:normal;font-variant:normal;font-weight:400;font-stretch:normal;font-size:24px;font-family:&quot;Source Code Pro&quot;;-inkscape-font-specification:&quot;Source Code Pro&quot;;fill:#666" transform="rotate(-90)"><tspan id="tspan12" dy="5" style="font-style:normal;font-variant:normal;font-weight:400;font-stretch:normal;font-size:24px;font-family:&quot;Source Code Pro&quot;;-inkscape-font-specification:&quot;Source Code Pro&quot;;fill:#666">Geschlecht</tspan></text></svg><svg id="svg464" width="366" height="256" x="44" class="d" version="1.1"><g id="g22" fill="none" stroke="#ddd"><path id="path18" d="M183 1.407V256"/><path id="path20" d="M30.671 128H366" style="stroke-width:.957183"/></g><g id="g446" fill="#e6805b" stroke="#fff" style="fill:#4ca2ff;fill-opacity:.85098;stroke-width:1.00002;stroke-dasharray:none"><circle id="circle24" cx="216.342" cy="247.296" r="6" class="W X Y"/><circle id="circle26" cx="228.342" cy="247.296" r="6" class="W X Y"/><circle id="circle28" cx="240.342" cy="247.296" r="6" class="W X Y"/><circle id="circle30" cx="216.35" cy="116.758" r="6" class="W X Y"/><circle id="circle32" cx="52.436" cy="247.55" r="6" class="W X Y"/><circle id="circle34" cx="52.747" cy="117.052" r="6" class="W X Y"/><circle id="circle36" cx="64.749" cy="117.052" r="6" class="W X Y"/><circle id="circle38" cx="64.435" cy="247.55" r="6" class="W X Y"/><circle id="circle40" cx="228.351" cy="116.758" r="6" class="W X Y"/><circle id="circle42" cx="240.352" cy="116.758" r="6" class="W X Y"/><circle id="circle44" cx="76.75" cy="117.052" r="6" class="W X Y"/><circle id="circle46" cx="252.353" cy="116.758" r="6" class="W X Y"/><circle id="circle48" cx="264.355" cy="116.758" r="6" class="W X Y"/><circle id="circle50" cx="76.435" cy="247.55" r="6" class="W X Y"/><circle id="circle52" cx="252.342" cy="247.296" r="6" class="W X Y"/><circle id="circle54" cx="216.35" cy="104.758" r="6" class="W X Y"/><circle id="circle56" cx="88.751" cy="117.052" r="6" class="W X Y"/><circle id="circle58" cx="228.351" cy="104.758" r="6" class="W X Y"/><circle id="circle60" cx="264.342" cy="247.296" r="6" class="W X Y"/><circle id="circle62" cx="240.352" cy="104.758" r="6" class="W X Y"/><circle id="circle64" cx="88.435" cy="247.55" r="6" class="W X Y"/><circle id="circle66" cx="100.435" cy="247.55" r="6" class="W X Y"/><circle id="circle68" cx="252.353" cy="104.758" r="6" class="W X Y"/><circle id="circle70" cx="52.436" cy="235.55" r="6" class="W X Y"/><circle id="circle72" cx="216.342" cy="235.296" r="6" class="W X Y"/><circle id="circle74" cx="228.342" cy="235.296" r="6" class="W X Y"/><circle id="circle76" cx="240.342" cy="235.296" r="6" class="W X Y"/><circle id="circle78" cx="252.342" cy="235.296" r="6" class="W X Y"/><circle id="circle80" cx="264.342" cy="235.296" r="6" class="W X Y"/><circle id="circle82" cx="264.355" cy="104.758" r="6" class="W X Y"/><circle id="circle84" cx="216.35" cy="92.758" r="6" class="W X Y"/><circle id="circle86" cx="228.351" cy="92.758" r="6" class="W X Y"/><circle id="circle88" cx="100.752" cy="117.052" r="6" class="W X Y"/><circle id="circle90" cx="216.342" cy="223.296" r="6" class="W X Y"/><circle id="circle90-3" cx="228.345" cy="223.301" r="6" class="W X Y"/><circle id="circle94" cx="240.342" cy="223.296" r="6" class="W X Y"/><circle id="circle96" cx="252.342" cy="223.296" r="6" class="W X Y"/><circle id="circle98" cx="264.342" cy="223.296" r="6" class="W X Y"/><circle id="circle100" cx="216.342" cy="211.296" r="6" class="W X Y"/><circle id="circle102" cx="228.342" cy="211.296" r="6" class="W X Y"/><circle id="circle104" cx="64.435" cy="235.55" r="6" class="W X Y"/><circle id="circle106" cx="76.435" cy="235.55" r="6" class="W X Y"/><circle id="circle108" cx="240.352" cy="92.758" r="6" class="W X Y"/><circle id="circle110" cx="252.353" cy="92.758" r="6" class="W X Y"/><circle id="circle112" cx="264.355" cy="92.758" r="6" class="W X Y"/><circle id="circle114" cx="240.342" cy="211.296" r="6" class="W X Y"/><circle id="circle116" cx="216.35" cy="80.759" r="6" class="W X Y"/><circle id="circle118" cx="252.342" cy="211.296" r="6" class="W X Y"/><circle id="circle120" cx="52.747" cy="105.052" r="6" class="W X Y"/><circle id="circle122" cx="228.351" cy="80.759" r="6" class="W X Y"/><circle id="circle124" cx="264.342" cy="211.296" r="6" class="W X Y"/><circle id="circle126" cx="216.342" cy="199.296" r="6" class="W X Y"/><circle id="circle128" cx="228.342" cy="199.296" r="6" class="W X Y"/><circle id="circle130" cx="240.342" cy="199.296" r="6" class="W X Y"/><circle id="circle132" cx="88.435" cy="235.55" r="6" class="W X Y"/><circle id="circle134" cx="252.342" cy="199.296" r="6" class="W X Y"/><circle id="circle136" cx="264.342" cy="199.296" r="6" class="W X Y"/><circle id="circle138" cx="216.342" cy="187.296" r="6" class="W X Y"/><circle id="circle140" cx="64.749" cy="105.052" r="6" class="W X Y"/><circle id="circle140-3" cx="76.747" cy="105.077" r="6" class="W X Y"/><circle id="circle142" cx="228.342" cy="187.296" r="6" class="W X Y"/><circle id="circle144" cx="240.342" cy="187.296" r="6" class="W X Y"/><circle id="circle146" cx="100.435" cy="235.55" r="6" class="W X Y"/><circle id="circle148" cx="76.75" cy="105.052" class="W X Y g"/><circle id="circle150" cx="252.342" cy="187.296" r="6" class="W X Y"/><circle id="circle152" cx="52.436" cy="223.55" r="6" class="W X Y"/><circle id="circle154" cx="240.352" cy="80.759" r="6" class="W X Y"/><circle id="circle156" cx="64.435" cy="223.55" r="6" class="W X Y"/><circle id="circle158" cx="252.353" cy="80.759" r="6" class="W X Y"/><circle id="circle160" cx="264.342" cy="187.296" r="6" class="W X Y"/><circle id="circle162" cx="264.355" cy="80.759" r="6" class="W X Y"/><circle id="circle164" cx="216.342" cy="175.296" r="6" class="W X Y"/><circle id="circle166" cx="216.35" cy="68.759" r="6" class="W X Y"/><circle id="circle168" cx="228.342" cy="175.296" r="6" class="W X Y"/><circle id="circle170" cx="240.342" cy="175.296" r="6" class="W X Y"/><circle id="circle172" cx="76.435" cy="223.55" r="6" class="W X Y"/><circle id="circle174" cx="252.342" cy="175.296" r="6" class="W X Y"/><circle id="circle176" cx="228.351" cy="68.759" r="6" class="W X Y"/><circle id="circle178" cx="240.352" cy="68.759" r="6" class="W X Y"/><circle id="circle180" cx="252.353" cy="68.759" r="6" class="W X Y"/><circle id="circle182" cx="264.355" cy="68.759" r="6" class="W X Y"/><circle id="circle184" cx="216.35" cy="56.759" r="6" class="W X Y"/><circle id="circle186" cx="264.342" cy="175.296" r="6" class="W X Y"/><circle id="circle188" cx="228.351" cy="56.759" r="6" class="W X Y"/><circle id="circle190" cx="240.352" cy="56.759" r="6" class="W X Y"/><circle id="circle192" cx="216.342" cy="163.296" r="6" class="W X Y"/><circle id="circle194" cx="252.353" cy="56.759" r="6" class="W X Y"/><circle id="circle196" cx="228.342" cy="163.296" r="6" class="W X Y"/><circle id="circle198" cx="240.342" cy="163.296" r="6" class="W X Y"/><circle id="circle200" cx="252.342" cy="163.296" r="6" class="W X Y"/><circle id="circle202" cx="264.342" cy="163.296" r="6" class="W X Y"/><circle id="circle204" cx="216.342" cy="151.296" r="6" class="W X Y"/><circle id="circle206" cx="228.342" cy="151.296" r="6" class="W X Y"/><circle id="circle208" cx="264.355" cy="56.759" r="6" class="W X Y"/><circle id="circle210" cx="88.435" cy="223.55" r="6" class="W X Y"/><circle id="circle212" cx="88.751" cy="105.052" r="6" class="W X Y"/><circle id="circle214" cx="216.35" cy="44.759" r="6" class="W X Y"/><circle id="circle216" cx="228.351" cy="44.759" r="6" class="W X Y"/><circle id="circle218" cx="240.342" cy="151.296" r="6" class="W X Y"/><circle id="circle220" cx="252.342" cy="151.296" r="6" class="W X Y"/><circle id="circle222" cx="100.435" cy="223.55" r="6" class="W X Y"/><circle id="circle224" cx="264.342" cy="151.296" r="6" class="W X Y"/><circle id="circle226" cx="240.352" cy="44.759" r="6" class="W X Y"/><circle id="circle228" cx="276.343" cy="247.297" r="6" class="W X Y"/><circle id="circle230" cx="252.353" cy="44.759" r="6" class="W X Y"/><circle id="circle232" cx="264.355" cy="44.759" r="6" class="W X Y"/><circle id="circle234" cx="216.35" cy="32.759" r="6" class="W X Y"/><circle id="circle236" cx="228.351" cy="32.759" r="6" class="W X Y"/><circle id="circle238" cx="240.352" cy="32.759" r="6" class="W X Y"/><circle id="circle240" cx="252.353" cy="32.759" r="6" class="W X Y"/><circle id="circle242" cx="264.355" cy="32.759" r="6" class="W X Y"/><circle id="circle244" cx="276.344" cy="116.759" r="6" class="W X Y"/><circle id="circle246" cx="112.436" cy="247.55" r="6" class="W X Y"/><circle id="circle248" cx="288.343" cy="247.297" r="6" class="W X Y"/><circle id="circle250" cx="300.343" cy="247.297" r="6" class="W X Y"/><circle id="circle252" cx="312.343" cy="247.297" r="6" class="W X Y"/><circle id="circle254" cx="288.345" cy="116.759" r="6" class="W X Y"/><circle id="circle256" cx="124.436" cy="247.55" r="6" class="W X Y"/><circle id="circle258" cx="324.343" cy="247.297" r="6" class="W X Y"/><circle id="circle260" cx="276.343" cy="235.296" r="6" class="W X Y"/><circle id="circle262" cx="288.343" cy="235.296" r="6" class="W X Y"/><circle id="circle264" cx="300.343" cy="235.296" r="6" class="W X Y"/><circle id="circle266" cx="312.343" cy="235.296" r="6" class="W X Y"/><circle id="circle268" cx="300.346" cy="116.759" r="6" class="W X Y"/><circle id="circle270" cx="136.436" cy="247.55" r="6" class="W X Y"/><circle id="circle272" cx="324.343" cy="235.296" r="6" class="W X Y"/><circle id="circle274" cx="100.752" cy="105.052" r="6" class="W X Y"/><circle id="circle276" cx="276.343" cy="223.297" r="6" class="W X Y"/><circle id="circle278" cx="312.348" cy="116.759" r="6" class="W X Y"/><circle id="circle280" cx="288.343" cy="223.297" r="6" class="W X Y"/><circle id="circle282" cx="300.343" cy="223.297" r="6" class="W X Y"/><circle id="circle284" cx="312.343" cy="223.297" r="6" class="W X Y"/><circle id="circle286" cx="324.349" cy="116.759" r="6" class="W X Y"/><circle id="circle288" cx="276.344" cy="104.759" r="6" class="W X Y"/><circle id="circle290" cx="124.742" cy="117.053" r="6" class="W X Y"/><circle id="circle292" cx="288.345" cy="104.759" r="6" class="W X Y"/><circle id="circle294" cx="300.346" cy="104.759" r="6" class="W X Y"/><circle id="circle296" cx="136.744" cy="117.053" r="6" class="W X Y"/><circle id="circle298" cx="312.348" cy="104.759" r="6" class="W X Y"/><circle id="circle300" cx="324.349" cy="104.759" r="6" class="W X Y"/><circle id="circle302" cx="324.343" cy="223.297" r="6" class="W X Y"/><circle id="circle304" cx="276.343" cy="211.296" r="6" class="W X Y"/><circle id="circle306" cx="276.344" cy="92.759" r="6" class="W X Y"/><circle id="circle308" cx="288.345" cy="92.759" r="6" class="W X Y"/><circle id="circle310" cx="300.346" cy="92.759" r="6" class="W X Y"/><circle id="circle312" cx="288.343" cy="211.296" r="6" class="W X Y"/><circle id="circle314" cx="312.348" cy="92.759" r="6" class="W X Y"/><circle id="circle316" cx="148.745" cy="117.053" r="6" class="W X Y"/><circle id="circle318" cx="148.436" cy="247.55" r="6" class="W X Y"/><circle id="circle320" cx="300.343" cy="211.296" r="6" class="W X Y"/><circle id="circle322" cx="160.746" cy="117.053" r="6" class="W X Y"/><circle id="circle324" cx="112.741" cy="105.053" r="6" class="W X Y"/><circle id="circle326" cx="324.349" cy="92.759" r="6" class="W X Y"/><circle id="circle328" cx="276.344" cy="80.759" r="6" class="W X Y"/><circle id="circle330" cx="288.345" cy="80.759" r="6" class="W X Y"/><circle id="circle332" cx="300.346" cy="80.759" r="6" class="W X Y"/><circle id="circle334" cx="124.742" cy="105.053" r="6" class="W X Y"/><circle id="circle336" cx="160.436" cy="247.55" r="6" class="W X Y"/><circle id="circle338" cx="312.348" cy="80.759" r="6" class="W X Y"/><circle id="circle340" cx="324.349" cy="80.759" r="6" class="W X Y"/><circle id="circle342" cx="276.344" cy="68.759" r="6" class="W X Y"/><circle id="circle344" cx="112.436" cy="235.55" r="6" class="W X Y"/><circle id="circle346" cx="136.744" cy="105.053" r="6" class="W X Y"/><circle id="circle348" cx="288.345" cy="68.759" r="6" class="W X Y"/><circle id="circle350" cx="300.346" cy="68.759" r="6" class="W X Y"/><circle id="circle352" cx="312.348" cy="68.759" r="6" class="W X Y"/><circle id="circle354" cx="148.745" cy="105.053" r="6" class="W X Y"/><circle id="circle356" cx="324.349" cy="68.759" r="6" class="W X Y"/><circle id="circle358" cx="124.436" cy="235.55" r="6" class="W X Y"/><circle id="circle360" cx="312.343" cy="211.296" r="6" class="W X Y"/><circle id="circle362" cx="324.343" cy="211.296" r="6" class="W X Y"/><circle id="circle364" cx="276.343" cy="199.297" r="6" class="W X Y"/><circle id="circle366" cx="288.343" cy="199.297" r="6" class="W X Y"/><circle id="circle368" cx="300.343" cy="199.297" r="6" class="W X Y"/><circle id="circle370" cx="160.746" cy="105.053" r="6" class="W X Y"/><circle id="circle372" cx="312.343" cy="199.297" r="6" class="W X Y"/><circle id="circle374" cx="136.436" cy="235.55" r="6" class="W X Y"/><circle id="circle376" cx="276.344" cy="56.759" r="6" class="W X Y"/><circle id="circle378" cx="324.343" cy="199.297" r="6" class="W X Y"/><circle id="circle380" cx="288.345" cy="56.759" r="6" class="W X Y"/><circle id="circle382" cx="276.343" cy="187.297" r="6" class="W X Y"/><circle id="circle384" cx="288.343" cy="187.297" r="6" class="W X Y"/><circle id="circle386" cx="300.343" cy="187.297" r="6" class="W X Y"/><circle id="circle388" cx="300.346" cy="56.759" r="6" class="W X Y"/><circle id="circle390" cx="312.348" cy="56.759" r="6" class="W X Y"/><circle id="circle392" cx="312.343" cy="187.297" r="6" class="W X Y"/><circle id="circle394" cx="324.349" cy="56.759" r="6" class="W X Y"/><circle id="circle396" cx="276.344" cy="44.759" r="6" class="W X Y"/><circle id="circle398" cx="324.343" cy="187.297" r="6" class="W X Y"/><circle id="circle398-3" cx="324.329" cy="175.308" r="6" class="W X Y"/><circle id="circle400" cx="288.345" cy="44.759" r="6" class="W X Y"/><circle id="circle402" cx="276.343" cy="175.297" r="6" class="W X Y"/><circle id="circle404" cx="300.346" cy="44.759" r="6" class="W X Y"/><circle id="circle406" cx="288.343" cy="175.297" r="6" class="W X Y"/><circle id="circle408" cx="300.343" cy="175.297" r="6" class="W X Y"/><circle id="circle410" cx="52.935" cy="93.053" r="6" class="W X Y"/><circle id="circle412" cx="148.436" cy="235.55" r="6" class="W X Y"/><circle id="circle414" cx="312.343" cy="175.297" r="6" class="W X Y"/><circle id="circle416" cx="160.436" cy="235.55" r="6" class="W X Y"/><circle id="circle418" cx="324.343" cy="175.297" class="W X Y g" style="opacity:.85"/><circle id="circle420" cx="276.343" cy="163.297" r="6" class="W X Y"/><circle id="circle422" cx="312.348" cy="44.759" r="6" class="W X Y"/><circle id="circle424" cx="288.343" cy="163.297" r="6" class="W X Y"/><circle id="circle426" cx="112.436" cy="223.55" r="6" class="W X Y"/><circle id="circle428" cx="124.436" cy="223.55" r="6" class="W X Y"/><circle id="circle430" cx="324.349" cy="44.759" r="6" class="W X Y"/><circle id="circle432" cx="276.344" cy="32.759" r="6" class="W X Y"/><circle id="circle434" cx="300.343" cy="163.297" r="6" class="W X Y"/><circle id="circle436" cx="288.345" cy="32.759" r="6" class="W X Y"/><circle id="circle438" cx="312.343" cy="163.297" r="6" class="W X Y"/><circle id="circle440" cx="324.343" cy="163.297" r="6" class="W X Y"/><circle id="circle442" cx="276.343" cy="151.297" r="6" class="W X Y"/><circle id="circle444" cx="112.741" cy="117.053" r="6" class="W X Y"/></g><text id="text450" x="181.56" y="143.699" class="a b e f" style="font-style:normal;font-variant:normal;font-weight:400;font-stretch:normal;font-size:24px;font-family:&quot;Source Code Pro&quot;;-inkscape-font-specification:&quot;Source Code Pro&quot;;fill:#666;stroke-width:.968317"><tspan id="tspan448" dy="4.261" style="font-style:normal;font-variant:normal;font-weight:400;font-stretch:normal;font-size:24px;font-family:&quot;Source Code Pro&quot;;-inkscape-font-specification:&quot;Source Code Pro&quot;;fill:#666;stroke-width:.968317">27 (<tspan id="tspan1396" style="fill:#666">24</tspan>%)</tspan></text><text id="text454" x="178.721" y="20.102" class="a b e f" style="font-style:normal;font-variant:normal;font-weight:400;font-stretch:normal;font-size:24px;font-family:&quot;Source Code Pro&quot;;-inkscape-font-specification:&quot;Source Code Pro&quot;;fill:#666"><tspan id="tspan452" dy="4.4" style="font-style:normal;font-variant:normal;font-weight:400;font-stretch:normal;font-size:24px;font-family:&quot;Source Code Pro&quot;;-inkscape-font-specification:&quot;Source Code Pro&quot;;fill:#666">21 (21%)</tspan></text><text id="text458" x="364.589" y="144.119" class="a b e f" style="font-style:normal;font-variant:normal;font-weight:400;font-stretch:normal;font-size:24px;font-family:&quot;Source Code Pro&quot;;-inkscape-font-specification:&quot;Source Code Pro&quot;;fill:#666"><tspan id="tspan456" dy="4.4" style="font-style:normal;font-variant:normal;font-weight:400;font-stretch:normal;font-size:24px;font-family:&quot;Source Code Pro&quot;;-inkscape-font-specification:&quot;Source Code Pro&quot;;fill:#666">86 (76%)</tspan></text><text id="text462" x="363.859" y="18.056" class="a b e f" style="font-style:normal;font-variant:normal;font-weight:400;font-stretch:normal;font-size:24px;font-family:&quot;Source Code Pro&quot;;-inkscape-font-specification:&quot;Source Code Pro&quot;;fill:#666"><tspan id="tspan460" dy="4.4" style="font-style:normal;font-variant:normal;font-weight:400;font-stretch:normal;font-size:24px;font-family:&quot;Source Code Pro&quot;;-inkscape-font-specification:&quot;Source Code Pro&quot;;fill:#666">77 (79%)</tspan></text></svg><svg id="svg480" width="24" height="256" x="20" class="d" version="1.1"><g id="g470" fill="none" stroke="#ccc" transform="translate(30.188)"><path id="path466" d="M23 258.032V1.379" style="stroke-width:.997324"/><path id="path468" d="M24 192h-4m4-128h-4"/></g><text id="text474" x="-192" y="44.632" fill="#000" class="a b c" style="font-style:normal;font-variant:normal;font-weight:400;font-stretch:normal;font-size:24px;font-family:&quot;Source Code Pro&quot;;-inkscape-font-specification:&quot;Source Code Pro&quot;;fill:#000" transform="rotate(-90)"><tspan id="tspan472" dy="3.5" style="font-style:normal;font-variant:normal;font-weight:400;font-stretch:normal;font-size:24px;font-family:&quot;Source Code Pro&quot;;-inkscape-font-specification:&quot;Source Code Pro&quot;;fill:#000">männlich</tspan></text><text id="text478" x="-64" y="44.632" fill="#000" class="a b c" style="font-style:normal;font-variant:normal;font-weight:400;font-stretch:normal;font-size:24px;font-family:&quot;Source Code Pro&quot;;-inkscape-font-specification:&quot;Source Code Pro&quot;;fill:#000" transform="rotate(-90)"><tspan id="tspan476" dy="3.5" style="font-style:normal;font-variant:normal;font-weight:400;font-stretch:normal;font-size:24px;font-family:&quot;Source Code Pro&quot;;-inkscape-font-specification:&quot;Source Code Pro&quot;;fill:#000">weiblich</tspan></text></svg><svg id="svg496" width="366" height="23" x="44" y="257" class="d" version="1.1"><g id="g486" fill="none" stroke="#ccc" transform="translate(33.717 .184) scale(.90788)"><path id="path482" d="M-5.538 1h366.463"/><path id="path484" d="M82.14 0v4m183-4v4"/></g><text id="text490" x="107.167" y="12.866" fill="#000" class="a b c" style="font-style:normal;font-variant:normal;font-weight:400;font-stretch:normal;font-size:18.6667px;font-family:&quot;Source Code Pro&quot;;-inkscape-font-specification:&quot;Source Code Pro&quot;;fill:#000"><tspan id="tspan488" dy="3.5" style="font-style:normal;font-variant:normal;font-weight:400;font-stretch:normal;font-size:18.6667px;font-family:&quot;Source Code Pro&quot;;-inkscape-font-specification:&quot;Source Code Pro&quot;;fill:#000">ja</tspan></text><text id="text494" x="273.43" y="14.387" fill="#000" class="a b c" style="font-style:normal;font-variant:normal;font-weight:400;font-stretch:normal;font-size:18.6667px;font-family:&quot;Source Code Pro&quot;;-inkscape-font-specification:&quot;Source Code Pro&quot;;fill:#000"><tspan id="tspan492" dy="3.5" style="font-style:normal;font-variant:normal;font-weight:400;font-stretch:normal;font-size:18.6667px;font-family:&quot;Source Code Pro&quot;;-inkscape-font-specification:&quot;Source Code Pro&quot;;fill:#000">nein</tspan></text></svg><path id="path498" fill="#888" stroke="#888" d="M22.203 299.349H410"/><text id="text500" x="219.988" y="316.664" fill="#888" class="a c" font-family="MuseoSans-500, arial" style="font-style:normal;font-variant:normal;font-weight:400;font-stretch:normal;font-size:16px;font-family:&quot;Source Code Pro&quot;;-inkscape-font-specification:&quot;Source Code Pro&quot;;fill:#007aff;fill-opacity:1;stroke-width:14.019">Bekanntheit e-Paper-Display</text></g></svg>