<svg xmlns="http://www.w3.org/2000/svg" xml:space="preserve" id="svg504" width="389.006" height="326.326" version="1.1" viewBox="0 0 102.925 86.34"><style id="style2">.a{font-size:16px}.b{font-family:Arial}.W{stroke-opacity:.4}.X{shape-rendering:geometricPrecision}.Y{fill-opacity:.85}.Z{opacity:.85}.a{font-family:Arial}.b{font-size:17.333px}.c{text-anchor:middle}.d{overflow:hidden}.e{text-anchor:end}.f{fill:#315b7d}.g{stroke-width:.998}</style><g id="g502" transform="translate(-5.555) scale(.26458)"><g id="g3005"><path id="path4" fill="#fff" stroke="#888" d="M21.497.5h387.896v325.326h-387.9Z"/><svg id="svg10" width="366" height="20" x="44" y="280" class="d" style="fill:#666" version="1.1"><text id="text8" x="181.307" y="12.373" fill="#00f" class="a b c" style="font-size:17.3334px;fill:#666;stroke-width:1.40907">Gute Idee: neben jeden Raum ein VP</text></svg><svg id="svg16" width="20" height="280" class="d" style="fill:#666" version="1.1"><text id="text14" x="-148.012" y="41.321" fill="#00f" class="a b c" style="font-style:normal;font-variant:normal;font-weight:400;font-stretch:normal;font-size:24px;font-family:&quot;Source Code Pro&quot;;-inkscape-font-specification:&quot;Source Code Pro&quot;;fill:#666" transform="rotate(-90)"><tspan id="tspan12" style="font-style:normal;font-variant:normal;font-weight:400;font-stretch:normal;font-size:24px;font-family:&quot;Source Code Pro&quot;;-inkscape-font-specification:&quot;Source Code Pro&quot;;fill:#666">Wunsch: mehrere VP</tspan></text></svg><svg id="svg464" width="366" height="256" x="44" class="d" version="1.1"><g id="g22" fill="none" stroke="#ddd"><path id="path18" d="M183 1.407V256"/><path id="path20" d="M30.671 128H366" style="stroke-width:.957183"/></g><text id="text450" x="181.56" y="148.889" class="a b e f" style="font-style:normal;font-variant:normal;font-weight:400;font-stretch:normal;font-size:24px;font-family:&quot;Source Code Pro&quot;;-inkscape-font-specification:&quot;Source Code Pro&quot;;fill:#666;stroke-width:.968317"><tspan id="tspan448" style="font-style:normal;font-variant:normal;font-weight:400;font-stretch:normal;font-size:24px;font-family:&quot;Source Code Pro&quot;;-inkscape-font-specification:&quot;Source Code Pro&quot;;fill:#666;stroke-width:.968317">154 (94%)</tspan></text><text id="text454" x="178.721" y="24.754" class="a b e f" style="font-style:normal;font-variant:normal;font-weight:400;font-stretch:normal;font-size:24px;font-family:&quot;Source Code Pro&quot;;-inkscape-font-specification:&quot;Source Code Pro&quot;;fill:#666"><tspan id="tspan452" style="font-style:normal;font-variant:normal;font-weight:400;font-stretch:normal;font-size:24px;font-family:&quot;Source Code Pro&quot;;-inkscape-font-specification:&quot;Source Code Pro&quot;;fill:#666">29 (60%)</tspan></text><text id="text458" x="364.589" y="148.396" class="a b e f" style="font-style:normal;font-variant:normal;font-weight:400;font-stretch:normal;font-size:24px;font-family:&quot;Source Code Pro&quot;;-inkscape-font-specification:&quot;Source Code Pro&quot;;fill:#666"><tspan id="tspan456" style="font-style:normal;font-variant:normal;font-weight:400;font-stretch:normal;font-size:24px;font-family:&quot;Source Code Pro&quot;;-inkscape-font-specification:&quot;Source Code Pro&quot;;fill:#666">9 (5.5%)</tspan></text><text id="text462" x="363.859" y="25.405" class="a b e f" style="font-style:normal;font-variant:normal;font-weight:400;font-stretch:normal;font-size:24px;font-family:&quot;Source Code Pro&quot;;-inkscape-font-specification:&quot;Source Code Pro&quot;;fill:#666"><tspan id="tspan460" style="font-style:normal;font-variant:normal;font-weight:400;font-stretch:normal;font-size:24px;font-family:&quot;Source Code Pro&quot;;-inkscape-font-specification:&quot;Source Code Pro&quot;;fill:#666">19 (40%)</tspan></text></svg><svg id="svg480" width="24" height="256" x="20" class="d" version="1.1"><g id="g470" fill="none" stroke="#ccc" transform="translate(30.188)"><path id="path466" d="M23 258.032V1.379" style="stroke-width:.997324"/><path id="path468" d="M24 192h-4m4-128h-4"/></g><text id="text474" x="-192" y="44.632" fill="#000" class="a b c" style="font-style:normal;font-variant:normal;font-weight:400;font-stretch:normal;font-size:24px;font-family:&quot;Source Code Pro&quot;;-inkscape-font-specification:&quot;Source Code Pro&quot;;fill:#000" transform="rotate(-90)"><tspan id="tspan5496" x="-192" y="44.632" style="font-style:normal;font-variant:normal;font-weight:400;font-stretch:normal;font-size:24px;font-family:&quot;Source Code Pro&quot;;-inkscape-font-specification:&quot;Source Code Pro&quot;;fill:#000">ja</tspan></text><text id="text478" x="-64" y="44.632" fill="#000" class="a b c" style="font-style:normal;font-variant:normal;font-weight:400;font-stretch:normal;font-size:24px;font-family:&quot;Source Code Pro&quot;;-inkscape-font-specification:&quot;Source Code Pro&quot;;fill:#000" transform="rotate(-90)"><tspan id="tspan476" style="font-style:normal;font-variant:normal;font-weight:400;font-stretch:normal;font-size:24px;font-family:&quot;Source Code Pro&quot;;-inkscape-font-specification:&quot;Source Code Pro&quot;;fill:#000">nein</tspan></text></svg><svg id="svg496" width="366" height="23" x="44" y="257" class="d" version="1.1"><g id="g486" fill="none" stroke="#ccc" transform="translate(33.717 .184) scale(.90788)"><path id="path482" d="M-5.538 1h366.463"/><path id="path484" d="M82.14 0v4m183-4v4"/></g><text id="text490" x="107.167" y="12.866" fill="#000" class="a b c" style="font-style:normal;font-variant:normal;font-weight:400;font-stretch:normal;font-size:18.6667px;font-family:&quot;Source Code Pro&quot;;-inkscape-font-specification:&quot;Source Code Pro&quot;;fill:#000"><tspan id="tspan488" dy="3.5" style="font-style:normal;font-variant:normal;font-weight:400;font-stretch:normal;font-size:18.6667px;font-family:&quot;Source Code Pro&quot;;-inkscape-font-specification:&quot;Source Code Pro&quot;;fill:#000">ja</tspan></text><text id="text494" x="273.43" y="14.387" fill="#000" class="a b c" style="font-style:normal;font-variant:normal;font-weight:400;font-stretch:normal;font-size:18.6667px;font-family:&quot;Source Code Pro&quot;;-inkscape-font-specification:&quot;Source Code Pro&quot;;fill:#000"><tspan id="tspan492" dy="3.5" style="font-style:normal;font-variant:normal;font-weight:400;font-stretch:normal;font-size:18.6667px;font-family:&quot;Source Code Pro&quot;;-inkscape-font-specification:&quot;Source Code Pro&quot;;fill:#000">nein</tspan></text></svg><path id="path498" fill="#888" stroke="#888" d="M22.203 299.349H410"/><text id="text500" x="219.988" y="316.664" fill="#888" class="a c" font-family="MuseoSans-500, arial" style="font-style:normal;font-variant:normal;font-weight:400;font-stretch:normal;font-size:16px;font-family:&quot;Source Code Pro&quot;;-inkscape-font-specification:&quot;Source Code Pro&quot;;fill:#007aff;fill-opacity:1;stroke-width:14.019">Wunsch von mehreren VP</text></g><g id="g3511" transform="translate(389.089 47.675) scale(.55063)"><svg id="svg3473" width="706" height="366" x="44" class="d" version="1.1"><g id="g3455" stroke="#fff"><g id="g3453" fill="#e6805b" style="fill:#4ca2ff;fill-opacity:.85098"><circle id="circle3031" cx="-574.292" cy="357.5" r="7.5" class="W X Y"/><circle id="circle3033" cx="-559.292" cy="357.5" r="7.5" class="W X Y"/><circle id="circle3035" cx="-544.292" cy="357.5" r="7.5" class="W X Y Z"/><circle id="circle3037" cx="-529.292" cy="357.5" r="7.5" class="W X Y"/><circle id="circle3039" cx="-514.292" cy="357.5" r="7.5" class="W X Y"/><circle id="circle3041" cx="-499.292" cy="357.5" r="7.5" class="W X Y"/><circle id="circle3043" cx="-484.292" cy="357.5" r="7.5" class="W X Y"/><circle id="circle3045" cx="-469.292" cy="357.5" r="7.5" class="W X Y"/><circle id="circle3047" cx="-454.292" cy="357.5" r="7.5" class="W X Y"/><circle id="circle3049" cx="-439.292" cy="357.5" r="7.5" class="W X Y"/><circle id="circle3051" cx="-424.292" cy="357.5" r="7.5" class="W X Y"/><circle id="circle3053" cx="-574.292" cy="109.945" r="7.5" class="W X Y"/><circle id="circle3055" cx="-409.292" cy="357.5" r="7.5" class="W X Y"/><circle id="circle3057" cx="-394.292" cy="357.5" r="7.5" class="W X Y"/><circle id="circle3059" cx="-559.292" cy="109.945" r="7.5" class="W X Y"/><circle id="circle3061" cx="-274.08" cy="109.945" r="7.5" class="W X Y"/><circle id="circle3063" cx="-379.292" cy="357.5" r="7.5" class="W X Y"/><circle id="circle3065" cx="-574.292" cy="342.682" r="7.5" class="W X Y"/><circle id="circle3067" cx="-559.292" cy="342.682" r="7.5" class="W X Y"/><circle id="circle3069" cx="-259.08" cy="109.945" r="7.5" class="W X Y"/><circle id="circle3071" cx="-544.292" cy="109.945" r="7.5" class="W X Y"/><circle id="circle3073" cx="-544.292" cy="342.682" r="7.5" class="W X Y"/><circle id="circle3075" cx="-529.292" cy="109.945" r="7.5" class="W X Y"/><circle id="circle3077" cx="-244.08" cy="109.945" r="7.5" class="W X Y"/><circle id="circle3079" cx="-529.292" cy="342.682" r="7.5" class="W X Y Z"/><circle id="circle3081" cx="-229.08" cy="109.945" r="7.5" class="W X Y"/><circle id="circle3083" cx="-514.292" cy="109.945" r="7.5" class="W X Y"/><circle id="circle3085" cx="-514.292" cy="342.682" r="7.5" class="W X Y"/><circle id="circle3087" cx="-499.292" cy="109.945" r="7.5" class="W X Y"/><circle id="circle3089" cx="-499.292" cy="342.682" r="7.5" class="W X Y"/><circle id="circle3091" cx="-484.292" cy="342.682" r="7.5" class="W X Y"/><circle id="circle3093" cx="-469.292" cy="342.682" r="7.5" class="W X Y"/><circle id="circle3095" cx="-454.292" cy="342.682" r="7.5" class="W X Y"/><circle id="circle3097" cx="-214.08" cy="109.945" r="7.5" class="W X Y"/><circle id="circle3099" cx="-484.292" cy="109.945" r="7.5" class="W X Y"/><circle id="circle3101" cx="-439.292" cy="342.682" r="7.5" class="W X Y"/><circle id="circle3103" cx="-424.292" cy="342.682" r="7.5" class="W X Y Z"/><circle id="circle3105" cx="-409.292" cy="342.682" r="7.5" class="W X Y"/><circle id="circle3107" cx="-394.292" cy="342.682" r="7.5" class="W X Y"/><circle id="circle3109" cx="-379.292" cy="342.682" r="7.5" class="W X Y"/><circle id="circle3111" cx="-469.292" cy="109.945" r="7.5" class="W X Y"/><circle id="circle3113" cx="-574.292" cy="327.864" r="7.5" class="W X Y"/><circle id="circle3115" cx="-454.292" cy="109.945" r="7.5" class="W X Y"/><circle id="circle3117" cx="-559.292" cy="327.864" r="7.5" class="W X Y"/><circle id="circle3119" cx="-544.292" cy="327.864" r="7.5" class="W X Y"/><circle id="circle3121" cx="-529.292" cy="327.864" r="7.5" class="W X Y"/><circle id="circle3123" cx="-274.08" cy="357.5" r="7.5" class="W X Y"/><circle id="circle3125" cx="-514.292" cy="327.864" r="7.5" class="W X Y Z"/><circle id="circle3127" cx="-499.292" cy="327.864" r="7.5" class="W X Y"/><circle id="circle3129" cx="-439.292" cy="109.945" r="7.5" class="W X Y"/><circle id="circle3131" cx="-484.292" cy="327.864" r="7.5" class="W X Y"/><circle id="circle3133" cx="-424.292" cy="109.945" r="7.5" class="W X Y"/><circle id="circle3135" cx="-469.292" cy="327.864" r="7.5" class="W X Y"/><circle id="circle3137" cx="-454.292" cy="327.864" r="7.5" class="W X Y"/><circle id="circle3139" cx="-409.292" cy="109.945" r="7.5" class="W X Y"/><circle id="circle3141" cx="-199.08" cy="109.945" r="7.5" class="W X Y"/><circle id="circle3143" cx="-184.08" cy="109.945" r="7.5" class="W X Y"/><circle id="circle3145" cx="-439.292" cy="327.864" r="7.5" class="W X Y"/><circle id="circle3147" cx="-424.292" cy="327.864" r="7.5" class="W X Y"/><circle id="circle3149" cx="-409.292" cy="327.864" r="7.5" class="W X Y Z"/><circle id="circle3151" cx="-394.292" cy="327.864" r="7.5" class="W X Y"/><circle id="circle3153" cx="-379.292" cy="327.864" r="7.5" class="W X Y"/><circle id="circle3155" cx="-574.292" cy="313.045" r="7.5" class="W X Y"/><circle id="circle3157" cx="-559.292" cy="313.045" r="7.5" class="W X Y"/><circle id="circle3159" cx="-544.292" cy="313.045" r="7.5" class="W X Y"/><circle id="circle3161" cx="-529.292" cy="313.045" r="7.5" class="W X Y"/><circle id="circle3163" cx="-169.08" cy="109.945" r="7.5" class="W X Y"/><circle id="circle3165" cx="-154.08" cy="109.945" r="7.5" class="W X Y"/><circle id="circle3167" cx="-514.292" cy="313.045" r="7.5" class="W X Y"/><circle id="circle3169" cx="-139.08" cy="109.945" r="7.5" class="W X Y"/><circle id="circle3171" cx="-499.292" cy="313.045" r="7.5" class="W X Y"/><circle id="circle3173" cx="-394.292" cy="109.945" r="7.5" class="W X Y"/><circle id="circle3175" cx="-124.08" cy="109.945" r="7.5" class="W X Y"/><circle id="circle3177" cx="-259.08" cy="357.5" r="7.5" class="W X Y Z"/><circle id="circle3179" cx="-244.08" cy="357.5" r="7.5" class="W X Y Z g"/><circle id="circle3181" cx="-379.292" cy="109.945" r="7.5" class="W X Y"/><circle id="circle3183" cx="-109.08" cy="109.945" r="7.5" class="W X Y"/><circle id="circle3185" cx="-94.08" cy="109.945" r="7.5" class="W X Y"/><circle id="circle3187" cx="-574.292" cy="95.127" r="7.5" class="W X Y"/><circle id="circle3189" cx="-484.292" cy="313.045" r="7.5" class="W X Y"/><circle id="circle3191" cx="-469.292" cy="313.045" r="7.5" class="W X Y"/><circle id="circle3193" cx="-79.08" cy="109.945" r="7.5" class="W X Y"/><circle id="circle3195" cx="-559.292" cy="95.127" r="7.5" class="W X Y"/><circle id="circle3197" cx="-454.292" cy="313.045" r="7.5" class="W X Y"/><circle id="circle3199" cx="-544.292" cy="95.127" r="7.5" class="W X Y"/><circle id="circle3201" cx="-529.292" cy="95.127" r="7.5" class="W X Y"/><circle id="circle3203" cx="-514.292" cy="95.127" r="7.5" class="W X Y"/><circle id="circle3205" cx="-439.292" cy="313.045" r="7.5" class="W X Y Z"/><circle id="circle3207" cx="-424.292" cy="313.045" r="7.5" class="W X Y"/><circle id="circle3209" cx="-409.292" cy="313.045" r="7.5" class="W X Y"/><circle id="circle3211" cx="-394.292" cy="313.045" r="7.5" class="W X Y Z"/><circle id="circle3213" cx="-379.292" cy="313.045" r="7.5" class="W X Y"/><circle id="circle3215" cx="-574.292" cy="298.227" r="7.5" class="W X Y"/><circle id="circle3217" cx="-274.08" cy="95.127" r="7.5" class="W X Y"/><circle id="circle3219" cx="-559.292" cy="298.227" r="7.5" class="W X Y"/><circle id="circle3221" cx="-544.292" cy="298.227" r="7.5" class="W X Y"/><circle id="circle3223" cx="-529.292" cy="298.227" r="7.5" class="W X Y Z"/><circle id="circle3225" cx="-514.292" cy="298.227" r="7.5" class="W X Y"/><circle id="circle3227" cx="-499.292" cy="298.227" r="7.5" class="W X Y Z"/><circle id="circle3229" cx="-484.292" cy="298.227" r="7.5" class="W X Y"/><circle id="circle3231" cx="-469.292" cy="298.227" r="7.5" class="W X Y Z"/><circle id="circle3233" cx="-499.292" cy="95.127" r="7.5" class="W X Y"/><circle id="circle3235" cx="-484.292" cy="95.127" r="7.5" class="W X Y Z"/><circle id="circle3237" cx="-469.292" cy="95.127" r="7.5" class="W X Y"/><circle id="circle3239" cx="-454.292" cy="298.227" r="7.5" class="W X Y"/><circle id="circle3241" cx="-259.08" cy="95.127" r="7.5" class="W X Y"/><circle id="circle3243" cx="-439.292" cy="298.227" r="7.5" class="W X Y"/><circle id="circle3245" cx="-424.292" cy="298.227" r="7.5" class="W X Y Z"/><circle id="circle3247" cx="-229.08" cy="357.5" r="7.5" class="W X Y"/><circle id="circle3249" cx="-409.292" cy="298.227" r="7.5" class="W X Y"/><circle id="circle3251" cx="-394.292" cy="298.227" r="7.5" class="W X Y"/><circle id="circle3253" cx="-214.08" cy="357.5" r="7.5" class="W X Y"/><circle id="circle3255" cx="-379.292" cy="298.227" r="7.5" class="W X Y Z"/><circle id="circle3257" cx="-574.292" cy="283.409" r="7.5" class="W X Y"/><circle id="circle3259" cx="-559.292" cy="283.409" r="7.5" class="W X Y Z"/><circle id="circle3261" cx="-544.292" cy="283.409" r="7.5" class="W X Y Z"/><circle id="circle3263" cx="-454.292" cy="95.127" r="7.5" class="W X Y Z"/><circle id="circle3265" cx="-529.292" cy="283.409" r="7.5" class="W X Y"/><circle id="circle3267" cx="-244.08" cy="95.127" r="7.5" class="W X Y"/><circle id="circle3269" cx="-439.292" cy="95.127" r="7.5" class="W X Y"/><circle id="circle3271" cx="-514.292" cy="283.409" r="7.5" class="W X Y"/><circle id="circle3273" cx="-499.292" cy="283.409" r="7.5" class="W X Y"/><circle id="circle3275" cx="-484.292" cy="283.409" r="7.5" class="W X Y"/><circle id="circle3277" cx="-199.08" cy="357.5" r="7.5" class="W X Y Z"/><circle id="circle3279" cx="-469.292" cy="283.409" r="7.5" class="W X Y Z"/><circle id="circle3281" cx="-454.292" cy="283.409" r="7.5" class="W X Y"/><circle id="circle3283" cx="-439.292" cy="283.409" r="7.5" class="W X Y"/><circle id="circle3285" cx="-424.292" cy="283.409" r="7.5" class="W X Y Z"/><circle id="circle3287" cx="-409.292" cy="283.409" r="7.5" class="W X Y"/><circle id="circle3289" cx="-394.292" cy="283.409" r="7.5" class="W X Y"/><circle id="circle3291" cx="-379.292" cy="283.409" r="7.5" class="W X Y"/><circle id="circle3293" cx="-574.292" cy="268.591" r="7.5" class="W X Y Z g"/><circle id="circle3295" cx="-559.292" cy="268.591" r="7.5" class="W X Y"/><circle id="circle3297" cx="-544.292" cy="268.591" r="7.5" class="W X Y"/><circle id="circle3299" cx="-529.292" cy="268.591" r="7.5" class="W X Y Z"/><circle id="circle3301" cx="-514.292" cy="268.591" r="7.5" class="W X Y"/><circle id="circle3303" cx="-499.292" cy="268.591" r="7.5" class="W X Y Z"/><circle id="circle3305" cx="-484.292" cy="268.591" r="7.5" class="W X Y"/><circle id="circle3307" cx="-469.292" cy="268.591" r="7.5" class="W X Y"/><circle id="circle3309" cx="-454.292" cy="268.591" r="7.5" class="W X Y"/><circle id="circle3311" cx="-439.292" cy="268.591" r="7.5" class="W X Y"/><circle id="circle3313" cx="-424.292" cy="95.127" r="7.5" class="W X Y"/><circle id="circle3315" cx="-184.08" cy="357.5" r="7.5" class="W X Y Z"/><circle id="circle3317" cx="-424.292" cy="268.591" r="7.5" stroke-width=".958" class="W X Y Z"/><circle id="circle3319" cx="-409.292" cy="268.591" r="7.5" class="W X Y"/><circle id="circle3321" cx="-394.292" cy="268.591" r="7.5" class="W X Y"/><circle id="circle3323" cx="-379.292" cy="268.591" r="7.5" class="W X Y"/><circle id="circle3325" cx="-574.292" cy="253.773" r="7.5" class="W X Y"/><circle id="circle3327" cx="-559.292" cy="253.773" r="7.5" class="W X Y"/><circle id="circle3329" cx="-544.292" cy="253.773" r="7.5" class="W X Y"/><circle id="circle3331" cx="-529.292" cy="253.773" r="7.5" class="W X Y Z"/><circle id="circle3333" cx="-514.292" cy="253.773" r="7.5" class="W X Y Z"/><circle id="circle3335" cx="-499.292" cy="253.773" r="7.5" class="W X Y"/><circle id="circle3337" cx="-484.292" cy="253.773" r="7.5" class="W X Y"/><circle id="circle3339" cx="-469.292" cy="253.773" r="7.5" class="W X Y"/><circle id="circle3341" cx="-454.292" cy="253.773" r="7.5" class="W X Y"/><circle id="circle3343" cx="-169.08" cy="357.5" r="7.5" class="W X Y Z"/><circle id="circle3345" cx="-439.292" cy="253.773" r="7.5" class="W X Y"/><circle id="circle3347" cx="-424.292" cy="253.773" r="7.5" class="W X Y Z"/><circle id="circle3349" cx="-409.292" cy="253.773" r="7.5" class="W X Y Z"/><circle id="circle3351" cx="-394.292" cy="253.773" r="7.5" class="W X Y"/><circle id="circle3353" cx="-379.292" cy="253.773" r="7.5" class="W X Y"/><circle id="circle3355" cx="-574.292" cy="238.955" r="7.5" class="W X Y"/><circle id="circle3357" cx="-409.292" cy="95.127" r="7.5" class="W X Y"/><circle id="circle3359" cx="-559.292" cy="238.955" r="7.5" class="W X Y"/><circle id="circle3361" cx="-544.292" cy="238.955" r="7.5" class="W X Y"/><circle id="circle3363" cx="-529.292" cy="238.955" r="7.5" class="W X Y Z"/><circle id="circle3365" cx="-514.292" cy="238.955" r="7.5" class="W X Y"/><circle id="circle3367" cx="-499.292" cy="238.955" r="7.5" class="W X Y"/><circle id="circle3369" cx="-484.292" cy="238.955" r="7.5" class="W X Y"/><circle id="circle3371" cx="-469.292" cy="238.955" r="7.5" class="W X Y"/><circle id="circle3373" cx="-454.292" cy="238.955" r="7.5" class="W X Y"/><circle id="circle3375" cx="-439.292" cy="238.955" r="7.5" class="W X Y"/><circle id="circle3377" cx="-424.292" cy="238.955" r="7.5" class="W X Y"/><circle id="circle3379" cx="-409.292" cy="238.955" r="7.5" class="W X Y"/><circle id="circle3381" cx="-394.292" cy="238.955" r="7.5" class="W X Y"/><circle id="circle3383" cx="-379.292" cy="238.955" r="7.5" class="W X Y"/><circle id="circle3385" cx="-574.292" cy="224.136" r="7.5" class="W X Y"/><circle id="circle3387" cx="-559.292" cy="224.136" r="7.5" class="W X Y"/><circle id="circle3389" cx="-544.292" cy="224.136" r="7.5" class="W X Y"/><circle id="circle3391" cx="-529.292" cy="224.136" r="7.5" class="W X Y"/><circle id="circle3393" cx="-514.292" cy="224.136" r="7.5" class="W X Y"/><circle id="circle3395" cx="-499.292" cy="224.136" r="7.5" class="W X Y"/><circle id="circle3397" cx="-484.292" cy="224.136" r="7.5" class="W X Y"/><circle id="circle3399" cx="-394.292" cy="95.127" r="7.5" class="W X Y"/><circle id="circle3401" cx="-469.292" cy="224.136" r="7.5" class="W X Y"/><circle id="circle3403" cx="-454.292" cy="224.136" r="7.5" class="W X Y"/><circle id="circle3405" cx="-439.292" cy="224.136" r="7.5" class="W X Y"/><circle id="circle3407" cx="-424.292" cy="224.136" r="7.5" class="W X Y"/><circle id="circle3409" cx="-409.292" cy="224.136" r="7.5" class="W X Y"/><circle id="circle3411" cx="-394.292" cy="224.136" r="7.5" class="W X Y"/><circle id="circle3413" cx="-379.292" cy="224.136" r="7.5" class="W X Y"/><circle id="circle3415" cx="-574.292" cy="209.318" r="7.5" class="W X Y"/><circle id="circle3417" cx="-559.292" cy="209.318" r="7.5" class="W X Y"/><circle id="circle3419" cx="-544.292" cy="209.318" r="7.5" class="W X Y"/><circle id="circle3421" cx="-529.292" cy="209.318" r="7.5" class="W X Y"/><circle id="circle3423" cx="-514.292" cy="209.318" r="7.5" class="W X Y"/><circle id="circle3425" cx="-499.292" cy="209.318" r="7.5" class="W X Y"/><circle id="circle3427" cx="-484.292" cy="209.318" r="7.5" class="W X Y"/><circle id="circle3429" cx="-379.292" cy="95.127" r="7.5" class="W X Y"/><circle id="circle3431" cx="-154.08" cy="357.5" r="7.5" class="W X Y"/><circle id="circle3433" cx="-469.292" cy="209.318" r="7.5" class="W X Y Z g"/><circle id="circle3435" cx="-454.292" cy="209.318" r="7.5" class="W X Y"/><circle id="circle3437" cx="-439.292" cy="209.318" r="7.5" class="W X Y"/><circle id="circle3439" cx="-229.08" cy="95.127" r="7.5" class="W X Y"/><circle id="circle3441" cx="-214.08" cy="95.127" r="7.5" class="W X Y"/><circle id="circle3443" cx="-574.292" cy="80.309" r="7.5" class="W X Y"/><circle id="circle3445" cx="-424.292" cy="209.318" r="7.5" class="W X Y"/><circle id="circle3447" cx="-409.292" cy="209.318" r="7.5" class="W X Y"/><circle id="circle3449" cx="-394.292" cy="209.318" r="7.5" class="W X Y Z"/><circle id="circle3451" cx="-379.292" cy="209.318" r="7.5" class="W X Y"/></g></g></svg></g></g></svg>