<svg xmlns="http://www.w3.org/2000/svg" xml:space="preserve" id="svg504" width="389.006" height="326.513" version="1.1" viewBox="0 0 102.925 86.39"><style id="style2">.a{font-size:16px}.b{font-family:Arial}.W{stroke-opacity:.4}.X{shape-rendering:geometricPrecision}.a{font-family:Arial}.b{font-size:17.333px}.c{text-anchor:middle}.d{overflow:hidden}.e{text-anchor:end}.f{fill:#315b7d}</style><g id="g502" transform="translate(-5.555 .05) scale(.26458)"><g id="g3005"><path id="path4" fill="#fff" stroke="#888" d="M21.497.5h387.896v325.326h-387.9Z"/><svg id="svg1507" width="626" height="596" x="44" class="b" transform="translate(44)" version="1.1"><g id="g1489" stroke="#fff" transform="translate(172.092 136.482) scale(.44556)"><g id="g1487" fill="#e6805b" style="fill:#4ca2ff;fill-opacity:.85098" transform="translate(408.86 -331.82)"><circle id="circle1065" cx="-630.626" cy="586.525" r="8.5" class="U V W"/><circle id="circle1067" cx="-613.676" cy="586.525" r="8.5" class="U V W"/><circle id="circle1069" cx="-317.626" cy="586.525" r="8.5" class="U V W X"/><circle id="circle1071" cx="-300.676" cy="586.525" r="8.5" class="U V W"/><circle id="circle1073" cx="-596.726" cy="586.525" r="8.5" class="U V W"/><circle id="circle1075" cx="-579.776" cy="586.525" r="8.5" class="U V W"/><circle id="circle1077" cx="-562.826" cy="586.525" r="8.5" class="U V W"/><circle id="circle1079" cx="-545.876" cy="586.525" r="8.5" class="U V W"/><circle id="circle1081" cx="-528.926" cy="586.525" r="8.5" class="U V W X"/><circle id="circle1083" cx="-511.976" cy="586.525" r="8.5" class="U V W X"/><circle id="circle1085" cx="-495.026" cy="586.525" r="8.5" class="U V W"/><circle id="circle1087" cx="-478.076" cy="586.525" r="8.5" class="U V W"/><circle id="circle1089" cx="-630.626" cy="570.287" r="8.5" class="U V W"/><circle id="circle1091" cx="-613.676" cy="570.287" r="8.5" class="U V W"/><circle id="circle1093" cx="-596.726" cy="570.287" r="8.5" class="U V W X"/><circle id="circle1095" cx="-317.626" cy="263.342" r="8.5" class="U V W"/><circle id="circle1097" cx="-579.776" cy="570.287" r="8.5" class="U V W X"/><circle id="circle1099" cx="-562.826" cy="570.287" r="8.5" class="U V W X"/><circle id="circle1101" cx="-545.876" cy="570.287" r="8.5" class="U V W X"/><circle id="circle1103" cx="-300.676" cy="263.342" r="8.5" class="U V W"/><circle id="circle1105" cx="-528.926" cy="570.287" r="8.5" class="U V W"/><circle id="circle1107" cx="-511.976" cy="570.287" r="8.5" class="U V W"/><circle id="circle1109" cx="-495.026" cy="570.287" r="8.5" class="U V W X"/><circle id="circle1111" cx="-283.726" cy="263.342" r="8.5" class="U V W"/><circle id="circle1113" cx="-478.076" cy="570.287" r="8.5" class="U V W"/><circle id="circle1115" cx="-266.776" cy="263.342" r="8.5" class="U V W"/><circle id="circle1117" cx="-630.626" cy="554.049" r="8.5" class="U V W X"/><circle id="circle1119" cx="-613.676" cy="554.049" r="8.5" class="U V W"/><circle id="circle1121" cx="-596.726" cy="554.049" r="8.5" class="U V W"/><circle id="circle1123" cx="-579.776" cy="554.049" r="8.5" class="U V W"/><circle id="circle1125" cx="-562.826" cy="554.049" r="8.5" class="U V W"/><circle id="circle1127" cx="-545.876" cy="554.049" r="8.5" class="U V W"/><circle id="circle1129" cx="-528.926" cy="554.049" r="8.5" class="U V W"/><circle id="circle1131" cx="-630.626" cy="263.342" r="8.5" class="U V W"/><circle id="circle1133" cx="-511.976" cy="554.049" r="8.5" class="U V W X"/><circle id="circle1135" cx="-495.026" cy="554.049" r="8.5" class="U V W"/><circle id="circle1137" cx="-478.076" cy="554.049" r="8.5" class="U V W"/><circle id="circle1139" cx="-630.626" cy="537.81" r="8.5" class="U V W"/><circle id="circle1141" cx="-283.726" cy="586.525" r="8.5" class="U V W X"/><circle id="circle1143" cx="-613.676" cy="537.81" r="8.5" class="U V W"/><circle id="circle1145" cx="-596.726" cy="537.81" r="8.5" class="U V W"/><circle id="circle1147" cx="-579.776" cy="537.81" r="8.5" class="U V W"/><circle id="circle1149" cx="-562.826" cy="537.81" r="8.5" class="U V W"/><circle id="circle1151" cx="-545.876" cy="537.81" r="8.5" class="U V W X"/><circle id="circle1153" cx="-528.926" cy="537.81" r="8.5" class="U V W"/><circle id="circle1155" cx="-511.976" cy="537.81" r="8.5" class="U V W X"/><circle id="circle1157" cx="-249.826" cy="263.342" r="8.5" class="U V W"/><circle id="circle1159" cx="-495.026" cy="537.81" r="8.5" class="U V W X"/><circle id="circle1161" cx="-478.076" cy="537.81" r="8.5" class="U V W X"/><circle id="circle1163" cx="-630.626" cy="521.572" r="8.5" class="U V W X"/><circle id="circle1165" cx="-613.676" cy="521.572" r="8.5" class="U V W"/><circle id="circle1167" cx="-596.726" cy="521.572" r="8.5" class="U V W"/><circle id="circle1169" cx="-579.776" cy="521.572" r="8.5" class="U V W"/><circle id="circle1171" cx="-562.826" cy="521.572" r="8.5" class="U V W X"/><circle id="circle1173" cx="-545.876" cy="521.572" r="8.5" class="U V W"/><circle id="circle1175" cx="-232.876" cy="263.342" r="8.5" class="U V W"/><circle id="circle1177" cx="-215.926" cy="263.342" r="8.5" class="U V W"/><circle id="circle1179" cx="-528.926" cy="521.572" r="8.5" class="U V W"/><circle id="circle1181" cx="-511.976" cy="521.572" r="8.5" class="U V W"/><circle id="circle1183" cx="-266.776" cy="586.525" r="8.5" class="U V W X"/><circle id="circle1185" cx="-495.026" cy="521.572" r="8.5" class="U V W"/><circle id="circle1187" cx="-478.076" cy="521.572" r="8.5" class="U V W X"/><circle id="circle1189" cx="-630.626" cy="505.334" r="8.5" class="U V W"/><circle id="circle1191" cx="-613.676" cy="505.334" r="8.5" class="U V W X"/><circle id="circle1193" cx="-596.726" cy="505.334" r="8.5" class="U V W"/><circle id="circle1195" cx="-579.776" cy="505.334" r="8.5" class="U V W"/><circle id="circle1197" cx="-198.976" cy="263.342" r="8.5" class="U V W"/><circle id="circle1199" cx="-182.026" cy="263.342" r="8.5" class="U V W"/><circle id="circle1201" cx="-562.826" cy="505.334" r="8.5" class="U V W"/><circle id="circle1203" cx="-165.076" cy="263.342" r="8.5" class="U V W"/><circle id="circle1205" cx="-249.826" cy="586.525" r="8.5" class="U V W"/><circle id="circle1207" cx="-232.876" cy="586.525" r="8.5" class="U V W"/><circle id="circle1209" cx="-317.626" cy="247.104" r="8.5" class="U V W"/><circle id="circle1211" cx="-300.676" cy="247.104" r="8.5" class="U V W"/><circle id="circle1213" cx="-613.676" cy="263.342" r="8.5" class="U V W"/><circle id="circle1215" cx="-215.926" cy="586.525" r="8.5" class="U V W X"/><circle id="circle1217" cx="-596.726" cy="263.342" r="8.5" class="U V W"/><circle id="circle1219" cx="-579.776" cy="263.342" r="8.5" class="U V W"/><circle id="circle1221" cx="-198.976" cy="586.525" r="8.5" class="U V W"/><circle id="circle1223" cx="-545.876" cy="505.334" r="8.5" class="U V W"/><circle id="circle1225" cx="-528.926" cy="505.334" r="8.5" class="U V W"/><circle id="circle1227" cx="-283.726" cy="247.104" r="8.5" class="U V W"/><circle id="circle1229" cx="-511.976" cy="505.334" r="8.5" class="U V W"/><circle id="circle1231" cx="-495.026" cy="505.334" r="8.5" class="U V W"/><circle id="circle1233" cx="-478.076" cy="505.334" r="8.5" class="U V W"/><circle id="circle1235" cx="-630.626" cy="489.096" r="8.5" class="U V W X"/><circle id="circle1237" cx="-613.676" cy="489.096" r="8.5" class="U V W"/><circle id="circle1239" cx="-596.726" cy="489.096" r="8.5" class="U V W"/><circle id="circle1241" cx="-579.776" cy="489.096" r="8.5" class="U V W"/><circle id="circle1243" cx="-562.826" cy="489.096" r="8.5" class="U V W"/><circle id="circle1245" cx="-545.876" cy="489.096" r="8.5" class="U V W"/><circle id="circle1247" cx="-528.926" cy="489.096" r="8.5" class="U V W"/><circle id="circle1249" cx="-511.976" cy="489.096" r="8.5" class="U V W"/><circle id="circle1251" cx="-266.776" cy="247.104" r="8.5" class="U V W"/><circle id="circle1253" cx="-182.026" cy="586.525" r="8.5" class="U V W"/><circle id="circle1255" cx="-495.026" cy="489.096" r="8.5" class="U V W"/><circle id="circle1257" cx="-478.076" cy="489.096" r="8.5" class="U V W X"/><circle id="circle1259" cx="-630.626" cy="472.857" r="8.5" class="U V W"/><circle id="circle1261" cx="-613.676" cy="472.857" r="8.5" class="U V W"/><circle id="circle1263" cx="-165.076" cy="586.525" r="8.5" class="U V W"/><circle id="circle1265" cx="-596.726" cy="472.857" r="8.5" class="U V W"/><circle id="circle1267" cx="-579.776" cy="472.857" r="8.5" class="U V W X"/><circle id="circle1269" cx="-562.826" cy="472.857" r="8.5" class="U V W"/><circle id="circle1271" cx="-545.876" cy="472.857" r="8.5" class="U V W"/><circle id="circle1273" cx="-528.926" cy="472.857" r="8.5" class="U V W"/><circle id="circle1275" cx="-249.826" cy="247.104" r="8.5" class="U V W"/><circle id="circle1277" cx="-511.976" cy="472.857" r="8.5" class="U V W"/><circle id="circle1279" cx="-495.026" cy="472.857" r="8.5" class="U V W X"/><circle id="circle1281" cx="-232.876" cy="247.104" r="8.5" class="U V W"/><circle id="circle1283" cx="-478.076" cy="472.857" r="8.5" class="U V W"/><circle id="circle1285" cx="-630.626" cy="456.619" r="8.5" class="U V W"/><circle id="circle1287" cx="-215.926" cy="247.104" r="8.5" class="U V W"/><circle id="circle1289" cx="-613.676" cy="456.619" r="8.5" class="U V W"/><circle id="circle1291" cx="-596.726" cy="456.619" r="8.5" class="U V W"/><circle id="circle1293" cx="-579.776" cy="456.619" r="8.5" class="U V W X"/><circle id="circle1295" cx="-562.826" cy="456.619" r="8.5" class="U V W"/><circle id="circle1297" cx="-317.626" cy="570.287" r="8.5" class="U V W X"/><circle id="circle1299" cx="-545.876" cy="456.619" r="8.5" class="U V W"/><circle id="circle1301" cx="-198.976" cy="247.104" r="8.5" class="U V W"/><circle id="circle1303" cx="-528.926" cy="456.619" r="8.5" class="U V W"/><circle id="circle1305" cx="-300.676" cy="570.287" r="8.5" class="U V W X"/><circle id="circle1307" cx="-511.976" cy="456.619" r="8.5" class="U V W"/><circle id="circle1309" cx="-495.026" cy="456.619" r="8.5" class="U V W"/><circle id="circle1311" cx="-562.826" cy="263.342" r="8.5" class="U V W X"/><circle id="circle1313" cx="-478.076" cy="456.619" r="8.5" class="U V W"/><circle id="circle1315" cx="-283.726" cy="570.287" r="8.5" class="U V W"/><circle id="circle1317" cx="-630.626" cy="440.381" r="8.5" class="U V W X"/><circle id="circle1319" cx="-613.676" cy="440.381" r="8.5" class="U V W"/><circle id="circle1321" cx="-596.726" cy="440.381" r="8.5" class="U V W X"/><circle id="circle1323" cx="-579.776" cy="440.381" r="8.5" class="U V W"/><circle id="circle1325" cx="-562.826" cy="440.381" r="8.5" class="U V W"/><circle id="circle1327" cx="-545.876" cy="440.381" r="8.5" stroke-width=".998" class="U V W X"/><circle id="circle1329" cx="-266.776" cy="570.287" r="8.5" class="U V W X"/><circle id="circle1331" cx="-249.826" cy="570.287" r="8.5" class="U V W X"/><circle id="circle1333" cx="-528.926" cy="440.381" r="8.5" class="U V W"/><circle id="circle1335" cx="-511.976" cy="440.381" r="8.5" class="U V W"/><circle id="circle1337" cx="-495.026" cy="440.381" r="8.5" class="U V W"/><circle id="circle1339" cx="-478.076" cy="440.381" r="8.5" class="U V W"/><circle id="circle1341" cx="-630.626" cy="424.143" r="8.5" class="U V W"/><circle id="circle1343" cx="-613.676" cy="424.143" r="8.5" class="U V W"/><circle id="circle1345" cx="-232.876" cy="570.287" r="8.5" class="U V W X"/><circle id="circle1347" cx="-596.726" cy="424.143" r="8.5" class="U V W X"/><circle id="circle1349" cx="-545.876" cy="263.342" r="8.5" class="U V W"/><circle id="circle1351" cx="-579.776" cy="424.143" r="8.5" class="U V W"/><circle id="circle1353" cx="-562.826" cy="424.143" r="8.5" class="U V W"/><circle id="circle1355" cx="-545.876" cy="424.143" r="8.5" class="U V W"/><circle id="circle1357" cx="-528.926" cy="424.143" r="8.5" class="U V W X"/><circle id="circle1359" cx="-511.976" cy="424.143" r="8.5" class="U V W X"/><circle id="circle1361" cx="-495.026" cy="424.143" r="8.5" class="U V W"/><circle id="circle1363" cx="-478.076" cy="424.143" r="8.5" class="U V W"/><circle id="circle1365" cx="-630.626" cy="407.904" r="8.5" class="U V W X"/><circle id="circle1367" cx="-613.676" cy="407.904" r="8.5" class="U V W"/><circle id="circle1369" cx="-596.726" cy="407.904" r="8.5" class="U V W"/><circle id="circle1371" cx="-579.776" cy="407.904" r="8.5" class="U V W"/><circle id="circle1373" cx="-562.826" cy="407.904" r="8.5" class="U V W"/><circle id="circle1375" cx="-545.876" cy="407.904" r="8.5" class="U V W"/><circle id="circle1377" cx="-182.026" cy="247.104" r="8.5" class="U V W X"/><circle id="circle1379" cx="-528.926" cy="407.904" r="8.5" class="U V W X"/><circle id="circle1381" cx="-511.976" cy="407.904" r="8.5" class="U V W"/><circle id="circle1383" cx="-495.026" cy="407.904" r="8.5" class="U V W"/><circle id="circle1385" cx="-478.076" cy="407.904" r="8.5" class="U V W"/><circle id="circle1387" cx="-630.626" cy="391.666" r="8.5" class="U V W"/><circle id="circle1389" cx="-613.676" cy="391.666" r="8.5" class="U V W"/><circle id="circle1391" cx="-215.926" cy="570.287" r="8.5" class="U V W"/><circle id="circle1393" cx="-596.726" cy="391.666" r="8.5" class="U V W"/><circle id="circle1395" cx="-579.776" cy="391.666" r="8.5" class="U V W"/><circle id="circle1397" cx="-562.826" cy="391.666" r="8.5" class="U V W"/><circle id="circle1399" cx="-545.876" cy="391.666" r="8.5" class="U V W"/><circle id="circle1401" cx="-528.926" cy="391.666" r="8.5" class="U V W X"/><circle id="circle1403" cx="-511.976" cy="391.666" r="8.5" class="U V W"/><circle id="circle1405" cx="-495.026" cy="391.666" r="8.5" class="U V W"/><circle id="circle1407" cx="-478.076" cy="391.666" r="8.5" class="U V W"/><circle id="circle1409" cx="-630.626" cy="375.428" r="8.5" class="U V W X"/><circle id="circle1411" cx="-613.676" cy="375.428" r="8.5" class="U V W X"/><circle id="circle1413" cx="-596.726" cy="375.428" r="8.5" class="U V W"/><circle id="circle1415" cx="-579.776" cy="375.428" r="8.5" class="U V W"/><circle id="circle1417" cx="-562.826" cy="375.428" r="8.5" class="U V W"/><circle id="circle1419" cx="-545.876" cy="375.428" r="8.5" class="U V W"/><circle id="circle1421" cx="-198.976" cy="570.287" r="8.5" class="U V W"/><circle id="circle1423" cx="-528.926" cy="375.428" r="8.5" class="U V W"/><circle id="circle1425" cx="-511.976" cy="375.428" r="8.5" class="U V W"/><circle id="circle1427" cx="-495.026" cy="375.428" r="8.5" class="U V W"/><circle id="circle1429" cx="-478.076" cy="375.428" r="8.5" class="U V W X"/><circle id="circle1431" cx="-630.626" cy="359.19" r="8.5" class="U V W"/><circle id="circle1433" cx="-613.676" cy="359.19" r="8.5" class="U V W"/><circle id="circle1435" cx="-596.726" cy="359.19" r="8.5" class="U V W"/><circle id="circle1437" cx="-579.776" cy="359.19" r="8.5" class="U V W"/><circle id="circle1439" cx="-562.826" cy="359.19" r="8.5" class="U V W"/><circle id="circle1441" cx="-545.876" cy="359.19" r="8.5" class="U V W"/><circle id="circle1443" cx="-528.926" cy="359.19" r="8.5" class="U V W"/><circle id="circle1445" cx="-511.976" cy="359.19" r="8.5" class="U V W"/><circle id="circle1447" cx="-495.026" cy="359.19" r="8.5" class="U V W"/><circle id="circle1449" cx="-478.076" cy="359.19" r="8.5" class="U V W"/><circle id="circle1451" cx="-630.626" cy="342.951" r="8.5" class="U V W"/><circle id="circle1453" cx="-613.676" cy="342.951" r="8.5" class="U V W"/><circle id="circle1455" cx="-596.726" cy="342.951" r="8.5" class="U V W"/><circle id="circle1457" cx="-579.776" cy="342.951" r="8.5" class="U V W"/><circle id="circle1459" cx="-182.026" cy="570.287" r="8.5" class="U V W"/><circle id="circle1461" cx="-562.826" cy="342.951" r="8.5" class="U V W"/><circle id="circle1463" cx="-545.876" cy="342.951" r="8.5" class="U V W X"/><circle id="circle1465" cx="-528.926" cy="263.342" r="8.5" class="U V W"/><circle id="circle1467" cx="-528.926" cy="342.951" r="8.5" class="U V W"/><circle id="circle1469" cx="-511.976" cy="342.951" r="8.5" class="U V W"/><circle id="circle1471" cx="-495.026" cy="342.951" r="8.5" class="U V W"/><circle id="circle1473" cx="-165.076" cy="247.104" r="8.5" class="U V W"/><circle id="circle1475" cx="-317.626" cy="230.866" r="8.5" class="U V W"/><circle id="circle1477" cx="-478.076" cy="342.951" r="8.5" class="U V W"/><circle id="circle1479" cx="-630.626" cy="326.713" r="8.5" class="U V W"/><circle id="circle1481" cx="-613.676" cy="326.713" r="8.5" class="U V W"/><circle id="circle1483" cx="-165.076" cy="570.287" r="8.5" class="U V W X"/><circle id="circle1485" cx="-596.726" cy="326.713" r="8.5" class="U V W"/></g></g></svg><svg id="svg10" width="366" height="20" x="44" y="280" class="d" style="fill:#666" version="1.1"><text id="text8" x="175.762" y="12.373" fill="#00f" class="a b c" style="font-size:13.3334px;fill:#666;stroke-width:1.40907">Erleichterung: E-Paper vor den Räumen</text></svg><svg id="svg16" width="20" height="280" class="d" style="fill:#666" version="1.1"><text id="text14" x="-148.012" y="41.321" fill="#00f" class="a b c" style="font-style:normal;font-variant:normal;font-weight:400;font-stretch:normal;font-size:13.3334px;font-family:&quot;Source Code Pro&quot;;-inkscape-font-specification:&quot;Source Code Pro&quot;;fill:#666" transform="rotate(-90)">Gute Idee: neben jeden Raum ein VP</text></svg><svg id="svg464" width="366" height="256" x="44" class="d" version="1.1"><g id="g22" fill="none" stroke="#ddd"><path id="path18" d="M183 1.407V256"/><path id="path20" d="M30.671 128H366" style="stroke-width:.957183"/></g><text id="text450" x="186.056" y="148.536" class="a b e f" style="font-style:normal;font-variant:normal;font-weight:400;font-stretch:normal;font-size:24px;font-family:&quot;Source Code Pro&quot;;-inkscape-font-specification:&quot;Source Code Pro&quot;;fill:#666;stroke-width:.968317"><tspan id="tspan448" style="font-style:normal;font-variant:normal;font-weight:400;font-stretch:normal;font-size:24px;font-family:&quot;Source Code Pro&quot;;-inkscape-font-specification:&quot;Source Code Pro&quot;;fill:#666;stroke-width:.968317">163 (89%)</tspan></text><text id="text454" x="178.721" y="24.754" class="a b e f" style="font-style:normal;font-variant:normal;font-weight:400;font-stretch:normal;font-size:24px;font-family:&quot;Source Code Pro&quot;;-inkscape-font-specification:&quot;Source Code Pro&quot;;fill:#666"><tspan id="tspan452" style="font-style:normal;font-variant:normal;font-weight:400;font-stretch:normal;font-size:24px;font-family:&quot;Source Code Pro&quot;;-inkscape-font-specification:&quot;Source Code Pro&quot;;fill:#666">7 (25%)</tspan></text><text id="text458" x="364.589" y="148.396" class="a b e f" style="font-style:normal;font-variant:normal;font-weight:400;font-stretch:normal;font-size:24px;font-family:&quot;Source Code Pro&quot;;-inkscape-font-specification:&quot;Source Code Pro&quot;;fill:#666"><tspan id="tspan456" style="font-style:normal;font-variant:normal;font-weight:400;font-stretch:normal;font-size:24px;font-family:&quot;Source Code Pro&quot;;-inkscape-font-specification:&quot;Source Code Pro&quot;;fill:#666">20 (11%)</tspan></text><text id="text462" x="363.859" y="25.405" class="a b e f" style="font-style:normal;font-variant:normal;font-weight:400;font-stretch:normal;font-size:24px;font-family:&quot;Source Code Pro&quot;;-inkscape-font-specification:&quot;Source Code Pro&quot;;fill:#666"><tspan id="tspan460" style="font-style:normal;font-variant:normal;font-weight:400;font-stretch:normal;font-size:24px;font-family:&quot;Source Code Pro&quot;;-inkscape-font-specification:&quot;Source Code Pro&quot;;fill:#666">21 (75%)</tspan></text></svg><svg id="svg480" width="24" height="256" x="20" class="d" version="1.1"><g id="g470" fill="none" stroke="#ccc" transform="translate(30.188)"><path id="path466" d="M23 258.032V1.379" style="stroke-width:.997324"/><path id="path468" d="M24 192h-4m4-128h-4"/></g><text id="text474" x="-192" y="44.632" fill="#000" class="a b c" style="font-style:normal;font-variant:normal;font-weight:400;font-stretch:normal;font-size:24px;font-family:&quot;Source Code Pro&quot;;-inkscape-font-specification:&quot;Source Code Pro&quot;;fill:#000" transform="rotate(-90)"><tspan id="tspan5496" x="-192" y="44.632" style="font-style:normal;font-variant:normal;font-weight:400;font-stretch:normal;font-size:24px;font-family:&quot;Source Code Pro&quot;;-inkscape-font-specification:&quot;Source Code Pro&quot;;fill:#000">ja</tspan></text><text id="text478" x="-64" y="44.632" fill="#000" class="a b c" style="font-style:normal;font-variant:normal;font-weight:400;font-stretch:normal;font-size:24px;font-family:&quot;Source Code Pro&quot;;-inkscape-font-specification:&quot;Source Code Pro&quot;;fill:#000" transform="rotate(-90)"><tspan id="tspan476" style="font-style:normal;font-variant:normal;font-weight:400;font-stretch:normal;font-size:24px;font-family:&quot;Source Code Pro&quot;;-inkscape-font-specification:&quot;Source Code Pro&quot;;fill:#000">nein</tspan></text></svg><svg id="svg496" width="366" height="23" x="44" y="257" class="d" version="1.1"><g id="g486" fill="none" stroke="#ccc" transform="translate(33.717 .184) scale(.90788)"><path id="path482" d="M-5.538 1h366.463"/><path id="path484" d="M82.14 0v4m183-4v4"/></g><text id="text490" x="107.167" y="12.866" fill="#000" class="a b c" style="font-style:normal;font-variant:normal;font-weight:400;font-stretch:normal;font-size:18.6667px;font-family:&quot;Source Code Pro&quot;;-inkscape-font-specification:&quot;Source Code Pro&quot;;fill:#000"><tspan id="tspan488" dy="3.5" style="font-style:normal;font-variant:normal;font-weight:400;font-stretch:normal;font-size:18.6667px;font-family:&quot;Source Code Pro&quot;;-inkscape-font-specification:&quot;Source Code Pro&quot;;fill:#000">ja</tspan></text><text id="text494" x="273.43" y="14.387" fill="#000" class="a b c" style="font-style:normal;font-variant:normal;font-weight:400;font-stretch:normal;font-size:18.6667px;font-family:&quot;Source Code Pro&quot;;-inkscape-font-specification:&quot;Source Code Pro&quot;;fill:#000"><tspan id="tspan492" dy="3.5" style="font-style:normal;font-variant:normal;font-weight:400;font-stretch:normal;font-size:18.6667px;font-family:&quot;Source Code Pro&quot;;-inkscape-font-specification:&quot;Source Code Pro&quot;;fill:#000">nein</tspan></text></svg><path id="path498" fill="#888" stroke="#888" d="M22.203 299.349H410"/><text id="text500" x="215.369" y="316.664" fill="#888" class="a c" font-family="MuseoSans-500, arial" style="font-style:normal;font-variant:normal;font-weight:400;font-stretch:normal;font-size:13.3334px;font-family:&quot;Source Code Pro&quot;;-inkscape-font-specification:&quot;Source Code Pro&quot;;fill:#007aff;fill-opacity:1;stroke-width:14.019">Erleichterung durch das helper:Paper</text></g></g></svg>