<svg xmlns="http://www.w3.org/2000/svg" id="svg1000" width="389.001" height="326.321" version="1.1" viewBox="0 0 102.923 86.339"><style id="style898">.G{text-anchor:middle}.H{font-family:Source Code Pro}.I{fill:#000}.J{font-size:13.333px}.K{fill:#4ca1ff}.L{fill:none}.M{stroke:#ccc}.N{overflow:hidden}.O{stroke-width:.908}.P{fill:#fea24d}.Q{font-family:Arial}</style><g id="g998" transform="translate(-5.554) scale(.26458)"><path id="path900" fill="#fff" stroke="#888" d="M21.497.5h387.896v325.326h-387.9Z"/><g id="g912" fill="#666" class="N"><svg id="svg904" width="366" height="20" x="44" y="280" version="1.1"/><svg id="svg910" width="20" height="280" version="1.1"/></g><text id="text902" x="181.307" y="12.373" fill="#666" class="G Q" font-size="17.333" transform="translate(44 280)">E-Paper als VP vor Räumen (Daumen hoch)</text><text xml:space="preserve" id="text908" x="-148.012" y="38.176" fill="#666" class="G H J" style="white-space:pre" transform="rotate(-90)"><tspan id="tspan906" x="-148.012" y="38.176">Anzahl Personen</tspan></text><svg id="svg920" width="366" height="256" x="44" class="N" version="1.1"><text id="text914" x="242.892" y="116.115" class="H K" font-size="18.667" text-anchor="end">Nein: 163 (77%)</text><text id="text916" x="227.962" y="76.115" fill="#ff7a00" fill-opacity=".608" class="H" font-size="18.667" text-anchor="end">Ja: 48 (23%)</text><text id="text918" x="170.305" y="33.377" fill="#666" class="G Q" font-size="18.256">e-Paper-Display bekannt?</text></svg><svg id="svg940" width="24" height="256" x="20" class="N" version="1.1"><g id="g926" class="L M"><path id="path922" stroke-width=".994" d="M53.491 256V1"/><path id="path924" d="M52.994 20.115h-4m4 78.462h-4m4 78.462h-4"/></g><text id="text930" x="-177.055" y="46.594" class="G H I" font-size="24" transform="rotate(-90)"><tspan id="tspan928">40</tspan></text><text id="text934" x="-98.689" y="46.594" class="G H I" font-size="24" transform="rotate(-90)"><tspan id="tspan932">80</tspan></text><text id="text938" x="-23.43" y="46.594" class="G H I" font-size="24" transform="rotate(-90)"><tspan id="tspan936">120</tspan></text></svg><g id="g3219" transform="translate(44 257)"><g id="g946" class="L M"><path id="path942" stroke-width=".912" d="M28.993-1.546h335.884"/><path id="path944" d="M85.45-1.999v3.632" class="O"/></g><text id="text950" x="59.666" y="12.178" class="G H I J" transform="translate(25.453)"><tspan id="tspan948">1</tspan></text><path id="path952" d="M74.997-21.613h20v19.616h-20z" class="K" paint-order="normal"/><path id="path954" d="M141.451-1.999v3.632" class="L M O"/><text id="text958" x="59.666" y="12.178" class="G H I J" transform="translate(81.454)"><tspan id="tspan956" x="59.666" y="12.178">2</tspan></text><path id="path960" d="M130.998-13.767h20v11.77h-20z" class="K" paint-order="normal"/><path id="path962" d="M197.452-1.999v3.632" class="L M O"/><text id="text966" x="59.666" y="12.178" class="G H I J"><tspan id="tspan964" x="197.121" y="12.178">3</tspan></text><path id="path968" d="M186.999-51.036h20v49.039h-20z" class="K" paint-order="normal"/><path id="path970" d="M186.999-64.767h20v13.73h-20z" class="P" paint-order="normal"/><path id="path972" d="M253.453-1.999v3.632" class="L M O"/><text id="text976" x="59.666" y="12.178" class="G H I J"><tspan id="tspan974" x="253.122" y="12.178">4</tspan></text><path id="path978" d="M243-86.345h20v84.348h-20z" class="K" paint-order="normal"/><path id="path980" d="M243-111.845h20v25.5h-20z" class="P" paint-order="normal"/><path id="path982" d="M309.454-1.999v3.632" class="L M O"/><text id="text986" x="59.666" y="12.178" class="G H I J"><tspan id="tspan984" x="309.123" y="12.178">5</tspan></text><path id="path988" d="M299.001-156.961h20V-1.997h-20z" class="K" paint-order="normal"/><path id="path990" d="M299.001-211.885h20v54.924h-20z" class="P" paint-order="normal"/></g><path id="path994" fill="#888" stroke="#888" d="M22.203 299.349H410"/><text id="text996" x="219.988" y="316.664" fill="#007aff" class="G H" font-size="13.334">Sinnvoller Einsatz eines e-Paper-Displays</text></g></svg>